<svg xmlns="http://www.w3.org/2000/svg" xmlns:xlink="http://www.w3.org/1999/xlink" width="20" height="18" viewBox="0 0 20 18">
    <defs>
        <path id="a" d="M0 .039h19.55v17.96H0z"/>
    </defs>
    <g fill="none" fill-rule="evenodd">
        <g>
            <mask id="b" fill="#fff">
                <use xlink:href="#a"/>
            </mask>
            <path fill="#C01324" d="M11.548 1.052l7.725 13.753c.788 1.403-.198 3.156-1.773 3.156H2.05c-1.576 0-2.56-1.753-1.773-3.156L8.002 1.052a2.02 2.02 0 0 1 3.546 0" mask="url(#b)"/>
        </g>
        <path fill="#FEFEFE" d="M10.006 13.329c.253 0 .47.081.647.242a.766.766 0 0 1 .267.588c0 .237-.09.437-.267.598a.924.924 0 0 1-.647.243.958.958 0 0 1-.665-.243.769.769 0 0 1-.271-.598c0-.23.09-.426.271-.588a.962.962 0 0 1 .665-.242zm-.277-1.262a19.438 19.438 0 0 0-.152-1.769 73.884 73.884 0 0 0-.247-1.774 58.157 58.157 0 0 1-.232-1.71A13.484 13.484 0 0 1 9 5.24c0-.195.03-.366.086-.518.059-.15.134-.28.226-.388a.974.974 0 0 1 .318-.248.903.903 0 0 1 1.081.243c.192.219.289.523.289.91 0 .497-.035 1.022-.104 1.576a77.823 77.823 0 0 1-.232 1.71c-.085.585-.168 1.176-.248 1.773-.08.597-.133 1.186-.157 1.769h-.53z"/>
    </g>
</svg>
