<?xml version="1.0" encoding="UTF-8"?>
<svg width="30px" height="30px" viewBox="0 0 30 30" version="1.1" xmlns="http://www.w3.org/2000/svg" xmlns:xlink="http://www.w3.org/1999/xlink">
    <!-- Generator: Sketch 46.2 (44496) - http://www.bohemiancoding.com/sketch -->
    <title>alert</title>
    <desc>Created with Sketch.</desc>
    <defs></defs>
    <g id="Symbols" stroke="none" stroke-width="1" fill="none" fill-rule="evenodd">
        <g id="Header-Blue" transform="translate(-902.000000, -8.000000)">
            <g id="Header-2">
                <g id="icons" transform="translate(888.000000, 0.000000)">
                    <g id="alert">
                        <rect id="Rectangle" x="0" y="0" width="58" height="60"></rect>
                        <g id="Group-2" transform="translate(14.000000, 10.000000)" stroke-linecap="round" stroke="#0072CE" stroke-linejoin="round">
                            <g id="ic_notification" transform="translate(3.000000, 0.000000)">
                                <g id="Group">
                                    <g transform="translate(4.166667, 2.250000)" stroke-width="2">
                                        <path d="M14.5833333,18 L14.5833333,9 C14.5833333,5.27207794 11.785113,2.25 8.33333333,2.25 C4.88155365,2.25 2.08333333,5.27207794 2.08333333,9 L2.08333333,18 L0,21.375 L16.6666667,21.375 L14.5833333,18 Z" id="Combined-Shape"></path>
                                        <path d="M8.33333333,2.25 L8.33333333,0" id="Line"></path>
                                        <path d="M6.25,21.375 C6.25,22.6176407 7.1827401,23.625 8.33333333,23.625 L8.33333333,23.625 C9.48392656,23.625 10.4166667,22.6176407 10.4166667,21.375" id="Oval-2"></path>
                                    </g>
                                </g>
                            </g>
                        </g>
                    </g>
                </g>
            </g>
        </g>
    </g>
</svg>