<?xml version="1.0" encoding="UTF-8"?>
<svg width="30px" height="30px" viewBox="0 0 30 30" version="1.1" xmlns="http://www.w3.org/2000/svg" xmlns:xlink="http://www.w3.org/1999/xlink">
    <!-- Generator: Sketch 46.2 (44496) - http://www.bohemiancoding.com/sketch -->
    <title>alert</title>
    <desc>Created with Sketch.</desc>
    <defs>
        <path d="M0,12.0370358 C0,15.825095 1.89041017,19.2039683 4.84472029,21.4104383 L4.84472029,26 L9.27110167,23.5706851 C10.4524063,23.8976113 11.7038783,24.0740738 13,24.0740738 C20.1797158,24.0740738 26,18.6849325 26,12.0370358 C26,5.38914458 20.1797158,0 13,0 C5.82028417,0 0,5.38914458 0,12.0370358 Z" id="path-1"></path>
    </defs>
    <g id="Symbols" stroke="none" stroke-width="1" fill="none" fill-rule="evenodd">
        <g id="Header-Blue" transform="translate(-971.000000, -8.000000)">
            <g id="Header-2">
                <g id="icons" transform="translate(888.000000, 0.000000)">
                    <g id="chat" transform="translate(68.000000, 0.000000)">
                        <rect id="Rectangle" x="0" y="0" width="58" height="60"></rect>
                        <g id="Group-3" transform="translate(6.000000, 10.000000)">
                            <g id="Group-4">
                                <g id="Group" transform="translate(11.000000, 0.000000)">
                                    <g id="Combined-Shape">
                                        <mask id="mask-2" fill="white">
                                            <use xlink:href="#path-1"></use>
                                        </mask>
                                        <path stroke="#0072CE" stroke-width="2" d="M5.84472029,24.3104675 L9.14619834,22.4985293 L9.53782591,22.6069122 C10.6525462,22.9154112 11.8148574,23.0740738 13,23.0740738 C19.643894,23.0740738 25,18.1147192 25,12.0370358 C25,5.95935641 19.6438924,1 13,1 C6.35610758,1 1,5.95935641 1,12.0370358 C1,15.4012122 2.64811658,18.5217512 5.44311139,20.6092341 L5.84472029,20.9091817 L5.84472029,24.3104675 Z"></path>
                                        <path d="M8.85714286,14 C7.83147118,14 7,13.1045695 7,12 C7,10.8954305 7.83147118,10 8.85714286,10 C9.88281454,10 10.7142857,10.8954305 10.7142857,12 C10.7142857,13.1045695 9.88281454,14 8.85714286,14 Z M13.5,14 C12.4743283,14 11.6428571,13.1045695 11.6428571,12 C11.6428571,10.8954305 12.4743283,10 13.5,10 C14.5256717,10 15.3571429,10.8954305 15.3571429,12 C15.3571429,13.1045695 14.5256717,14 13.5,14 Z M18.1428571,14 C17.1171855,14 16.2857143,13.1045695 16.2857143,12 C16.2857143,10.8954305 17.1171855,10 18.1428571,10 C19.1685288,10 20,10.8954305 20,12 C20,13.1045695 19.1685288,14 18.1428571,14 Z" fill="#0072CE"></path>
                                    </g>
                                </g>
                            </g>
                        </g>
                    </g>
                </g>
            </g>
        </g>
    </g>
</svg>