<?xml version="1.0" encoding="UTF-8"?>
<svg width="18px" height="18px" viewBox="0 0 18 18" version="1.1" xmlns="http://www.w3.org/2000/svg" xmlns:xlink="http://www.w3.org/1999/xlink">
    <!-- Generator: Sketch 46.2 (44496) - http://www.bohemiancoding.com/sketch -->
    <title>close-icon</title>
    <desc>Created with Sketch.</desc>
    <defs></defs>
    <g id="Page-1" stroke="none" stroke-width="1" fill="none" fill-rule="evenodd">
        <path d="M10.6317372,9.27928383 L16.8495255,3.06150565 C17.2571894,2.65373799 17.2571894,1.99270758 16.8495255,1.58504432 C16.4417572,1.17738106 15.7809345,1.17738106 15.3731662,1.58504432 L9.15527344,7.8028225 L2.93738072,1.58504432 C2.5297168,1.17738106 1.86868531,1.17738106 1.46102138,1.58504432 C1.05335746,1.99270758 1.05335746,2.65373799 1.46102138,3.06150565 L7.6788097,9.27928383 L1.46102138,15.4971664 C1.05335746,15.9048297 1.05335746,16.5658601 1.46102138,16.9735233 C1.66490554,17.1773028 1.9320533,17.2792969 2.19920105,17.2792969 C2.46634881,17.2792969 2.73360096,17.1773028 2.93738072,16.9735233 L9.15527344,10.7557452 L15.3731662,16.9735233 C15.5770503,17.1773028 15.8440937,17.2792969 16.1113458,17.2792969 C16.3784936,17.2792969 16.6456413,17.1773028 16.8495255,16.9735233 C17.2571894,16.5658601 17.2571894,15.9048297 16.8495255,15.4971664 L10.6317372,9.27928383" id="close-icon" fill="#616365"></path>
    </g>
</svg>