<svg xmlns="http://www.w3.org/2000/svg" width="24" height="24" viewBox="0 0 24 24">
    <path fill="#C01324" fill-rule="evenodd" d="M6.945 19.371c3.232 2.405 8.3 2.24 11.55-1.154 3.194-3.332 3.162-8.28.876-11.284L6.945 19.37m-2.31-2.295L17.08 4.62c-3.17-2.34-8-2.227-11.217.833-3.27 3.108-3.779 8.122-1.226 11.622M13.23 24h-2.436c-.284-.06-.567-.13-.855-.18C3.556 22.731-.865 16.585.143 10.198 1.16 3.754 6.97-.667 13.435.083a11.94 11.94 0 0 1 10.1 8.612c.192.684.312 1.388.465 2.085v2.437c-.03.085-.079.168-.09.256-.572 4.765-3.979 8.762-8.598 10.062-.683.192-1.387.312-2.08.465"/>
</svg>
