<?xml version="1.0" encoding="UTF-8"?>
<svg width="285px" height="25px" viewBox="0 0 285 25" version="1.1" xmlns="http://www.w3.org/2000/svg" xmlns:xlink="http://www.w3.org/1999/xlink">
    <!-- Generator: Sketch 46.2 (44496) - http://www.bohemiancoding.com/sketch -->
    <title>logo</title>
    <desc>Created with Sketch.</desc>
    <defs>
        <polygon id="path-1" points="0.44644837 0.0137062999 14.3551712 0.0137062999 14.3551712 18.2076309 0.44644837 18.2076309"></polygon>
        <polygon id="path-3" points="0.180559006 0.0284183673 5.21390683 0.0284183673 5.21390683 4.86566327 0.180559006 4.86566327"></polygon>
    </defs>
    <g id="Page-1" stroke="none" stroke-width="1" fill="none" fill-rule="evenodd">
        <g id="Artboard" transform="translate(-148.000000, -56.000000)">
            <g id="logo" transform="translate(148.000000, 50.000000)">
                <text id="urLease" font-family="Arial-BoldMT, Arial" font-size="32" font-weight="bold" fill="#003F62">
                    <tspan x="163.132812" y="29">urLease</tspan>
                </text>
                <path d="M152.5,6.5 L152.5,29.5" id="Line" stroke="#8A8C8E" stroke-linecap="square"></path>
                <g id="Group-22" transform="translate(0.000000, 6.000000)">
                    <path d="M35,9.97089119 C35,9.97089119 34.6868172,9.91139313 34.4662366,9.86930913 C34.0989491,9.80981106 33.6479034,9.78465741 33.2181875,9.78465741 C31.2178754,9.78465741 29.1462907,10.7806453 29.1462907,13.9340428 L29.1462907,23 L25,23 L25,6.39762122 L29.1462907,6.39762122 L29.1462907,8.64306852 C29.8553741,7.40908832 31.6080533,6 33.9995838,6 C34.3247321,6 34.7492457,6.03289324 35,6.10013089 L35,9.97089119 Z" id="Fill-2" fill="#003F62"></path>
                    <g id="Group-6" transform="translate(34.000000, 6.000000)">
                        <mask id="mask-2" fill="white">
                            <use xlink:href="#path-1"></use>
                        </mask>
                        <g id="Clip-5"></g>
                        <path d="M11.3802255,4.94797427 C10.4240299,4.11295209 8.92674728,3.55964241 7.7882962,3.55964241 C6.14593207,3.55964241 5.32655707,4.35673203 5.32655707,5.29341349 C5.32655707,6.05965129 5.66112228,6.97458474 8.18275272,7.61488642 C12.8005788,8.76449601 14.3551712,10.0708935 14.3551712,13.0341854 C14.3551712,16.0172023 12.2140571,18.2076815 7.60965489,18.2076815 C4.93210054,18.2076815 2.47552446,17.4085688 0.44644837,15.6667054 L2.72283424,12.6149042 C4.11169293,14.0720204 5.93011685,14.6678146 7.60965489,14.6678146 C9.39451902,14.6678146 10.1736223,13.9213017 10.1736223,12.9325262 C10.1736223,12.025685 9.40794293,11.3282316 6.93277989,10.7056318 C2.63248098,9.6025528 1.23226359,7.88344898 1.23226359,5.1249929 C1.23226359,2.82931411 3.04552446,0.0137062999 7.7882962,0.0137062999 C9.96451902,0.0137062999 12.0555516,0.711159716 13.5796821,1.9619228 L11.3802255,4.94797427 Z" id="Fill-4" fill="#003F62" mask="url(#mask-2)"></path>
                    </g>
                    <path d="M60.6383682,20.0197761 L62,23.1827696 C61.1722698,23.6955804 59.7782803,24 58.486061,24 C54.439786,24 52.5056321,22.0259753 52.5056321,18.3947201 L52.5056321,10.00066 L50,10.00066 L50,6.60353565 L52.5056321,6.60353565 L52.5056321,3 L56.6615057,3.00494991 L56.6615057,6.60353565 L60.7464011,6.60353565 L60.7464011,10.00066 L56.6615057,10.00066 L56.6615057,18.4239246 C56.6615057,19.8821685 57.4506154,20.5707012 58.6666377,20.5707012 C59.4875832,20.5707012 59.994868,20.3979493 60.6383682,20.0197761" id="Fill-7" fill="#003F62"></path>
                    <path d="M117,23.1827696 C116.175222,23.6955804 114.777275,24 113.493127,24 C109.445972,24 107.506177,22.0259753 107.506177,18.3947201 L107.506177,10.00066 L105,10.00066 L105,6.60353565 L107.506177,6.60353565 L107.506177,3 L111.664521,3.00494991 L111.664521,6.60353565 L115.745606,6.60353565 L115.745606,10.00066 L111.664521,10.00066 L111.664521,18.4239246 C111.664521,19.8821685 112.454324,20.5707012 113.666957,20.5707012 C114.494867,20.5707012 115.002784,20.3979493 115.645902,20.0197761 L117,23.1827696 Z" id="Fill-9" fill="#003F62"></path>
                    <path d="M90.6579755,7.59095838 C90.6579755,7.59095838 90.9391616,7.43531571 91.2106339,7.29268496 C92.9202454,6.47493536 94.892638,6 96.7249489,6 C102.338957,6 105,8.03136208 105,13.0084244 L105,23.5851197 L100.934049,23.5851197 L100.934049,21.5992994 C99.809816,23.2157811 98.1600204,24 95.5996933,24 C91.2857873,24 89,21.6993911 89,18.394862 C89,15.0317791 91.4621677,12.6616065 95.9478528,12.6616065 C97.8440695,12.6616065 99.9156442,13.0339478 101.004601,13.3807657 L101.004601,13.0794895 C101.004601,10.7078155 99.809816,9.60930853 96.6155419,9.60930853 C95.002045,9.60930853 93.5276074,10.0241888 92.1595092,10.8424389 L90.6579755,7.59095838 Z M96.5848671,20.8766369 C98.8282209,20.8766369 100.934049,18.8808074 100.934049,16.4055384 C99.7392638,15.9581283 98.0224949,15.7184085 96.543456,15.7184085 C93.9867076,15.7184085 92.7847648,17.102177 92.7847648,18.3688381 C92.7847648,20.0178497 94.4427403,20.8766369 96.5848671,20.8766369 L96.5848671,20.8766369 Z" id="Fill-11" fill="#003F62"></path>
                    <path d="M119.657605,7.59095838 C119.657605,7.59095838 119.94435,7.43531571 120.213718,7.29268496 C121.920902,6.47493536 123.89132,6 125.719643,6 C131.331885,6 134,8.03136208 134,13.0084244 L134,23.5851197 L129.933936,23.5851197 L129.933936,21.5992994 C128.808932,23.2157811 127.163083,24 124.596173,24 C120.281187,24 118,21.6993911 118,18.394862 C118,15.0317791 120.463662,12.6616065 124.949366,12.6616065 C126.841581,12.6616065 128.910136,13.0339478 130.004984,13.3807657 L130.004984,13.0794895 C130.004984,10.7078155 128.808932,9.60930853 125.615883,9.60930853 C124.005814,9.60930853 122.531706,10.0241888 121.159825,10.8424389 L119.657605,7.59095838 Z M125.58266,20.8766369 C127.827556,20.8766369 129.933936,18.8808074 129.933936,16.4055384 C128.740951,15.9581283 127.025077,15.7184085 125.544836,15.7184085 C122.983548,15.7184085 121.785452,17.102177 121.785452,18.3688381 C121.785452,20.0178497 123.443057,20.8766369 125.58266,20.8766369 L125.58266,20.8766369 Z" id="Fill-13" fill="#003F62"></path>
                    <path d="M67,0 L76.074217,0 C83.7197575,0 89,5.1739004 89,11.9292271 L89,11.9985048 C89,18.7503427 83.7197575,24 76.074217,24 L67,24 L67,0 Z M76.074217,20.1573286 C81.1832001,20.1573286 84.5209883,16.7627196 84.5209883,12.0662873 L84.5209883,11.9985048 C84.5209883,7.30356772 81.1832001,3.83818582 76.074217,3.83818582 L71.274915,3.83818582 L71.274915,20.1573286 L76.074217,20.1573286 Z" id="Fill-15" fill="#003F62"></path>
                    <polygon id="Fill-17" fill="#003F62" points="0 0 17 0 17 3.83844428 4.26713303 3.83844428 4.26713303 10.3914236 15.440894 10.3914236 15.440894 14.2218898 4.26713303 14.2218898 4.26713303 24 0 24"></polygon>
                    <polygon id="Fill-1" fill="#003F62" points="19 24 23 24 23 7 19 7"></polygon>
                    <g id="Group-21" transform="translate(135.000000, 19.000000)">
                        <mask id="mask-4" fill="white">
                            <use xlink:href="#path-3"></use>
                        </mask>
                        <g id="Clip-20"></g>
                        <path d="M2.26070497,1.6947449 L2.26070497,2.41464286 L2.79707143,2.41464286 C3.07534472,2.41464286 3.2128882,2.30086735 3.2128882,2.05137755 C3.2128882,1.81719388 3.07534472,1.6947449 2.79707143,1.6947449 L2.26070497,1.6947449 Z M2.7901677,2.77841837 L2.26070497,2.77841837 L2.26070497,3.56107143 L1.84860559,3.56107143 L1.84860559,1.3330102 L2.7901677,1.3330102 C3.26493168,1.3330102 3.62551863,1.50954082 3.62551863,2.05137755 C3.62551863,2.4080102 3.45717391,2.62484694 3.19217702,2.7202551 L3.68446584,3.56107143 L3.22669565,3.56107143 L2.7901677,2.77841837 Z M2.69723292,4.4825 C3.86343168,4.4825 4.81561491,3.56770408 4.81561491,2.44627551 C4.81561491,1.32637755 3.86343168,0.41005102 2.69723292,0.41005102 C1.53209627,0.41005102 0.576195652,1.32637755 0.576195652,2.44627551 C0.576195652,3.56770408 1.53209627,4.4825 2.69723292,4.4825 L2.69723292,4.4825 Z M2.69723292,0.0284183673 C4.08966149,0.0284183673 5.21443789,1.11005102 5.21443789,2.44627551 C5.21443789,3.78403061 4.08966149,4.86566327 2.69723292,4.86566327 C1.30480435,4.86566327 0.180559006,3.78403061 0.180559006,2.44627551 C0.180559006,1.11005102 1.30480435,0.0284183673 2.69723292,0.0284183673 L2.69723292,0.0284183673 Z" id="Fill-19" fill="#003F62" mask="url(#mask-4)"></path>
                    </g>
                </g>
            </g>
        </g>
    </g>
</svg>