<?xml version="1.0" encoding="UTF-8"?>
<svg width="30px" height="30px" viewBox="0 0 30 30" version="1.1" xmlns="http://www.w3.org/2000/svg" xmlns:xlink="http://www.w3.org/1999/xlink">
    <!-- Generator: Sketch 46.2 (44496) - http://www.bohemiancoding.com/sketch -->
    <title>right arrow</title>
    <desc>Created with Sketch.</desc>
    <defs></defs>
    <g id="Page-1" stroke="none" stroke-width="1" fill="none" fill-rule="evenodd">
        <g id="Artboard-2" transform="translate(-35.000000, -39.000000)">
            <g id="right-arrow" transform="translate(50.000000, 54.000000) scale(-1, 1) translate(-50.000000, -54.000000) translate(35.000000, 39.000000)">
                <circle id="Oval-366" fill="#616365" cx="15" cy="15" r="15"></circle>
                <path d="M14.0246319,15.1752994 L19.7497277,9.45020354 C20.0817802,9.11815109 20.0846472,8.5826547 19.7509713,8.24897885 C19.4196057,7.91761322 18.8839826,7.91598641 18.5497466,8.25022244 L12.2502723,14.5496968 C12.0777196,14.7222494 11.9940606,14.9497403 12.0003276,15.1752994 C11.9940606,15.4008584 12.0777196,15.6283493 12.2502723,15.800902 L18.5497466,22.1003763 C18.8839826,22.4346123 19.4196057,22.4329855 19.7509713,22.1016199 C20.0846472,21.767944 20.0817802,21.2324476 19.7497277,20.9003952 L14.0246319,15.1752994 Z" id="Rectangle-37" fill="#FFFFFF" transform="translate(16.000000, 15.175299) rotate(-180.000000) translate(-16.000000, -15.175299) "></path>
            </g>
        </g>
    </g>
</svg>