<svg xmlns="http://www.w3.org/2000/svg" xmlns:xlink="http://www.w3.org/1999/xlink" width="25" height="25" viewBox="0 0 25 25">
    <defs>
        <path id="a" d="M20.312 11.528h3.216a.472.472 0 0 1 0 .944h-3.216a.472.472 0 0 1 0-.944zm.1-3.008l2.085-1.417c.191-.13.437-.053.547.173.111.226.045.515-.146.646l-2.084 1.417c-.192.13-.437.053-.548-.173-.11-.226-.045-.515.147-.646zm.402 6.141l2.084 1.417c.191.13.257.42.146.646-.11.226-.356.303-.547.173l-2.084-1.417c-.192-.13-.258-.42-.147-.646.11-.226.356-.303.548-.173z"/>
    </defs>
    <g fill="none" fill-rule="evenodd">
        <path stroke="#FFF" d="M5.993 18.326l-.013 2.653c0 .333.247.601.608.601h4.76c.32-.13.559-.41.559-.738v-1.37l-5.914-1.146z"/>
        <path stroke="#FFF" stroke-width="2" d="M4.096 12.907a.973.973 0 0 0-.973-.973H2.96a1 1 0 0 0-1 1v5.393a1 1 0 0 0 1 1h.333c.444 0 .803-.36.803-.804a.668.668 0 0 1 .79-.656l13.49 2.513a1 1 0 0 0 1.184-.983v-8.96a1 1 0 0 0-1.296-.955l-13.238 4.11a.717.717 0 0 1-.93-.685z"/>
        <g transform="translate(1 3)">
            <use fill="#FFF" xlink:href="#a"/>
            <path stroke="#FFF" stroke-width="2" d="M20.312 12.528h3.216a.528.528 0 0 1 0-1.056h-3.216a.528.528 0 0 1 0 1.056zm.663-3.18L23.06 7.93c-.33.225-.765.088-.913-.214-.102-.208-.044-.463.19-.621l-2.084 1.417c.33-.225.764-.088.912.214.102.208.044.463-.189.621zm-.723 6.14l2.083 1.417c-.233-.158-.29-.413-.189-.621.148-.302.583-.439.913-.214l-2.084-1.417c.233.158.291.413.19.621-.149.302-.583.439-.913.214z"/>
        </g>
    </g>
</svg>
