<svg xmlns="http://www.w3.org/2000/svg" width="25" height="25" viewBox="0 0 25 25">
    <g fill="none" fill-rule="evenodd">
        <path fill="#FFF" d="M4 11.6c-.025-2.423.855-4.275 2.385-5.78 1.431-1.408 3.126-2.235 5.002-2.593 2.771-.53 5.423-.162 7.888 1.415 1.052.673 1.97 1.532 2.624 2.67 1.396 2.428 1.513 4.99.071 7.361-1.112 1.828-1.08 3.579-.485 5.488.076.244.164.484.284.839l-1.854-.88c-.158-.074-.314-.149-.472-.222-.754-.357-1.487-.902-2.271-1.016-.75-.11-1.556.228-2.337.367-.084.015-.168.016-.297.029.274-.486.52-.943.79-1.38.056-.094.2-.145.31-.169.553-.123 1.106-.25 1.665-.33.166-.024.362.068.521.158.745.42 1.481.86 2.256 1.313-.102-.736-.215-1.414-.286-2.098-.082-.78.077-1.476.53-2.124.6-.856 1.078-1.811 1.226-2.902.283-2.09-.397-3.797-1.836-5.13-1.543-1.433-3.374-2.13-5.356-2.347-3.15-.346-5.677 1.007-7.715 3.584a4.443 4.443 0 0 0-.96 2.463c-.01.142-.107.329-.215.4-.45.298-.92.56-1.467.885"/>
        <path stroke="#FFF" stroke-width="2" d="M4.303 19.117c.079-.598-.087-1.148-.445-1.658-1.353-1.935-1.089-4.118.671-5.725 2.629-2.402 7.564-2.291 10.088.224 2.058 2.054 1.797 4.98-.636 6.7-1.951 1.379-4.129 1.618-6.433 1.134a1.667 1.667 0 0 0-.891.066c-.612.235-1.52.615-2.723 1.142.194-.849.317-1.477.37-1.883z"/>
    </g>
</svg>
