<?xml  version="1.0" encoding="UTF-8"?>
<!DOCTYPE svg PUBLIC "-//W3C//DTD SVG 1.0//EN" "http://www.w3.org/TR/2001/REC-SVG-20010904/DTD/svg10.dtd" >
<svg xmlns="http://www.w3.org/2000/svg" >
<metadata>
<version>1.0</version>
<id><![CDATA[SimpleSans-LightOblique]]></id>
<vendor>Monotype Imaging Inc.</vendor>
<credits>
<name>Fonts.com WebFonts</name>
<URL>http://webfonts.fonts.com</URL>
<role>Home of the Web fonts</role>
</credits>
<license>
<URL>http://webfonts.fonts.com/Legal</URL>
</license>
<copyright><![CDATA[Copyright (c) 2008 by VSA Partners. All rights reserved.]]></copyright>
<trademark><![CDATA[SimpleSans-LightOblique is a trademark of VSA Partners.]]></trademark>
<licensee>
<name></name>
</licensee>
</metadata>
<defs >
<font horiz-adv-x="564" id="aeacb720-1539-4786-8611-2e1038b843bf">
<font-face font-family="" panose-1="2 0 5 3 4 0 0 2 0 4" ascent="952" descent="-218" units-per-em="1000" alphabetic="0">
</font-face>
<missing-glyph horiz-adv-x="617" d="M50 0V700H562V0H50ZM468 622H144V78H468V622Z"  />

<glyph unicode="&#xA;" />
<glyph unicode="&#xD;" />
<glyph unicode=" " horiz-adv-x="250" />
<glyph unicode="!" horiz-adv-x="282" d="M156 700H252L133 196H97L156 700ZM52 81H135L122 0H39L52 81Z"  />
<glyph unicode="&quot;" horiz-adv-x="420" d="M156 420H122L143 700H233L156 420ZM326 420H292L313 700H403L326 420Z"  />
<glyph unicode="#" horiz-adv-x="661" d="M497 507L440 313H545L531 268H426L382 120H333L377 268H223L179 120H130L174 268H67L81 313H188L245 507H138L152 552H259L303 700H352L308 552H462L506 700H555L511 552H616L602 507H497ZM237 313H391L448 507H294L237 313Z"  />
<glyph unicode="$" horiz-adv-x="549" d="M186 -36L195 15Q132 19 87 42T16 95L62 141Q84 114 121 95T205 71L251 332Q174 360 141 394T107 483Q107 565 166 619T312 683L322 737H373L364 684Q455 680 506 623L464 580Q414 626 354 629L308 371Q363 352 396 332T447 287T465 220Q465 134 408 79T246 16L237 -36H186ZM401 217Q401 249 378 271T299 316L256 71Q332 79 366 122T401 217ZM168 485Q168 458 185 435T261 388L303 627Q239 617 204 576T168 485Z"  />
<glyph unicode="%" horiz-adv-x="753" d="M660 700H724L91 0H27L660 700ZM280 712Q338 712 376 674T414 581Q414 507 358 453T229 398Q170 398 132 437T94 530Q94 602 150 657T280 712ZM150 534Q150 496 174 472T234 447Q282 447 320 486T358 577Q358 608 338 635T274 663Q225 663 188 624T150 534ZM527 302Q585 302 623 264T661 171Q661 97 605 43T476 -12Q417 -12 379 27T341 120Q341 192 397 247T527 302ZM397 124Q397 86 421 62T481 37Q529 37 567 76T605 167Q605 198 585 225T521 253Q472 253 435 214T397 124Z"  />
<glyph unicode="&amp;" horiz-adv-x="683" d="M198 -12Q118 -12 73 26T28 133L31 170Q43 247 145 322L223 378L182 432Q141 486 141 540Q141 612 196 662T332 712Q407 712 438 675T470 586Q470 496 382 433L299 372L442 188L554 302H630L474 147L589 0H515L433 106Q365 38 315 13T198 -12ZM93 141Q93 100 121 73T211 45Q264 45 301 64T402 146L253 339L177 284Q93 222 93 141ZM412 581Q412 615 387 637T323 659Q272 659 236 626T200 539Q200 520 207 501T269 410L339 460Q382 491 397 521T412 581Z"  />
<glyph unicode="&apos;" horiz-adv-x="250" d="M156 420H122L143 700H233L156 420Z"  />
<glyph unicode="(" horiz-adv-x="407" d="M127 188Q127 19 238 -152L191 -183Q61 -6 61 190Q61 344 132 488T361 780L399 749Q246 593 187 460T127 188Z"  />
<glyph unicode=")" horiz-adv-x="407" d="M265 409Q265 494 240 573T154 749L201 780Q272 679 301 590T331 407Q331 253 260 109T31 -183L-7 -152Q146 4 205 137T265 409Z"  />
<glyph unicode="*" horiz-adv-x="602" d="M306 481L103 514L146 600L317 504L321 712H411L341 504L546 600L559 514L344 481L467 332L385 279L323 466L195 279L131 332L306 481Z"  />
<glyph unicode="+" horiz-adv-x="566" d="M56 319H250L284 513H342L308 319H502L492 261H298L263 67H205L240 261H46L56 319Z"  />
<glyph unicode="&#x2c;" horiz-adv-x="265" d="M69 100H153L30 -100H-19L69 100Z"  />
<glyph unicode="-" horiz-adv-x="456" d="M63 301H379L368 239H52L63 301Z"  />
<glyph unicode="." horiz-adv-x="222" d="M16 81H99L86 0H3L16 81Z"  />
<glyph unicode="/" horiz-adv-x="455" d="M421 740H487L29 -80H-37L421 740Z"  />
<glyph unicode="0" horiz-adv-x="630" d="M255 -12Q126 -12 84 61T42 227Q42 349 84 468T201 650T381 712Q503 712 546 637T589 469Q589 353 549 231T435 49T255 -12ZM371 654Q291 654 231 599T139 433T107 226Q107 135 144 91T262 46Q349 46 405 101T493 268T524 472Q524 540 496 597T371 654Z"  />
<glyph unicode="1" horiz-adv-x="411" d="M344 700L221 0H155L266 625L131 564L111 611L301 700H344Z"  />
<glyph unicode="2" horiz-adv-x="560" d="M465 58L455 0H-17L-9 48L344 347Q408 402 433 445T458 539Q458 654 318 654Q224 654 131 590L103 635Q206 712 324 712Q419 712 471 670T524 545Q524 479 494 427T380 306L85 58H465Z"  />
<glyph unicode="3" horiz-adv-x="574" d="M37 109Q96 46 206 46Q320 46 376 95T433 227Q433 275 397 305T282 336H199L209 392H290Q375 392 418 432T461 541Q461 584 430 619T318 654Q230 654 134 590L108 636Q214 712 328 712Q418 712 473 670T529 552Q529 488 490 438T380 364Q449 345 474 304T499 220Q499 154 461 100T356 17T195 -12Q130 -12 78 7T-7 58L37 109Z"  />
<glyph unicode="4" horiz-adv-x="645" d="M400 172H18L26 216L463 700H559L476 230H576L566 172H466L436 0H370L400 172ZM410 230L484 647L107 230H410Z"  />
<glyph unicode="5" horiz-adv-x="606" d="M35 112Q107 46 234 46Q342 46 406 108T471 265Q471 332 431 371T320 410Q216 410 141 343L86 362L186 700H560L550 642H233L163 406Q246 463 333 463Q429 463 483 413T538 275Q538 196 501 129T394 25T224 -12Q81 -12 -8 58L35 112Z"  />
<glyph unicode="6" horiz-adv-x="618" d="M391 654Q294 654 223 571T126 345Q163 395 221 429T356 463Q451 463 506 413T562 277Q562 199 522 131T413 25T263 -12Q155 -12 102 50T48 224Q48 301 71 395T143 563T258 674T401 712Q508 712 578 653L534 601Q479 654 391 654ZM273 46Q365 46 429 112T493 265Q493 331 451 370T337 410Q249 410 184 346T117 191Q117 124 158 85T273 46Z"  />
<glyph unicode="7" horiz-adv-x="537" d="M96 700H555L545 645L165 0H87L473 642H86L96 700Z"  />
<glyph unicode="8" horiz-adv-x="632" d="M256 -12Q130 -12 75 35T19 153Q19 230 68 287T203 369Q156 386 130 419T104 498Q104 588 179 650T379 712Q478 712 535 671T593 557Q593 489 553 440T440 366Q495 348 526 310T558 221Q558 158 524 103T422 18T256 -12ZM316 342Q209 342 148 293T87 161Q87 111 128 79T264 46Q374 46 433 93T493 222Q493 271 453 306T316 342ZM371 654Q280 654 225 612T169 493Q169 390 324 390Q499 390 524 523L526 544Q526 599 484 626T371 654Z"  />
<glyph unicode="9" horiz-adv-x="623" d="M231 46Q336 46 404 125T498 353Q416 240 270 240Q176 240 120 291T64 428Q64 506 104 572T212 675T361 712Q576 712 576 474Q576 391 553 295T484 130T374 24T226 -12Q120 -12 47 49L90 101Q149 46 231 46ZM353 654Q256 654 194 587T132 430Q132 363 172 327T287 290Q379 290 443 351T507 505Q507 577 466 615T353 654Z"  />
<glyph unicode=":" horiz-adv-x="252" d="M24 84H108L94 0H10L24 84ZM86 435H170L155 351H71L86 435Z"  />
<glyph unicode=";" horiz-adv-x="238" d="M38 84H122L23 -96H-27L38 84ZM100 435H184L169 351H85L100 435Z"  />
<glyph unicode="&lt;" horiz-adv-x="478" d="M58 330L375 740H448L125 324L301 -80H236L58 330Z"  />
<glyph unicode="=" horiz-adv-x="566" d="M64 365L74 423H520L510 365H64ZM27 157L37 215H483L473 157H27Z"  />
<glyph unicode="&gt;" horiz-adv-x="478" d="M376 330L59 -80H-14L309 336L133 740H198L376 330Z"  />
<glyph unicode="?" horiz-adv-x="552" d="M205 206Q203 241 208 265Q213 295 226 316T256 354T294 382T336 406Q356 417 375 428T409 453T436 483T452 522Q457 550 453 574T432 616T386 644T314 655Q260 655 211 636T116 582L89 626Q137 664 197 688T324 712Q385 712 425 697T489 656T518 596T518 522Q513 494 501 473T472 434T432 402T384 373Q357 358 333 344T291 312T262 268T247 206H205ZM163 81H246L233 0H150L163 81Z"  />
<glyph unicode="@" horiz-adv-x="996" d="M347 156Q347 90 442 90Q490 90 533 110T597 157L609 224Q547 253 471 253Q415 253 381 228T347 156ZM428 -100Q532 -100 619 -62Q621 -76 626 -86T634 -109Q592 -127 534 -138T419 -150Q256 -150 166 -69T76 157Q76 296 143 411T322 590T562 655Q714 655 803 573T892 356Q892 280 868 202T797 86T689 48Q623 48 603 112Q570 79 521 60T426 40Q356 40 324 71T291 149Q291 216 341 256T471 297Q546 297 616 265Q625 310 625 326Q625 362 603 387T506 412Q446 412 392 385L382 427Q445 461 517 461Q615 461 647 427T680 339L676 297L651 158L650 143Q650 122 662 107T704 91Q747 91 773 121T816 223T834 348Q834 466 761 534T557 602Q441 602 344 546T191 389T134 161Q134 35 210 -32T428 -100Z"  />
<glyph unicode="A" horiz-adv-x="670" d="M590 0H524L483 198H141L32 0H-40L352 700H444L590 0ZM174 256H472L392 650L174 256Z"  />
<glyph unicode="B" horiz-adv-x="653" d="M143 700H428Q532 700 568 658T605 557Q605 487 570 435T473 355Q521 342 550 306T580 222L576 187Q542 0 341 0H20L143 700ZM142 321L96 58H351Q426 58 469 106T512 226Q512 263 486 292T397 321H142ZM199 642L152 379H385Q454 379 496 426T538 544Q538 582 516 612T422 642H199Z"  />
<glyph unicode="C" horiz-adv-x="679" d="M580 53Q483 -12 351 -12Q213 -12 130 68T46 281Q46 397 106 497T265 654T474 712Q605 712 682 645L641 591Q574 654 468 654Q378 654 297 607T164 474T112 282Q112 173 178 110T355 46Q471 46 554 105L580 53Z"  />
<glyph unicode="D" horiz-adv-x="708" d="M143 700H398Q525 700 595 631T667 432Q667 320 618 216T478 56T274 0H20L143 700ZM281 58Q372 58 444 105T558 239T600 433Q600 517 554 579T385 642H199L96 58H281Z"  />
<glyph unicode="E" horiz-adv-x="599" d="M143 700H595L585 642H199L152 379H486L476 321H142L96 58H489L479 0H20L143 700Z"  />
<glyph unicode="F" horiz-adv-x="552" d="M20 0L143 700H565L555 642H199L152 379H456L446 321H142L86 0H20Z"  />
<glyph unicode="G" horiz-adv-x="746" d="M355 46Q477 46 569 109L606 321H397L407 379H682L630 83Q520 -12 351 -12Q213 -12 130 68T46 281Q46 397 106 497T265 654T474 712Q605 712 682 645L642 593Q575 654 468 654Q378 654 297 607T164 474T112 282Q112 173 178 110T355 46Z"  />
<glyph unicode="H" horiz-adv-x="710" d="M560 321H142L86 0H20L143 700H209L152 379H570L627 700H693L570 0H504L560 321Z"  />
<glyph unicode="I" horiz-adv-x="246" d="M153 700H219L96 0H30L153 700Z"  />
<glyph unicode="J" horiz-adv-x="449" d="M26 92Q44 72 74 59T131 46Q195 46 228 78T275 186L366 700H432L341 187Q322 78 273 33T128 -12Q44 -12 -11 38L26 92Z"  />
<glyph unicode="K" horiz-adv-x="600" d="M150 379L538 700H627L250 392L519 0H439L199 351L136 299L84 0H18L141 700H207L150 379Z"  />
<glyph unicode="L" horiz-adv-x="510" d="M143 700H209L96 58H420L410 0H20L143 700Z"  />
<glyph unicode="M" horiz-adv-x="882" d="M390 67L754 700H865L742 0H676L790 647L415 0H347L200 647L86 0H20L143 700H250L390 67Z"  />
<glyph unicode="N" horiz-adv-x="709" d="M195 635L185 566L86 0H20L143 700H232L516 65L527 137L626 700H692L569 0H480L195 635Z"  />
<glyph unicode="O" horiz-adv-x="824" d="M351 -12Q213 -12 129 67T44 278Q44 395 102 496T260 655T476 712Q612 712 697 632T782 422Q782 342 752 262T663 119T524 22T351 -12ZM355 46Q453 46 535 94T666 231T715 416Q715 525 647 589T469 654Q394 654 327 624T211 541T136 419T110 282Q110 176 177 111T355 46Z"  />
<glyph unicode="P" horiz-adv-x="637" d="M132 264L86 0H20L143 700H429Q528 700 577 658T627 538Q627 461 594 396T500 298T353 264H132ZM199 642L142 322H361Q459 322 509 380T560 528Q560 575 533 608T418 642H199Z"  />
<glyph unicode="Q" horiz-adv-x="812" d="M351 -12Q213 -12 129 67T44 278Q44 395 102 496T260 655T476 712Q612 712 697 632T782 422Q782 320 733 223T596 65L665 -39L617 -70L547 35Q455 -12 351 -12ZM497 214L564 112Q636 165 675 247T716 417Q716 524 648 589T469 654Q372 654 291 606T160 470T111 283Q111 175 178 111T355 46Q441 46 515 83L449 183L497 214Z"  />
<glyph unicode="R" horiz-adv-x="676" d="M379 278H135L86 0H20L143 700H440Q641 700 641 542Q641 445 593 377T444 285L566 0H494L379 278ZM199 642L145 336H377Q444 336 486 358T551 430T574 534Q574 581 546 611T429 642H199Z"  />
<glyph unicode="S" horiz-adv-x="555" d="M479 598Q423 654 348 654Q267 654 217 611T167 498Q167 456 197 429T300 376Q399 341 439 304T480 210Q480 152 451 100T361 18T214 -12Q139 -12 85 13T2 72L50 124Q77 89 121 68T222 46Q386 46 410 181L413 206Q413 245 380 272T268 327Q174 360 137 397T99 493Q99 585 170 648T354 712Q463 712 526 647L479 598Z"  />
<glyph unicode="T" horiz-adv-x="570" d="M93 700H603L593 642H371L258 0H192L305 642H83L93 700Z"  />
<glyph unicode="U" horiz-adv-x="702" d="M619 700H685L605 249Q586 124 505 56T290 -12Q179 -12 119 40T58 191Q58 219 63 249L143 700H209L129 249Q124 219 124 193Q124 46 295 46Q390 46 455 95T539 249L619 700Z"  />
<glyph unicode="V" horiz-adv-x="672" d="M83 700H152L283 57L640 700H715L315 0H237L83 700Z"  />
<glyph unicode="W" horiz-adv-x="985" d="M668 56L936 700H1008L709 0H614L545 650L251 0H156L103 700H171L211 56L506 700H604L668 56Z"  />
<glyph unicode="X" horiz-adv-x="650" d="M570 0H493L320 310L46 0H-40L287 359L92 700H169L332 401L597 700H684L365 354L570 0Z"  />
<glyph unicode="Y" horiz-adv-x="648" d="M83 700H157L316 319L610 700H691L342 260L297 0H231L276 260L83 700Z"  />
<glyph unicode="Z" horiz-adv-x="642" d="M536 642H119L129 700H635L627 656L89 58H542L532 0H-10L-3 44L536 642Z"  />
<glyph unicode="[" horiz-adv-x="397" d="M396 792L387 738H212L63 -106H238L228 -160H-9L159 792H396Z"  />
<glyph unicode="\" horiz-adv-x="455" d="M342 -80H282L108 740H168L342 -80Z"  />
<glyph unicode="]" horiz-adv-x="397" d="M396 792L228 -160H-9L1 -107H176L325 739H150L159 792H396Z"  />
<glyph unicode="^" horiz-adv-x="484" d="M376 477L296 651L155 477H89L273 700H337L443 477H376Z"  />
<glyph unicode="_" horiz-adv-x="500" d="M-20 58H420L410 0H-30L-20 58Z"  />
<glyph unicode="`" horiz-adv-x="280" d="M245 570H208L134 712H207L245 570Z"  />
<glyph unicode="a" horiz-adv-x="563" d="M422 356Q422 397 397 426T285 456Q253 456 213 445T141 415L122 464Q161 487 210 499T293 512Q408 512 445 470T483 366Q483 343 478 315L423 0H363L381 107Q302 -12 171 -12Q91 -12 52 27T13 123Q13 209 72 258T233 308Q272 308 321 299T410 272Q422 339 422 356ZM187 43Q262 43 326 96T402 225V226Q376 238 328 248T227 259Q158 259 116 223T74 128Q74 89 103 66T187 43Z"  />
<glyph unicode="b" horiz-adv-x="656" d="M120 206Q120 131 166 88T290 44Q396 44 464 115T533 291Q533 368 488 412T363 456Q262 456 191 384T120 206ZM287 -12Q222 -12 171 17T97 100L80 0H20L149 736H209L150 400Q240 512 377 512Q477 512 536 455T595 302Q595 221 555 146T445 29T287 -12Z"  />
<glyph unicode="c" horiz-adv-x="553" d="M442 50Q360 -12 252 -12Q150 -12 90 47T29 199Q29 284 71 357T185 471T341 512Q451 512 511 446L468 401Q421 456 333 456Q230 456 160 383T90 202Q90 128 134 86T258 44Q351 44 413 96L442 50Z"  />
<glyph unicode="d" horiz-adv-x="656" d="M503 290Q503 365 457 410T333 456Q229 456 160 383T91 201Q91 126 135 85T258 44Q326 44 383 77T471 169T503 290ZM246 -12Q147 -12 88 45T28 197Q28 283 70 356T183 471T339 512Q404 512 452 483T526 400L585 736H645L516 0H456L473 100Q385 -12 246 -12Z"  />
<glyph unicode="e" horiz-adv-x="598" d="M326 454Q244 454 184 406T101 279H475L476 307Q476 378 437 416T326 454ZM462 53Q367 -12 249 -12Q147 -12 88 44T28 198Q28 328 117 420T331 512Q430 512 484 460T538 312Q538 286 534 258T526 223H90L88 192Q88 124 133 84T259 44Q312 44 350 56T437 101L462 53Z"  />
<glyph unicode="f" horiz-adv-x="361" d="M369 682Q344 696 314 696Q240 696 226 617L206 500H325L316 449H197L117 0H57L137 449H59L68 500H146L166 616Q190 748 321 748Q365 748 399 730L369 682Z"  />
<glyph unicode="g" horiz-adv-x="656" d="M333 512Q468 512 521 399L539 500H599L513 15Q474 -212 218 -212Q103 -212 21 -161L57 -107Q84 -127 129 -141T225 -156Q325 -156 381 -114T453 16L470 113Q384 0 243 0Q150 0 90 58T30 205Q30 289 72 360T184 471T333 512ZM499 292Q499 364 454 410T334 456Q232 456 162 385T92 215Q92 143 137 100T261 56Q355 56 427 127T499 292Z"  />
<glyph unicode="h" horiz-adv-x="590" d="M456 366Q456 404 435 430T342 457Q265 457 203 402T127 271L80 0H20L149 736H209L150 397Q188 454 246 483T363 512Q458 512 488 472T518 379Q518 356 513 329L455 0H395L452 325L456 366Z"  />
<glyph unicode="i" horiz-adv-x="238" d="M117 500H177L89 0H29L117 500ZM142 665H210L198 597H130L142 665Z"  />
<glyph unicode="j" horiz-adv-x="246" d="M-118 -147Q-94 -162 -64 -162Q9 -162 23 -83L126 500H186L83 -80Q59 -212 -70 -212Q-115 -212 -149 -194L-118 -147ZM151 665H219L207 597H139L151 665Z"  />
<glyph unicode="k" horiz-adv-x="503" d="M180 254L115 200L80 0H20L149 736H209L127 271L401 500H483L231 295L432 0H354L180 254Z"  />
<glyph unicode="l" horiz-adv-x="220" d="M149 736H209L80 0H20L149 736Z"  />
<glyph unicode="m" horiz-adv-x="857" d="M403 370Q403 454 305 454Q244 454 195 412T135 313L80 0H20L108 500H168L152 414Q185 465 233 488T328 512Q446 512 463 415Q497 463 546 487T649 512Q717 512 751 480T786 389L782 344L722 0H662L722 344L724 370Q724 454 626 454Q566 454 516 413T456 314L401 0H341L401 344L403 370Z"  />
<glyph unicode="n" horiz-adv-x="590" d="M456 366Q456 404 435 430T342 457Q265 457 203 402T127 271L80 0H20L108 500H168L150 397Q188 454 246 483T363 512Q458 512 488 472T518 379Q518 356 513 329L455 0H395L452 325L456 366Z"  />
<glyph unicode="o" horiz-adv-x="606" d="M331 512Q433 512 494 454T555 302Q555 220 515 146T402 30T242 -12Q139 -12 79 46T19 197Q19 283 61 357T175 471T331 512ZM79 198Q79 139 116 92T248 44Q354 44 423 117T494 294Q494 371 448 413T325 456Q221 456 150 382T79 198Z"  />
<glyph unicode="p" horiz-adv-x="656" d="M120 206Q120 131 166 88T290 44Q396 44 464 115T533 291Q533 368 488 412T363 456Q262 456 191 384T120 206ZM287 -12Q222 -12 171 17T97 100L44 -200H-16L108 500H168L150 400Q240 512 377 512Q477 512 536 455T595 302Q595 221 555 146T445 29T287 -12Z"  />
<glyph unicode="q" horiz-adv-x="656" d="M503 290Q503 365 457 410T333 456Q229 456 160 383T91 201Q91 126 135 85T258 44Q326 44 383 77T471 169T503 290ZM246 -12Q147 -12 88 45T28 197Q28 283 70 356T183 471T339 512Q404 512 452 483T526 400L544 500H604L480 -200H420L473 100Q385 -12 246 -12Z"  />
<glyph unicode="r" horiz-adv-x="357" d="M335 448Q314 454 284 454Q229 454 187 410T131 293L80 0H20L108 500H168L153 418Q179 460 219 486T308 512Q334 512 346 508L335 448Z"  />
<glyph unicode="s" horiz-adv-x="451" d="M358 415Q312 457 256 457Q201 457 166 430T131 356Q131 328 153 309T228 272Q298 249 333 221T369 146Q369 75 317 32T170 -12Q65 -12 1 50L41 98Q98 43 173 43Q230 43 267 69T305 140Q305 191 206 223Q134 246 102 277T69 357Q69 422 124 467T262 512Q345 512 398 465L358 415Z"  />
<glyph unicode="t" horiz-adv-x="378" d="M279 6Q239 -12 195 -12Q83 -12 83 85L86 120L144 449H59L68 500H153L176 640H236L213 500H344L335 449H204L145 119L143 95Q143 40 204 40Q235 40 265 54L279 6Z"  />
<glyph unicode="u" horiz-adv-x="590" d="M106 129Q106 94 122 69T210 43Q286 43 352 99T429 225L478 500H538L450 0H390L408 107Q370 50 313 19T195 -12Q100 -12 72 26T44 114Q44 138 49 166L108 500H168L110 175L106 129Z"  />
<glyph unicode="v" horiz-adv-x="544" d="M246 0H178L48 500H115L220 57L481 500H552L246 0Z"  />
<glyph unicode="w" horiz-adv-x="828" d="M433 453L219 0H137L78 500H145L187 52L400 500H484L539 52L739 500H806L571 0H489L433 453Z"  />
<glyph unicode="x" horiz-adv-x="532" d="M452 0H383L246 217L37 0H-40L216 261L63 500H134L258 302L448 500H525L288 258L452 0Z"  />
<glyph unicode="y" horiz-adv-x="544" d="M48 500H115L221 65L482 500H552L194 -83Q142 -165 109 -187T22 -210Q-2 -210 -26 -203T-59 -188L-25 -134Q-16 -142 0 -148T31 -155Q66 -155 88 -137T139 -70L179 -2L48 500Z"  />
<glyph unicode="z" horiz-adv-x="519" d="M389 444H82L92 500H482L473 452L81 56H418L409 0H-10L-2 48L389 444Z"  />
<glyph unicode="{" horiz-adv-x="481" d="M153 316Q205 300 205 237L201 200L158 -42L157 -58Q157 -106 214 -106H322L312 -160H190Q137 -160 115 -135T93 -75L95 -49Q146 240 146 247Q146 289 97 289H40L50 343H107Q163 343 174 399L224 681Q233 734 269 763T358 792H480L471 738H363Q295 738 284 674L242 432Q225 334 153 316Z"  />
<glyph unicode="|" horiz-adv-x="276" d="M189 792H245L77 -160H21L189 792Z"  />
<glyph unicode="}" horiz-adv-x="481" d="M314 690Q314 738 258 738H150L159 792H281Q334 792 356 767T379 707L377 681Q325 389 325 383Q325 343 374 343H431L421 289H364Q307 289 298 233L248 -49Q239 -102 203 -131T113 -160H-9L1 -106H109Q176 -106 187 -42L230 200Q246 295 318 316Q267 330 267 394L271 432L313 674L314 690Z"  />
<glyph unicode="~" horiz-adv-x="586" d="M578 691L572 657Q550 533 431 533Q368 533 327 593Q305 624 287 638T244 653Q218 653 202 644T176 616T156 547H105L111 581Q134 705 252 705Q315 705 356 645Q376 616 395 601T440 585Q478 585 497 606T527 691H578Z"  />
<glyph unicode="&#xA0;" horiz-adv-x="250" d=""  />
<glyph unicode="&#xA1;" horiz-adv-x="282" d="M93 -200H-3L116 304H152L93 -200ZM197 419H114L127 500H210L197 419Z"  />
<glyph unicode="&#xA2;" horiz-adv-x="603" d="M489 149Q419 96 328 88L311 -12H251L268 88Q182 96 129 153T76 297Q76 418 155 508T361 610L379 712H439L421 609Q508 599 558 545L515 500Q468 555 380 555Q277 555 207 482T137 301Q137 227 181 185T305 143Q398 143 460 195L489 149Z"  />
<glyph unicode="&#xA3;" horiz-adv-x="642" d="M222 297L225 263Q225 203 195 148T108 56Q140 63 190 63Q226 63 268 54T349 45Q407 45 438 66T481 145H544Q526 64 481 26T350 -13Q313 -13 258 2Q203 17 138 17Q94 17 12 0L22 59Q86 72 128 129T171 250Q171 272 164 297H52L60 345H149Q126 417 126 461Q126 571 197 642T379 713Q480 713 546 638L502 593Q476 623 448 639T371 656Q285 656 237 602T189 467Q189 435 212 345H404L396 297H222Z"  />
<glyph unicode="&#xA4;" horiz-adv-x="662" d="M131 315Q131 245 178 199T297 152Q390 152 461 223T533 385Q533 455 486 501T367 548Q274 548 203 477T131 315ZM556 508Q588 459 588 395Q588 279 499 190L563 112L524 76L458 155Q378 98 288 98Q199 98 139 154L48 76L14 112L108 192Q76 243 76 306Q76 420 166 510L102 588L142 624L207 545Q287 602 377 602Q465 602 525 546L617 624L650 588L556 508Z"  />
<glyph unicode="&#xA5;" horiz-adv-x="740" d="M360 98L343 0H277L294 98H94L102 146H302L319 239H119L127 287H310L129 700H204L362 317L656 700H737L409 287H593L585 239H385L368 146H568L560 98H360Z"  />
<glyph unicode="&#xA6;" horiz-adv-x="277" d="M189 792H246L174 385H117L189 792ZM93 247H150L78 -160H21L93 247Z"  />
<glyph unicode="&#xA7;" horiz-adv-x="569" d="M181 -172Q74 -172 16 -112L61 -64Q113 -114 192 -114Q276 -114 316 -77T357 13Q357 48 330 71T231 116Q136 147 97 180T57 264Q57 367 168 425Q117 463 117 521Q117 603 187 657T361 712Q468 712 526 652L481 604Q431 654 350 654Q266 654 226 617T185 527Q185 492 212 469T311 424Q405 393 445 360T486 276Q486 172 373 115Q425 78 425 19Q425 -63 355 -117T181 -172ZM424 260Q424 295 393 321T278 375Q240 386 207 402Q165 383 142 350T119 279Q119 245 150 219T265 165L334 138Q378 157 401 191T424 260Z"  />
<glyph unicode="&#xA8;" horiz-adv-x="419" d="M150 667H222L209 595H137L150 667ZM312 667H384L371 595H299L312 667Z"  />
<glyph unicode="&#xA9;" horiz-adv-x="860" d="M50 350Q50 452 101 540T240 679T430 730Q532 730 620 679T759 540T810 350Q810 248 759 160T620 21T430 -30Q328 -30 240 21T101 160T50 350ZM312 350Q312 288 349 253T439 217Q486 217 516 242L543 201Q498 169 439 169Q360 169 310 220T259 350Q259 427 309 479T439 531Q498 531 543 499L516 458Q486 483 439 483Q386 483 349 448T312 350ZM96 350Q96 261 141 184T263 61T430 16Q519 16 596 61T719 183T764 350Q764 439 719 516T597 639T430 684Q341 684 264 639T141 517T96 350Z"  />
<glyph unicode="&#xAA;" horiz-adv-x="458" d="M378 591Q378 665 279 665Q227 665 169 634L157 675Q224 712 287 712Q375 712 403 682T431 607L427 566L385 328H333L346 398Q317 360 283 340T194 319Q139 319 107 344T75 415Q75 478 120 517T240 557Q300 557 369 533Q378 579 378 591ZM208 365Q263 365 308 402T363 496Q307 519 237 519Q188 519 159 494T128 426Q128 400 149 383T208 365Z"  />
<glyph unicode="&#xAB;" horiz-adv-x="546" d="M139 50L54 252L210 450H273L113 248L199 50H139ZM361 50L276 252L432 450H495L335 248L421 50H361Z"  />
<glyph unicode="&#xAC;" horiz-adv-x="566" d="M457 67H399L434 261H46L56 319H502L457 67Z"  />
<glyph unicode="&#xAD;" horiz-adv-x="456" d="M63 301H379L368 239H52L63 301Z"  />
<glyph unicode="&#xAE;" horiz-adv-x="860" d="M50 350Q50 452 101 540T240 679T430 730Q532 730 620 679T759 540T810 350Q810 248 759 160T620 21T430 -30Q328 -30 240 21T101 160T50 350ZM451 306H353V175H303V525H448Q569 525 569 414Q569 337 500 313L575 175H519L451 306ZM353 481V350H449Q519 350 519 414Q519 445 501 463T449 481H353ZM96 350Q96 261 141 184T263 61T430 16Q519 16 596 61T719 183T764 350Q764 439 719 516T597 639T430 684Q341 684 264 639T141 517T96 350Z"  />
<glyph unicode="&#xAF;" horiz-adv-x="396" d="M94 650H410L401 600H85L94 650Z"  />
<glyph unicode="&#xB0;" horiz-adv-x="379" d="M80 562Q80 626 124 669T229 712Q291 712 335 668T379 562Q379 503 337 458T229 413Q167 413 124 456T80 562ZM129 562Q129 520 158 491T229 462Q269 462 299 491T330 562Q330 603 300 633T229 663Q187 663 158 632T129 562Z"  />
<glyph unicode="&#xB1;" horiz-adv-x="566" d="M69 392H263L297 586H355L321 392H515L504 334H310L276 140H218L252 334H58L69 392ZM456 58L446 0H0L10 58H456Z"  />
<glyph unicode="&#xB4;" horiz-adv-x="280" d="M191 712H268L162 570H120L191 712Z"  />
<glyph unicode="&#xB5;" horiz-adv-x="580" d="M468 500H528L470 171Q454 82 406 35T262 -12Q201 -12 154 19T88 107L34 -200H-26L98 500H158L109 223L107 196Q107 129 149 86T259 43Q331 43 364 74T410 175L468 500Z"  />
<glyph unicode="&#xB6;" horiz-adv-x="696" d="M563 642H477L328 -200H262L337 226H256Q158 226 102 275T46 409Q46 490 82 557T186 662T340 700H639L480 -200H414L563 642Z"  />
<glyph unicode="&#xB7;" horiz-adv-x="262" d="M81 322H165L150 238H66L81 322Z"  />
<glyph unicode="&#xB8;" horiz-adv-x="300" d="M114 -113Q114 -70 49 -67L84 0H124L103 -43Q146 -53 157 -73T168 -114Q168 -157 134 -186T34 -216Q-11 -216 -43 -199L-20 -157Q6 -171 33 -171Q114 -171 114 -113Z"  />
<glyph unicode="&#xBA;" horiz-adv-x="517" d="M324 712Q398 712 444 669T491 555Q491 494 460 438T374 351T255 319Q178 319 132 362T86 475Q86 537 118 593T205 680T324 712ZM140 480Q140 436 167 401T263 366Q340 366 388 419T437 547Q437 601 405 633T316 665Q241 665 191 612T140 480Z"  />
<glyph unicode="&#xBB;" horiz-adv-x="546" d="M372 450L457 248L301 50H238L398 252L312 450H372ZM150 450L235 248L79 50H16L176 252L90 450H150Z"  />
<glyph unicode="&#xBF;" horiz-adv-x="552" d="M315 294Q317 259 312 235Q307 205 294 184T264 146T226 118T184 94Q164 83 145 72T111 47T84 17T68 -22Q63 -50 67 -74T88 -116T134 -144T206 -155Q260 -155 309 -136T404 -82L431 -126Q383 -164 323 -188T196 -212Q135 -212 95 -197T31 -156T2 -96T2 -22Q7 6 19 27T48 66T88 98T136 127Q163 142 187 156T229 188T258 232T273 294H315ZM357 419H274L287 500H370L357 419Z"  />
<glyph unicode="&#xC0;" horiz-adv-x="683" d="M596 0H530L489 198H147L38 0H-34L358 700H450L596 0ZM180 256H478L398 650L180 256ZM456 770H419L345 912H418L456 770Z"  />
<glyph unicode="&#xC1;" horiz-adv-x="683" d="M596 0H530L489 198H147L38 0H-34L358 700H450L596 0ZM180 256H478L398 650L180 256ZM470 912H547L441 770H399L470 912Z"  />
<glyph unicode="&#xC2;" horiz-adv-x="683" d="M596 0H530L489 198H147L38 0H-34L358 700H450L596 0ZM180 256H478L398 650L180 256ZM404 912H482L544 770H501L437 867L343 770H292L404 912Z"  />
<glyph unicode="&#xC3;" horiz-adv-x="683" d="M596 0H530L489 198H147L38 0H-34L358 700H450L596 0ZM180 256H478L398 650L180 256ZM512 824Q567 824 579 899H620L616 872Q610 833 583 803T509 773Q474 773 456 786T423 816T394 847T352 861Q297 861 285 786H244L248 813Q254 852 281 882T356 912Q383 912 402 902T442 868Q463 842 477 833T512 824Z"  />
<glyph unicode="&#xC4;" horiz-adv-x="683" d="M596 0H530L489 198H147L38 0H-34L358 700H450L596 0ZM180 256H478L398 650L180 256ZM320 867H392L379 795H307L320 867ZM482 867H554L541 795H469L482 867Z"  />
<glyph unicode="&#xC5;" horiz-adv-x="683" d="M596 0H530L489 198H147L38 0H-34L358 700H450L596 0ZM180 256H478L398 650L180 256ZM447 942Q489 942 508 919T528 865Q528 819 497 786T416 753Q381 753 359 775T336 830Q336 874 369 908T447 942ZM380 836Q380 822 390 809T422 796Q447 796 465 815T484 858Q484 873 474 886T442 899Q417 899 399 881T380 836Z"  />
<glyph unicode="&#xC6;" horiz-adv-x="1001" d="M470 198H186L26 0H-50L520 700H1011L1001 642H615L568 379H902L892 321H558L512 58H905L895 0H436L470 198ZM481 256L550 647L234 256H481Z"  />
<glyph unicode="&#xC7;" horiz-adv-x="679" d="M350 -113Q350 -70 285 -67L314 -10Q190 1 118 79T45 279Q45 396 105 496T264 654T474 712Q605 712 682 645L641 591Q574 654 468 654Q378 654 297 607T164 474T112 282Q112 173 178 110T355 46Q471 46 554 105L580 53Q486 -10 354 -12L339 -43Q382 -53 393 -73T404 -114Q404 -157 370 -186T270 -216Q225 -216 193 -199L216 -157Q242 -171 269 -171Q350 -171 350 -113Z"  />
<glyph unicode="&#xC8;" horiz-adv-x="585" d="M143 700H595L585 642H199L152 379H486L476 321H142L96 58H489L479 0H20L143 700ZM447 770H410L336 912H409L447 770Z"  />
<glyph unicode="&#xC9;" horiz-adv-x="585" d="M143 700H595L585 642H199L152 379H486L476 321H142L96 58H489L479 0H20L143 700ZM446 912H523L417 770H375L446 912Z"  />
<glyph unicode="&#xCA;" horiz-adv-x="585" d="M143 700H595L585 642H199L152 379H486L476 321H142L96 58H489L479 0H20L143 700ZM378 912H456L518 770H475L411 867L317 770H266L378 912Z"  />
<glyph unicode="&#xCB;" horiz-adv-x="585" d="M143 700H595L585 642H199L152 379H486L476 321H142L96 58H489L479 0H20L143 700ZM276 867H348L335 795H263L276 867ZM438 867H510L497 795H425L438 867Z"  />
<glyph unicode="&#xCC;" horiz-adv-x="226" d="M144 700H210L87 0H21L144 700ZM229 770H192L118 912H191L229 770Z"  />
<glyph unicode="&#xCD;" horiz-adv-x="226" d="M144 700H210L87 0H21L144 700ZM240 912H317L211 770H169L240 912Z"  />
<glyph unicode="&#xCE;" horiz-adv-x="226" d="M144 700H210L87 0H21L144 700ZM175 912H253L315 770H272L208 867L114 770H63L175 912Z"  />
<glyph unicode="&#xCF;" horiz-adv-x="226" d="M144 700H210L87 0H21L144 700ZM88 867H160L147 795H75L88 867ZM250 867H322L309 795H237L250 867Z"  />
<glyph unicode="&#xD0;" horiz-adv-x="708" d="M76 321H6L16 379H86L143 700H398Q525 700 595 631T667 432Q667 320 618 216T478 56T274 0H20L76 321ZM281 58Q372 58 444 105T558 239T600 433Q600 517 554 579T385 642H199L152 379H301L291 321H142L96 58H281Z"  />
<glyph unicode="&#xD1;" horiz-adv-x="709" d="M194 635L184 566L85 0H19L142 700H231L515 65L526 137L625 700H691L568 0H479L194 635ZM514 824Q569 824 581 899H622L618 872Q612 833 585 803T511 773Q476 773 458 786T425 816T396 847T354 861Q299 861 287 786H246L250 813Q256 852 283 882T358 912Q385 912 404 902T444 868Q465 842 479 833T514 824Z"  />
<glyph unicode="&#xD2;" horiz-adv-x="804" d="M342 -12Q204 -12 120 67T35 278Q35 395 93 496T251 655T467 712Q603 712 688 632T773 422Q773 342 743 262T654 119T515 22T342 -12ZM346 46Q444 46 526 94T657 231T706 416Q706 525 638 589T460 654Q385 654 318 624T202 541T127 419T101 282Q101 176 168 111T346 46ZM539 770H502L428 912H501L539 770Z"  />
<glyph unicode="&#xD3;" horiz-adv-x="804" d="M342 -12Q204 -12 120 67T35 278Q35 395 93 496T251 655T467 712Q603 712 688 632T773 422Q773 342 743 262T654 119T515 22T342 -12ZM346 46Q444 46 526 94T657 231T706 416Q706 525 638 589T460 654Q385 654 318 624T202 541T127 419T101 282Q101 176 168 111T346 46ZM531 912H608L502 770H460L531 912Z"  />
<glyph unicode="&#xD4;" horiz-adv-x="804" d="M342 -12Q204 -12 120 67T35 278Q35 395 93 496T251 655T467 712Q603 712 688 632T773 422Q773 342 743 262T654 119T515 22T342 -12ZM346 46Q444 46 526 94T657 231T706 416Q706 525 638 589T460 654Q385 654 318 624T202 541T127 419T101 282Q101 176 168 111T346 46ZM474 912H552L614 770H571L507 867L413 770H362L474 912Z"  />
<glyph unicode="&#xD5;" horiz-adv-x="804" d="M342 -12Q204 -12 120 67T35 278Q35 395 93 496T251 655T467 712Q603 712 688 632T773 422Q773 342 743 262T654 119T515 22T342 -12ZM346 46Q444 46 526 94T657 231T706 416Q706 525 638 589T460 654Q385 654 318 624T202 541T127 419T101 282Q101 176 168 111T346 46ZM569 824Q624 824 636 899H677L673 872Q667 833 640 803T566 773Q531 773 513 786T480 816T451 847T409 861Q354 861 342 786H301L305 813Q311 852 338 882T413 912Q440 912 459 902T499 868Q520 842 534 833T569 824Z"  />
<glyph unicode="&#xD6;" horiz-adv-x="804" d="M342 -12Q204 -12 120 67T35 278Q35 395 93 496T251 655T467 712Q603 712 688 632T773 422Q773 342 743 262T654 119T515 22T342 -12ZM346 46Q444 46 526 94T657 231T706 416Q706 525 638 589T460 654Q385 654 318 624T202 541T127 419T101 282Q101 176 168 111T346 46ZM377 867H449L436 795H364L377 867ZM539 867H611L598 795H526L539 867Z"  />
<glyph unicode="&#xD7;" horiz-adv-x="566" d="M35 122L233 290L94 458L142 499L281 331L478 499L512 458L315 290L453 122L405 81L266 249L69 81L35 122Z"  />
<glyph unicode="&#xD8;" horiz-adv-x="824" d="M351 -12Q278 -12 220 10L187 -40H127L174 33Q100 77 72 145T44 276Q44 393 102 495T259 654T476 712Q546 712 604 690L637 740H697L649 667Q725 622 753 554T782 422Q782 342 752 261T662 118T522 22T351 -12ZM355 46Q454 46 536 95T667 232T716 418Q716 468 695 522T615 614L254 63Q300 46 355 46ZM110 281Q110 232 130 178T209 85L570 637Q524 654 469 654Q372 654 290 605T159 470T110 281Z"  />
<glyph unicode="&#xD9;" horiz-adv-x="702" d="M619 700H685L605 249Q586 124 505 56T290 -12Q179 -12 119 40T58 191Q58 219 63 249L143 700H209L129 249Q124 219 124 193Q124 46 295 46Q390 46 455 95T539 249L619 700ZM466 770H429L355 912H428L466 770Z"  />
<glyph unicode="&#xDA;" horiz-adv-x="692" d="M615 700H681L601 249Q582 124 501 56T286 -12Q175 -12 115 40T54 191Q54 219 59 249L139 700H205L125 249Q120 219 120 193Q120 46 291 46Q386 46 451 95T535 249L615 700ZM468 912H545L439 770H397L468 912Z"  />
<glyph unicode="&#xDB;" horiz-adv-x="702" d="M619 700H685L605 249Q586 124 505 56T290 -12Q179 -12 119 40T58 191Q58 219 63 249L143 700H209L129 249Q124 219 124 193Q124 46 295 46Q390 46 455 95T539 249L619 700ZM415 912H493L555 770H512L448 867L354 770H303L415 912Z"  />
<glyph unicode="&#xDC;" horiz-adv-x="702" d="M619 700H685L605 249Q586 124 505 56T290 -12Q179 -12 119 40T58 191Q58 219 63 249L143 700H209L129 249Q124 219 124 193Q124 46 295 46Q390 46 455 95T539 249L619 700ZM325 867H397L384 795H312L325 867ZM487 867H559L546 795H474L487 867Z"  />
<glyph unicode="&#xDD;" horiz-adv-x="648" d="M83 700H157L316 319L610 700H691L342 260L297 0H231L276 260L83 700ZM450 912H527L421 770H379L450 912Z"  />
<glyph unicode="&#xDE;" horiz-adv-x="620" d="M99 132L76 0H10L133 700H199L176 568H396Q592 568 592 403Q592 281 521 207T320 132H99ZM165 510L109 190H328Q426 190 476 248T527 396Q527 443 500 476T384 510H165Z"  />
<glyph unicode="&#xDF;" horiz-adv-x="573" d="M233 394H274Q347 394 395 443T443 567Q443 662 326 662Q261 662 219 623T165 513L75 0H15L105 516Q122 608 183 660T331 712Q413 712 458 677T504 573Q504 501 463 446T348 372Q424 358 457 317T490 221Q490 115 423 52T239 -12Q179 -12 143 3L168 55Q213 40 244 40Q401 40 426 187L429 219Q429 277 386 311T266 346H225L233 394Z"  />
<glyph unicode="&#xE0;" horiz-adv-x="563" d="M422 356Q422 397 397 426T285 456Q253 456 213 445T141 415L122 464Q161 487 210 499T293 512Q408 512 445 470T483 366Q483 343 478 315L423 0H363L381 107Q302 -12 171 -12Q91 -12 52 27T13 123Q13 209 72 258T233 308Q272 308 321 299T410 272Q422 339 422 356ZM187 43Q262 43 326 96T402 225V226Q376 238 328 248T227 259Q158 259 116 223T74 128Q74 89 103 66T187 43ZM387 570H350L276 712H349L387 570Z"  />
<glyph unicode="&#xE1;" horiz-adv-x="563" d="M422 356Q422 397 397 426T285 456Q253 456 213 445T141 415L122 464Q161 487 210 499T293 512Q408 512 445 470T483 366Q483 343 478 315L423 0H363L381 107Q302 -12 171 -12Q91 -12 52 27T13 123Q13 209 72 258T233 308Q272 308 321 299T410 272Q422 339 422 356ZM187 43Q262 43 326 96T402 225V226Q376 238 328 248T227 259Q158 259 116 223T74 128Q74 89 103 66T187 43ZM349 712H426L320 570H278L349 712Z"  />
<glyph unicode="&#xE2;" horiz-adv-x="563" d="M422 356Q422 397 397 426T285 456Q253 456 213 445T141 415L122 464Q161 487 210 499T293 512Q408 512 445 470T483 366Q483 343 478 315L423 0H363L381 107Q302 -12 171 -12Q91 -12 52 27T13 123Q13 209 72 258T233 308Q272 308 321 299T410 272Q422 339 422 356ZM187 43Q262 43 326 96T402 225V226Q376 238 328 248T227 259Q158 259 116 223T74 128Q74 89 103 66T187 43ZM298 712H376L438 570H395L331 667L237 570H186L298 712Z"  />
<glyph unicode="&#xE3;" horiz-adv-x="563" d="M422 356Q422 397 397 426T285 456Q253 456 213 445T141 415L122 464Q161 487 210 499T293 512Q408 512 445 470T483 366Q483 343 478 315L423 0H363L381 107Q302 -12 171 -12Q91 -12 52 27T13 123Q13 209 72 258T233 308Q272 308 321 299T410 272Q422 339 422 356ZM187 43Q262 43 326 96T402 225V226Q376 238 328 248T227 259Q158 259 116 223T74 128Q74 89 103 66T187 43ZM415 624Q470 624 482 699H523L519 672Q513 633 486 603T412 573Q377 573 359 586T326 616T297 647T255 661Q200 661 188 586H147L151 613Q157 652 184 682T259 712Q286 712 305 702T345 668Q366 642 380 633T415 624Z"  />
<glyph unicode="&#xE4;" horiz-adv-x="563" d="M422 356Q422 397 397 426T285 456Q253 456 213 445T141 415L122 464Q161 487 210 499T293 512Q408 512 445 470T483 366Q483 343 478 315L423 0H363L381 107Q302 -12 171 -12Q91 -12 52 27T13 123Q13 209 72 258T233 308Q272 308 321 299T410 272Q422 339 422 356ZM187 43Q262 43 326 96T402 225V226Q376 238 328 248T227 259Q158 259 116 223T74 128Q74 89 103 66T187 43ZM216 667H288L275 595H203L216 667ZM378 667H450L437 595H365L378 667Z"  />
<glyph unicode="&#xE5;" horiz-adv-x="563" d="M422 356Q422 397 397 426T285 456Q253 456 213 445T141 415L122 464Q161 487 210 499T293 512Q408 512 445 470T483 366Q483 343 478 315L423 0H363L381 107Q302 -12 171 -12Q91 -12 52 27T13 123Q13 209 72 258T233 308Q272 308 321 299T410 272Q422 339 422 356ZM187 43Q262 43 326 96T402 225V226Q376 238 328 248T227 259Q158 259 116 223T74 128Q74 89 103 66T187 43ZM351 742Q393 742 412 719T432 665Q432 619 401 586T320 553Q285 553 263 575T240 630Q240 674 273 708T351 742ZM284 636Q284 622 294 609T326 596Q351 596 369 615T388 658Q388 673 378 686T346 699Q321 699 303 681T284 636Z"  />
<glyph unicode="&#xE6;" horiz-adv-x="950" d="M824 53Q729 -12 611 -12Q447 -12 406 115Q321 -12 163 -12Q79 -12 41 24T3 113Q3 198 65 253T223 308Q262 308 311 299T400 272Q412 338 412 354Q412 396 385 426T273 456Q241 456 201 445T129 415L114 464Q152 487 198 499T283 512Q371 512 416 486T471 404Q512 453 569 482T694 512Q791 512 845 461T900 314Q900 287 896 258T888 223H452L450 192Q450 124 495 84T621 44Q674 44 712 56T799 101L824 53ZM392 226Q366 238 318 248T217 259Q148 259 106 224T64 129Q64 90 93 68T178 46Q353 46 392 226ZM686 454Q606 454 545 405T463 279H839L840 305Q840 375 800 414T686 454Z"  />
<glyph unicode="&#xE7;" horiz-adv-x="553" d="M253 -113Q253 -70 188 -67L218 -10Q130 1 80 57T29 199Q29 284 71 356T185 470T341 512Q451 512 511 446L468 401Q421 456 333 456Q230 456 160 383T90 202Q90 128 134 86T258 44Q351 44 413 96L442 50Q362 -11 257 -12L242 -43Q285 -53 296 -73T307 -114Q307 -157 273 -186T173 -216Q128 -216 96 -199L119 -157Q145 -171 172 -171Q253 -171 253 -113Z"  />
<glyph unicode="&#xE8;" horiz-adv-x="579" d="M317 454Q235 454 175 406T92 279H466L467 307Q467 378 428 416T317 454ZM453 53Q358 -12 240 -12Q138 -12 79 44T19 198Q19 328 108 420T322 512Q421 512 475 460T529 312Q529 286 525 258T517 223H81L79 192Q79 124 124 84T250 44Q303 44 341 56T428 101L453 53ZM408 570H371L297 712H370L408 570Z"  />
<glyph unicode="&#xE9;" horiz-adv-x="579" d="M317 454Q235 454 175 406T92 279H466L467 307Q467 378 428 416T317 454ZM453 53Q358 -12 240 -12Q138 -12 79 44T19 198Q19 328 108 420T322 512Q421 512 475 460T529 312Q529 286 525 258T517 223H81L79 192Q79 124 124 84T250 44Q303 44 341 56T428 101L453 53ZM393 712H470L364 570H322L393 712Z"  />
<glyph unicode="&#xEA;" horiz-adv-x="579" d="M317 454Q235 454 175 406T92 279H466L467 307Q467 378 428 416T317 454ZM453 53Q358 -12 240 -12Q138 -12 79 44T19 198Q19 328 108 420T322 512Q421 512 475 460T529 312Q529 286 525 258T517 223H81L79 192Q79 124 124 84T250 44Q303 44 341 56T428 101L453 53ZM319 712H397L459 570H416L352 667L258 570H207L319 712Z"  />
<glyph unicode="&#xEB;" horiz-adv-x="579" d="M317 454Q235 454 175 406T92 279H466L467 307Q467 378 428 416T317 454ZM453 53Q358 -12 240 -12Q138 -12 79 44T19 198Q19 328 108 420T322 512Q421 512 475 460T529 312Q529 286 525 258T517 223H81L79 192Q79 124 124 84T250 44Q303 44 341 56T428 101L453 53ZM236 667H308L295 595H223L236 667ZM398 667H470L457 595H385L398 667Z"  />
<glyph unicode="&#xEC;" horiz-adv-x="230" d="M113 500H173L85 0H25L113 500ZM206 570H169L95 712H168L206 570Z"  />
<glyph unicode="&#xED;" horiz-adv-x="230" d="M113 500H173L85 0H25L113 500ZM206 712H283L177 570H135L206 712Z"  />
<glyph unicode="&#xEE;" horiz-adv-x="230" d="M113 500H173L85 0H25L113 500ZM142 712H220L282 570H239L175 667L81 570H30L142 712Z"  />
<glyph unicode="&#xEF;" horiz-adv-x="230" d="M113 500H173L85 0H25L113 500ZM57 667H129L116 595H44L57 667ZM219 667H291L278 595H206L219 667Z"  />
<glyph unicode="&#xF0;" horiz-adv-x="598" d="M260 703Q296 712 346 712Q450 712 508 647L586 704L611 666L534 610Q569 545 569 452Q569 340 529 225T414 49T230 -12Q132 -12 75 39T17 179Q17 296 100 379T302 463Q380 463 429 428T495 340Q506 398 506 445Q506 520 480 570L403 514L377 552L453 607Q409 654 337 654Q300 654 266 646L260 703ZM242 46Q305 46 353 74T430 156T460 266Q460 330 418 369T304 408Q240 408 190 379T112 298T85 191Q85 125 127 86T242 46Z"  />
<glyph unicode="&#xF1;" horiz-adv-x="590" d="M456 366Q456 404 435 430T342 457Q265 457 203 402T127 271L80 0H20L108 500H168L150 397Q188 454 246 483T363 512Q458 512 488 472T518 379Q518 356 513 329L455 0H395L452 325L456 366ZM442 624Q497 624 509 699H550L546 672Q540 633 513 603T439 573Q404 573 386 586T353 616T324 647T282 661Q227 661 215 586H174L178 613Q184 652 211 682T286 712Q313 712 332 702T372 668Q393 642 407 633T442 624Z"  />
<glyph unicode="&#xF2;" horiz-adv-x="606" d="M331 512Q433 512 494 454T555 302Q555 220 515 146T402 30T242 -12Q139 -12 79 46T19 197Q19 283 61 357T175 471T331 512ZM79 198Q79 139 116 92T248 44Q354 44 423 117T494 294Q494 371 448 413T325 456Q221 456 150 382T79 198ZM398 570H361L287 712H360L398 570Z"  />
<glyph unicode="&#xF3;" horiz-adv-x="606" d="M331 512Q433 512 494 454T555 302Q555 220 515 146T402 30T242 -12Q139 -12 79 46T19 197Q19 283 61 357T175 471T331 512ZM79 198Q79 139 116 92T248 44Q354 44 423 117T494 294Q494 371 448 413T325 456Q221 456 150 382T79 198ZM397 712H474L368 570H326L397 712Z"  />
<glyph unicode="&#xF4;" horiz-adv-x="606" d="M331 512Q433 512 494 454T555 302Q555 220 515 146T402 30T242 -12Q139 -12 79 46T19 197Q19 283 61 357T175 471T331 512ZM79 198Q79 139 116 92T248 44Q354 44 423 117T494 294Q494 371 448 413T325 456Q221 456 150 382T79 198ZM337 712H415L477 570H434L370 667L276 570H225L337 712Z"  />
<glyph unicode="&#xF5;" horiz-adv-x="606" d="M331 512Q433 512 494 454T555 302Q555 220 515 146T402 30T242 -12Q139 -12 79 46T19 197Q19 283 61 357T175 471T331 512ZM79 198Q79 139 116 92T248 44Q354 44 423 117T494 294Q494 371 448 413T325 456Q221 456 150 382T79 198ZM454 624Q509 624 521 699H562L558 672Q552 633 525 603T451 573Q416 573 398 586T365 616T336 647T294 661Q239 661 227 586H186L190 613Q196 652 223 682T298 712Q325 712 344 702T384 668Q405 642 419 633T454 624Z"  />
<glyph unicode="&#xF6;" horiz-adv-x="606" d="M331 512Q433 512 494 454T555 302Q555 220 515 146T402 30T242 -12Q139 -12 79 46T19 197Q19 283 61 357T175 471T331 512ZM79 198Q79 139 116 92T248 44Q354 44 423 117T494 294Q494 371 448 413T325 456Q221 456 150 382T79 198ZM246 667H318L305 595H233L246 667ZM408 667H480L467 595H395L408 667Z"  />
<glyph unicode="&#xF7;" horiz-adv-x="566" d="M46 261L56 319H502L492 261H46ZM210 165H293L280 84H197L210 165ZM268 497H351L338 416H255L268 497Z"  />
<glyph unicode="&#xF8;" horiz-adv-x="606" d="M331 512Q407 512 461 478L514 540H573L497 451Q555 393 555 301Q555 220 515 146T402 30T242 -12Q176 -12 124 13L79 -40H20L86 38Q18 94 18 194Q18 282 60 356T174 471T331 512ZM79 199Q79 125 125 84L422 432Q378 456 325 456Q221 456 150 382T79 199ZM494 296Q494 361 457 404L164 59Q198 44 248 44Q355 44 424 117T494 296Z"  />
<glyph unicode="&#xF9;" horiz-adv-x="590" d="M106 129Q106 94 122 69T210 43Q286 43 352 99T429 225L478 500H538L450 0H390L408 107Q370 50 313 19T195 -12Q100 -12 72 26T44 114Q44 138 49 166L108 500H168L110 175L106 129ZM398 570H361L287 712H360L398 570Z"  />
<glyph unicode="&#xFA;" horiz-adv-x="590" d="M106 129Q106 94 122 69T210 43Q286 43 352 99T429 225L478 500H538L450 0H390L408 107Q370 50 313 19T195 -12Q100 -12 72 26T44 114Q44 138 49 166L108 500H168L110 175L106 129ZM373 712H450L344 570H302L373 712Z"  />
<glyph unicode="&#xFB;" horiz-adv-x="590" d="M106 129Q106 94 122 69T210 43Q286 43 352 99T429 225L478 500H538L450 0H390L408 107Q370 50 313 19T195 -12Q100 -12 72 26T44 114Q44 138 49 166L108 500H168L110 175L106 129ZM327 712H405L467 570H424L360 667L266 570H215L327 712Z"  />
<glyph unicode="&#xFC;" horiz-adv-x="590" d="M106 129Q106 94 122 69T210 43Q286 43 352 99T429 225L478 500H538L450 0H390L408 107Q370 50 313 19T195 -12Q100 -12 72 26T44 114Q44 138 49 166L108 500H168L110 175L106 129ZM233 667H305L292 595H220L233 667ZM395 667H467L454 595H382L395 667Z"  />
<glyph unicode="&#xFD;" horiz-adv-x="544" d="M49 500H116L222 65L483 500H553L195 -83Q143 -165 110 -187T23 -210Q-1 -210 -25 -203T-58 -188L-24 -134Q-15 -142 1 -148T32 -155Q67 -155 89 -137T140 -70L180 -2L49 500ZM365 712H442L336 570H294L365 712Z"  />
<glyph unicode="&#xFE;" horiz-adv-x="642" d="M116 206Q116 132 162 89T287 46Q355 46 410 77T497 165T529 291Q529 367 483 410T359 454Q257 454 187 382T116 206ZM280 -12Q215 -12 166 17T93 100L40 -200H-20L145 736H205L146 400Q189 454 248 483T373 512Q471 512 531 455T591 304Q591 223 550 148T437 31T280 -12Z"  />
<glyph unicode="&#xFF;" horiz-adv-x="544" d="M49 500H116L222 65L483 500H553L195 -83Q143 -165 110 -187T23 -210Q-1 -210 -25 -203T-58 -188L-24 -134Q-15 -142 1 -148T32 -155Q67 -155 89 -137T140 -70L180 -2L49 500ZM218 667H290L277 595H205L218 667ZM380 667H452L439 595H367L380 667Z"  />
<glyph unicode="&#x100;" horiz-adv-x="650" d="M581 0H515L474 198H132L23 0H-49L343 700H435L581 0ZM165 256H463L383 650L165 256ZM262 850H578L569 800H253L262 850Z"  />
<glyph unicode="&#x101;" horiz-adv-x="563" d="M422 356Q422 397 397 426T285 456Q253 456 213 445T141 415L122 464Q161 487 210 499T293 512Q408 512 445 470T483 366Q483 343 478 315L423 0H363L381 107Q302 -12 171 -12Q91 -12 52 27T13 123Q13 209 72 258T233 308Q272 308 321 299T410 272Q422 339 422 356ZM187 43Q262 43 326 96T402 225V226Q376 238 328 248T227 259Q158 259 116 223T74 128Q74 89 103 66T187 43ZM181 650H497L488 600H172L181 650Z"  />
<glyph unicode="&#x102;" horiz-adv-x="650" d="M581 0H515L474 198H132L23 0H-49L343 700H435L581 0ZM165 256H463L383 650L165 256ZM569 900Q560 837 517 800T408 762Q359 762 328 793T297 874L299 900H346L344 881Q344 814 416 814Q502 814 521 900H569Z"  />
<glyph unicode="&#x103;" horiz-adv-x="563" d="M422 356Q422 397 397 426T285 456Q253 456 213 445T141 415L122 464Q161 487 210 499T293 512Q408 512 445 470T483 366Q483 343 478 315L423 0H363L381 107Q302 -12 171 -12Q91 -12 52 27T13 123Q13 209 72 258T233 308Q272 308 321 299T410 272Q422 339 422 356ZM187 43Q262 43 326 96T402 225V226Q376 238 328 248T227 259Q158 259 116 223T74 128Q74 89 103 66T187 43ZM483 700Q474 637 431 600T322 562Q273 562 242 593T211 674L213 700H260L258 681Q258 614 330 614Q416 614 435 700H483Z"  />
<glyph unicode="&#x104;" horiz-adv-x="670" d="M493 -193Q464 -193 451 -178T437 -142Q437 -77 525 -6L483 198H141L32 0H-40L352 700H444L590 0Q503 -68 503 -111Q503 -133 528 -133Q552 -133 568 -123L558 -181Q528 -193 493 -193ZM174 256H472L392 650L174 256Z"  />
<glyph unicode="&#x105;" horiz-adv-x="563" d="M326 -193Q297 -193 284 -178T270 -142Q270 -78 362 -3L381 107Q302 -12 171 -12Q91 -12 52 27T13 123Q13 209 72 258T233 308Q272 308 321 299T410 272Q422 339 422 356Q422 397 397 426T285 456Q253 456 213 445T141 415L122 464Q161 487 210 499T293 512Q408 512 445 470T483 366Q483 343 478 315L423 0Q336 -68 336 -111Q336 -133 361 -133Q385 -133 401 -123L391 -181Q361 -193 326 -193ZM187 43Q262 43 326 96T402 225V226Q376 238 328 248T227 259Q158 259 116 223T74 128Q74 89 103 66T187 43Z"  />
<glyph unicode="&#x106;" horiz-adv-x="679" d="M580 53Q483 -12 351 -12Q213 -12 130 68T46 281Q46 397 106 497T265 654T474 712Q605 712 682 645L641 591Q574 654 468 654Q378 654 297 607T164 474T112 282Q112 173 178 110T355 46Q471 46 554 105L580 53ZM546 912H623L517 770H475L546 912Z"  />
<glyph unicode="&#x107;" horiz-adv-x="522" d="M431 50Q349 -12 241 -12Q139 -12 79 47T18 199Q18 284 60 357T174 471T330 512Q440 512 500 446L457 401Q410 456 322 456Q219 456 149 383T79 202Q79 128 123 86T247 44Q340 44 402 96L431 50ZM403 712H480L374 570H332L403 712Z"  />
<glyph unicode="&#x108;" horiz-adv-x="679" d="M580 53Q483 -12 351 -12Q213 -12 130 68T46 281Q46 397 106 497T265 654T474 712Q605 712 682 645L641 591Q574 654 468 654Q378 654 297 607T164 474T112 282Q112 173 178 110T355 46Q471 46 554 105L580 53ZM484 912H562L624 770H581L517 867L423 770H372L484 912Z"  />
<glyph unicode="&#x109;" horiz-adv-x="522" d="M431 50Q349 -12 241 -12Q139 -12 79 47T18 199Q18 284 60 357T174 471T330 512Q440 512 500 446L457 401Q410 456 322 456Q219 456 149 383T79 202Q79 128 123 86T247 44Q340 44 402 96L431 50ZM337 712H415L477 570H434L370 667L276 570H225L337 712Z"  />
<glyph unicode="&#x10A;" horiz-adv-x="679" d="M580 53Q483 -12 351 -12Q213 -12 130 68T46 281Q46 397 106 497T265 654T474 712Q605 712 682 645L641 591Q574 654 468 654Q378 654 297 607T164 474T112 282Q112 173 178 110T355 46Q471 46 554 105L580 53ZM472 865H540L529 797H461L472 865Z"  />
<glyph unicode="&#x10B;" horiz-adv-x="522" d="M431 50Q349 -12 241 -12Q139 -12 79 47T18 199Q18 284 60 357T174 471T330 512Q440 512 500 446L457 401Q410 456 322 456Q219 456 149 383T79 202Q79 128 123 86T247 44Q340 44 402 96L431 50ZM334 665H402L391 597H323L334 665Z"  />
<glyph unicode="&#x10C;" horiz-adv-x="679" d="M580 53Q483 -12 351 -12Q213 -12 130 68T46 281Q46 397 106 497T265 654T474 712Q605 712 682 645L641 591Q574 654 468 654Q378 654 297 607T164 474T112 282Q112 173 178 110T355 46Q471 46 554 105L580 53ZM531 770H453L391 912H434L496 815L592 912H643L531 770Z"  />
<glyph unicode="&#x10D;" horiz-adv-x="522" d="M431 50Q349 -12 241 -12Q139 -12 79 47T18 199Q18 284 60 357T174 471T330 512Q440 512 500 446L457 401Q410 456 322 456Q219 456 149 383T79 202Q79 128 123 86T247 44Q340 44 402 96L431 50ZM391 570H313L251 712H294L356 615L452 712H503L391 570Z"  />
<glyph unicode="&#x10E;" horiz-adv-x="688" d="M143 700H398Q525 700 595 631T667 432Q667 320 618 216T478 56T274 0H20L143 700ZM281 58Q372 58 444 105T558 239T600 433Q600 517 554 579T385 642H199L96 58H281ZM412 770H334L272 912H315L377 815L473 912H524L412 770Z"  />
<glyph unicode="&#x10F;" horiz-adv-x="642" d="M701 700H761L695 538H660L701 700ZM496 250Q503 292 496 329T467 395T411 439T329 456Q282 456 242 441T171 398T119 332T91 250Q83 203 89 165T117 100T172 59T254 44Q301 44 341 59T414 102T467 168T496 250ZM242 -12Q184 -12 140 8T68 63T30 147T30 254Q40 312 67 359T135 441T227 493T335 512Q400 512 448 483T522 400L581 736H641L512 0H452L469 100Q424 43 366 16T242 -12Z"  />
<glyph unicode="&#x110;" horiz-adv-x="708" d="M76 321H6L16 379H86L143 700H398Q525 700 595 631T667 432Q667 320 618 216T478 56T274 0H20L76 321ZM281 58Q372 58 444 105T558 239T600 433Q600 517 554 579T385 642H199L152 379H301L291 321H142L96 58H281Z"  />
<glyph unicode="&#x111;" horiz-adv-x="656" d="M410 650H570L585 736H645L630 650H686L677 600H621L516 0H456L473 100Q385 -12 246 -12Q147 -12 88 45T28 197Q28 283 70 356T183 471T339 512Q404 512 452 483T526 400L561 600H401L410 650ZM503 290Q503 365 457 410T333 456Q229 456 160 383T91 201Q91 126 135 85T258 44Q326 44 383 77T471 169T503 290Z"  />
<glyph unicode="&#x112;" horiz-adv-x="585" d="M143 700H595L585 642H199L152 379H486L476 321H142L96 58H489L479 0H20L143 700ZM238 850H554L545 800H229L238 850Z"  />
<glyph unicode="&#x113;" horiz-adv-x="578" d="M317 454Q235 454 175 406T92 279H466L467 307Q467 378 428 416T317 454ZM453 53Q358 -12 240 -12Q138 -12 79 44T19 198Q19 328 108 420T322 512Q421 512 475 460T529 312Q529 286 525 258T517 223H81L79 192Q79 124 124 84T250 44Q303 44 341 56T428 101L453 53ZM195 650H511L502 600H186L195 650Z"  />
<glyph unicode="&#x114;" horiz-adv-x="585" d="M143 700H595L585 642H199L152 379H486L476 321H142L96 58H489L479 0H20L143 700ZM543 900Q534 837 491 800T382 762Q333 762 302 793T271 874L273 900H320L318 881Q318 814 390 814Q476 814 495 900H543Z"  />
<glyph unicode="&#x115;" horiz-adv-x="578" d="M317 454Q235 454 175 406T92 279H466L467 307Q467 378 428 416T317 454ZM453 53Q358 -12 240 -12Q138 -12 79 44T19 198Q19 328 108 420T322 512Q421 512 475 460T529 312Q529 286 525 258T517 223H81L79 192Q79 124 124 84T250 44Q303 44 341 56T428 101L453 53ZM497 700Q488 637 445 600T336 562Q287 562 256 593T225 674L227 700H274L272 681Q272 614 344 614Q430 614 449 700H497Z"  />
<glyph unicode="&#x116;" horiz-adv-x="585" d="M143 700H595L585 642H199L152 379H486L476 321H142L96 58H489L479 0H20L143 700ZM374 865H442L431 797H363L374 865Z"  />
<glyph unicode="&#x117;" horiz-adv-x="578" d="M317 454Q235 454 175 406T92 279H466L467 307Q467 378 428 416T317 454ZM453 53Q358 -12 240 -12Q138 -12 79 44T19 198Q19 328 108 420T322 512Q421 512 475 460T529 312Q529 286 525 258T517 223H81L79 192Q79 124 124 84T250 44Q303 44 341 56T428 101L453 53ZM321 665H389L378 597H310L321 665Z"  />
<glyph unicode="&#x118;" horiz-adv-x="599" d="M143 700H595L585 642H199L152 379H486L476 321H142L96 58H489L479 0Q392 -68 392 -111Q392 -133 417 -133Q441 -133 457 -123L447 -181Q417 -193 382 -193Q353 -193 340 -178T326 -142Q326 -74 423 0H20L143 700Z"  />
<glyph unicode="&#x119;" horiz-adv-x="598" d="M365 -140Q336 -140 323 -125T309 -89Q309 -46 349 0Q302 -12 249 -12Q147 -12 88 44T28 198Q28 328 117 420T331 512Q430 512 484 460T538 312Q538 278 526 223H90L88 192Q88 124 133 84T259 44Q312 44 350 56T437 101L462 53Q375 -15 375 -58Q375 -80 400 -80Q424 -80 440 -70L430 -128Q400 -140 365 -140ZM326 454Q244 454 184 406T101 279H475L476 307Q476 378 437 416T326 454Z"  />
<glyph unicode="&#x11A;" horiz-adv-x="585" d="M143 700H595L585 642H199L152 379H486L476 321H142L96 58H489L479 0H20L143 700ZM426 770H348L286 912H329L391 815L487 912H538L426 770Z"  />
<glyph unicode="&#x11B;" horiz-adv-x="578" d="M317 454Q235 454 175 406T92 279H466L467 307Q467 378 428 416T317 454ZM453 53Q358 -12 240 -12Q138 -12 79 44T19 198Q19 328 108 420T322 512Q421 512 475 460T529 312Q529 286 525 258T517 223H81L79 192Q79 124 124 84T250 44Q303 44 341 56T428 101L453 53ZM377 570H299L237 712H280L342 615L438 712H489L377 570Z"  />
<glyph unicode="&#x11C;" horiz-adv-x="726" d="M346 46Q468 46 560 109L597 321H388L398 379H673L621 83Q511 -12 342 -12Q204 -12 121 68T37 281Q37 397 97 497T256 654T465 712Q596 712 673 645L633 593Q566 654 459 654Q369 654 288 607T155 474T103 282Q103 173 169 110T346 46ZM465 912H543L605 770H562L498 867L404 770H353L465 912Z"  />
<glyph unicode="&#x11D;" horiz-adv-x="642" d="M330 512Q465 512 518 399L536 500H596L510 15Q471 -212 215 -212Q100 -212 18 -161L54 -107Q81 -127 126 -141T222 -156Q322 -156 378 -114T450 16L467 113Q381 0 240 0Q147 0 87 58T27 205Q27 289 69 360T181 471T330 512ZM496 292Q496 364 451 410T331 456Q229 456 159 385T89 215Q89 143 134 100T258 56Q352 56 424 127T496 292ZM347 712H425L487 570H444L380 667L286 570H235L347 712Z"  />
<glyph unicode="&#x11E;" horiz-adv-x="726" d="M346 46Q468 46 560 109L597 321H388L398 379H673L621 83Q511 -12 342 -12Q204 -12 121 68T37 281Q37 397 97 497T256 654T465 712Q596 712 673 645L633 593Q566 654 459 654Q369 654 288 607T155 474T103 282Q103 173 169 110T346 46ZM628 900Q619 837 576 800T467 762Q418 762 387 793T356 874L358 900H405L403 881Q403 814 475 814Q561 814 580 900H628Z"  />
<glyph unicode="&#x11F;" horiz-adv-x="642" d="M330 512Q465 512 518 399L536 500H596L510 15Q471 -212 215 -212Q100 -212 18 -161L54 -107Q81 -127 126 -141T222 -156Q322 -156 378 -114T450 16L467 113Q381 0 240 0Q147 0 87 58T27 205Q27 289 69 360T181 471T330 512ZM496 292Q496 364 451 410T331 456Q229 456 159 385T89 215Q89 143 134 100T258 56Q352 56 424 127T496 292ZM519 700Q510 637 467 600T358 562Q309 562 278 593T247 674L249 700H296L294 681Q294 614 366 614Q452 614 471 700H519Z"  />
<glyph unicode="&#x120;" horiz-adv-x="726" d="M346 46Q468 46 560 109L597 321H388L398 379H673L621 83Q511 -12 342 -12Q204 -12 121 68T37 281Q37 397 97 497T256 654T465 712Q596 712 673 645L633 593Q566 654 459 654Q369 654 288 607T155 474T103 282Q103 173 169 110T346 46ZM461 865H529L518 797H450L461 865Z"  />
<glyph unicode="&#x121;" horiz-adv-x="642" d="M330 512Q465 512 518 399L536 500H596L510 15Q471 -212 215 -212Q100 -212 18 -161L54 -107Q81 -127 126 -141T222 -156Q322 -156 378 -114T450 16L467 113Q381 0 240 0Q147 0 87 58T27 205Q27 289 69 360T181 471T330 512ZM496 292Q496 364 451 410T331 456Q229 456 159 385T89 215Q89 143 134 100T258 56Q352 56 424 127T496 292ZM343 665H411L400 597H332L343 665Z"  />
<glyph unicode="&#x122;" horiz-adv-x="726" d="M346 46Q468 46 560 109L597 321H388L398 379H673L621 83Q511 -12 342 -12Q204 -12 121 68T37 281Q37 397 97 497T256 654T465 712Q596 712 673 645L633 593Q566 654 459 654Q369 654 288 607T155 474T103 282Q103 173 169 110T346 46ZM292 -50H364L273 -212H236L292 -50Z"  />
<glyph unicode="&#x123;" horiz-adv-x="642" d="M330 512Q465 512 518 399L536 500H596L510 15Q471 -212 215 -212Q100 -212 18 -161L54 -107Q81 -127 126 -141T222 -156Q322 -156 378 -114T450 16L467 113Q381 0 240 0Q147 0 87 58T27 205Q27 289 69 360T181 471T330 512ZM496 292Q496 364 451 410T331 456Q229 456 159 385T89 215Q89 143 134 100T258 56Q352 56 424 127T496 292ZM389 559H317L408 721H445L389 559Z"  />
<glyph unicode="&#x124;" horiz-adv-x="700" d="M556 321H138L82 0H16L139 700H205L148 379H566L623 700H689L566 0H500L556 321ZM413 912H491L553 770H510L446 867L352 770H301L413 912Z"  />
<glyph unicode="&#x125;" horiz-adv-x="590" d="M456 366Q456 404 435 430T342 457Q265 457 203 402T127 271L80 0H20L149 736H209L150 397Q188 454 246 483T363 512Q458 512 488 472T518 379Q518 356 513 329L455 0H395L452 325L456 366ZM172 912H250L312 770H269L205 867L111 770H60L172 912Z"  />
<glyph unicode="&#x126;" horiz-adv-x="710" d="M63 556H118L143 700H209L184 556H602L627 700H693L668 556H723L713 500H658L570 0H504L560 321H142L86 0H20L108 500H53L63 556ZM570 379L592 500H174L152 379H570Z"  />
<glyph unicode="&#x127;" horiz-adv-x="590" d="M456 366Q456 404 435 430T342 457Q265 457 203 402T127 271L80 0H20L149 736H209L191 634H498L489 584H182L150 397Q188 454 246 483T363 512Q458 512 488 473T518 380Q518 357 513 329L455 0H395L452 325L456 366Z"  />
<glyph unicode="&#x128;" horiz-adv-x="226" d="M144 700H210L87 0H21L144 700ZM280 824Q335 824 347 899H388L384 872Q378 833 351 803T277 773Q242 773 224 786T191 816T162 847T120 861Q65 861 53 786H12L16 813Q22 852 49 882T124 912Q151 912 170 902T210 868Q231 842 245 833T280 824Z"  />
<glyph unicode="&#x129;" horiz-adv-x="230" d="M113 500H173L85 0H25L113 500ZM249 624Q304 624 316 699H357L353 672Q347 633 320 603T246 573Q211 573 193 586T160 616T131 647T89 661Q34 661 22 586H-19L-15 613Q-9 652 18 682T93 712Q120 712 139 702T179 668Q200 642 214 633T249 624Z"  />
<glyph unicode="&#x12A;" horiz-adv-x="226" d="M144 700H210L87 0H21L144 700ZM44 850H360L351 800H35L44 850Z"  />
<glyph unicode="&#x12B;" horiz-adv-x="230" d="M113 500H173L85 0H25L113 500ZM12 650H328L319 600H3L12 650Z"  />
<glyph unicode="&#x12C;" horiz-adv-x="226" d="M144 700H210L87 0H21L144 700ZM340 900Q331 837 288 800T179 762Q130 762 99 793T68 874L70 900H117L115 881Q115 814 187 814Q273 814 292 900H340Z"  />
<glyph unicode="&#x12D;" horiz-adv-x="230" d="M113 500H173L85 0H25L113 500ZM314 700Q305 637 262 600T153 562Q104 562 73 593T42 674L44 700H91L89 681Q89 614 161 614Q247 614 266 700H314Z"  />
<glyph unicode="&#x12E;" horiz-adv-x="226" d="M143 700H209L86 0Q2 -66 2 -110Q2 -130 28 -130Q47 -130 64 -121L52 -188Q20 -200 -19 -200Q-72 -200 -72 -154Q-72 -120 -48 -81T18 -7L143 700Z"  />
<glyph unicode="&#x12F;" horiz-adv-x="238" d="M117 500H177L89 0Q1 -67 1 -112Q1 -133 27 -133Q51 -133 67 -123L57 -181Q27 -193 -8 -193Q-34 -193 -49 -180T-64 -141Q-64 -72 29 0L117 500ZM142 665H210L198 597H130L142 665Z"  />
<glyph unicode="&#x130;" horiz-adv-x="226" d="M144 700H210L87 0H21L144 700ZM170 865H238L227 797H159L170 865Z"  />
<glyph unicode="&#x131;" horiz-adv-x="230" d="M113 500H173L85 0H25L113 500Z"  />
<glyph unicode="&#x132;" horiz-adv-x="669" d="M144 700H210L87 0H21L144 700ZM251 92Q269 72 299 59T356 46Q420 46 453 78T500 186L591 700H657L566 187Q547 78 498 33T353 -12Q269 -12 214 38L251 92Z"  />
<glyph unicode="&#x133;" horiz-adv-x="484" d="M117 500H177L89 0H29L117 500ZM142 665H210L198 597H130L142 665ZM120 -147Q144 -162 174 -162Q247 -162 261 -83L364 500H424L321 -80Q297 -212 168 -212Q123 -212 89 -194L120 -147ZM389 665H457L445 597H377L389 665Z"  />
<glyph unicode="&#x134;" horiz-adv-x="443" d="M26 92Q44 72 74 59T131 46Q195 46 228 78T275 186L366 700H432L341 187Q322 78 273 33T128 -12Q44 -12 -11 38L26 92ZM390 912H468L530 770H487L423 867L329 770H278L390 912Z"  />
<glyph unicode="&#x135;" horiz-adv-x="244" d="M-118 -147Q-94 -162 -62 -162Q9 -162 23 -83L126 500H186L83 -80Q59 -212 -72 -212Q-115 -212 -149 -194L-118 -147ZM148 712H226L288 570H245L181 667L87 570H36L148 712Z"  />
<glyph unicode="&#x136;" horiz-adv-x="587" d="M141 379L529 700H618L241 392L510 0H430L190 351L127 299L75 0H9L132 700H198L141 379ZM175 -50H247L156 -212H119L175 -50Z"  />
<glyph unicode="&#x137;" horiz-adv-x="485" d="M171 254L106 200L71 0H11L140 736H200L118 271L392 500H474L222 295L423 0H345L171 254ZM154 -50H226L135 -212H98L154 -50Z"  />
<glyph unicode="&#x138;" horiz-adv-x="503" d="M180 254L115 200L80 0H20L108 500H168L127 271L401 500H483L231 295L432 0H354L180 254Z"  />
<glyph unicode="&#x139;" horiz-adv-x="515" d="M134 700H200L87 58H411L401 0H11L134 700ZM232 912H309L203 770H161L232 912Z"  />
<glyph unicode="&#x13A;" horiz-adv-x="220" d="M149 736H209L80 0H20L149 736ZM232 912H309L203 770H161L232 912Z"  />
<glyph unicode="&#x13B;" horiz-adv-x="515" d="M134 700H200L87 58H411L401 0H11L134 700ZM169 -50H241L150 -212H113L169 -50Z"  />
<glyph unicode="&#x13C;" horiz-adv-x="220" d="M149 736H209L80 0H20L149 736ZM13 -50H85L-6 -212H-43L13 -50Z"  />
<glyph unicode="&#x13D;" horiz-adv-x="515" d="M310 700H370L304 538H269L310 700ZM133 700H199L86 58H410L400 0H10L133 700Z"  />
<glyph unicode="&#x13E;" horiz-adv-x="220" d="M257 700H317L251 538H216L257 700ZM149 736H209L80 0H20L149 736Z"  />
<glyph unicode="&#x13F;" horiz-adv-x="515" d="M134 700H200L87 58H411L401 0H11L134 700ZM251 322H335L320 238H236L251 322Z"  />
<glyph unicode="&#x140;" horiz-adv-x="336" d="M149 736H209L80 0H20L149 736ZM215 322H299L284 238H200L215 322Z"  />
<glyph unicode="&#x141;" horiz-adv-x="515" d="M86 58H410L400 0H10L62 297L-29 265L-18 325L72 357L133 700H199L143 382L236 415L225 355L132 322L86 58Z"  />
<glyph unicode="&#x142;" horiz-adv-x="220" d="M72 298L-22 265L-11 325L83 358L143 700H203L147 381L243 415L232 355L136 321L80 0H20L72 298Z"  />
<glyph unicode="&#x143;" horiz-adv-x="709" d="M195 635L185 566L86 0H20L143 700H232L516 65L527 137L626 700H692L569 0H480L195 635ZM476 912H553L447 770H405L476 912Z"  />
<glyph unicode="&#x144;" horiz-adv-x="590" d="M456 366Q456 404 435 430T342 457Q265 457 203 402T127 271L80 0H20L108 500H168L150 397Q188 454 246 483T363 512Q458 512 488 472T518 379Q518 356 513 329L455 0H395L452 325L456 366ZM400 712H477L371 570H329L400 712Z"  />
<glyph unicode="&#x145;" horiz-adv-x="709" d="M195 635L185 566L86 0H20L143 700H232L516 65L527 137L626 700H692L569 0H480L195 635ZM266 -50H338L247 -212H210L266 -50Z"  />
<glyph unicode="&#x146;" horiz-adv-x="590" d="M456 366Q456 404 435 430T342 457Q265 457 203 402T127 271L80 0H20L108 500H168L150 397Q188 454 246 483T363 512Q458 512 488 472T518 379Q518 356 513 329L455 0H395L452 325L456 366ZM209 -50H281L190 -212H153L209 -50Z"  />
<glyph unicode="&#x147;" horiz-adv-x="709" d="M195 635L185 566L86 0H20L143 700H232L516 65L527 137L626 700H692L569 0H480L195 635ZM469 770H391L329 912H372L434 815L530 912H581L469 770Z"  />
<glyph unicode="&#x148;" horiz-adv-x="590" d="M456 366Q456 404 435 430T342 457Q265 457 203 402T127 271L80 0H20L108 500H168L150 397Q188 454 246 483T363 512Q458 512 488 472T518 379Q518 356 513 329L455 0H395L452 325L456 366ZM406 570H328L266 712H309L371 615L467 712H518L406 570Z"  />
<glyph unicode="&#x149;" horiz-adv-x="704" d="M135 700H218L87 480H41L135 700ZM570 366Q570 404 549 430T456 457Q379 457 317 402T241 271L194 0H134L222 500H282L264 397Q302 454 360 483T477 512Q572 512 602 472T632 379Q632 356 627 329L569 0H509L566 325L570 366Z"  />
<glyph unicode="&#x14A;" horiz-adv-x="709" d="M195 635L185 566L86 0H20L143 700H238L516 65L527 137L626 700H692L569 0Q551 -101 501 -150T352 -199Q263 -199 213 -149L255 -94Q273 -114 302 -127T362 -141Q427 -141 458 -110T503 0H474L195 635Z"  />
<glyph unicode="&#x14B;" horiz-adv-x="586" d="M233 -147Q257 -162 289 -162Q361 -162 375 -83L447 325L451 368Q451 405 433 431T342 457Q266 457 204 404T128 275L80 0H20L108 500H168L149 393Q187 450 245 481T365 512Q459 512 486 472T513 381Q513 357 508 329L435 -80Q411 -212 279 -212Q236 -212 202 -194L233 -147Z"  />
<glyph unicode="&#x14C;" horiz-adv-x="804" d="M342 -12Q204 -12 120 67T35 278Q35 395 93 496T251 655T467 712Q603 712 688 632T773 422Q773 342 743 262T654 119T515 22T342 -12ZM346 46Q444 46 526 94T657 231T706 416Q706 525 638 589T460 654Q385 654 318 624T202 541T127 419T101 282Q101 176 168 111T346 46ZM333 850H649L640 800H324L333 850Z"  />
<glyph unicode="&#x14D;" horiz-adv-x="606" d="M331 512Q433 512 494 454T555 302Q555 220 515 146T402 30T242 -12Q139 -12 79 46T19 197Q19 283 61 357T175 471T331 512ZM79 198Q79 139 116 92T248 44Q354 44 423 117T494 294Q494 371 448 413T325 456Q221 456 150 382T79 198ZM199 650H515L506 600H190L199 650Z"  />
<glyph unicode="&#x14E;" horiz-adv-x="804" d="M342 -12Q204 -12 120 67T35 278Q35 395 93 496T251 655T467 712Q603 712 688 632T773 422Q773 342 743 262T654 119T515 22T342 -12ZM346 46Q444 46 526 94T657 231T706 416Q706 525 638 589T460 654Q385 654 318 624T202 541T127 419T101 282Q101 176 168 111T346 46ZM633 900Q624 837 581 800T472 762Q423 762 392 793T361 874L363 900H410L408 881Q408 814 480 814Q566 814 585 900H633Z"  />
<glyph unicode="&#x14F;" horiz-adv-x="606" d="M331 512Q433 512 494 454T555 302Q555 220 515 146T402 30T242 -12Q139 -12 79 46T19 197Q19 283 61 357T175 471T331 512ZM79 198Q79 139 116 92T248 44Q354 44 423 117T494 294Q494 371 448 413T325 456Q221 456 150 382T79 198ZM501 700Q492 637 449 600T340 562Q291 562 260 593T229 674L231 700H278L276 681Q276 614 348 614Q434 614 453 700H501Z"  />
<glyph unicode="&#x150;" horiz-adv-x="804" d="M342 -12Q204 -12 120 67T35 278Q35 395 93 496T251 655T467 712Q603 712 688 632T773 422Q773 342 743 262T654 119T515 22T342 -12ZM346 46Q444 46 526 94T657 231T706 416Q706 525 638 589T460 654Q385 654 318 624T202 541T127 419T101 282Q101 176 168 111T346 46ZM435 912H503L427 770H395L435 912ZM586 912H659L559 770H526L586 912Z"  />
<glyph unicode="&#x151;" horiz-adv-x="606" d="M331 512Q433 512 494 454T555 302Q555 220 515 146T402 30T242 -12Q139 -12 79 46T19 197Q19 283 61 357T175 471T331 512ZM79 198Q79 139 116 92T248 44Q354 44 423 117T494 294Q494 371 448 413T325 456Q221 456 150 382T79 198ZM302 712H370L294 570H262L302 712ZM453 712H526L426 570H393L453 712Z"  />
<glyph unicode="&#x152;" horiz-adv-x="1227" d="M355 46Q454 46 537 95T668 231T716 417Q716 524 648 589T469 654Q394 654 327 624T211 541T136 419T110 282Q110 176 177 111T355 46ZM672 137Q615 66 533 27T351 -12Q213 -12 129 67T44 278Q44 395 102 496T260 655T476 712Q576 712 644 670T745 555L771 700H1223L1213 642H827L780 379H1114L1104 321H770L724 58H1117L1107 0H648L672 137Z"  />
<glyph unicode="&#x153;" horiz-adv-x="1053" d="M79 198Q79 139 116 92T248 44Q354 44 423 117T494 294Q494 371 448 413T325 456Q221 456 150 382T79 198ZM781 454Q699 454 639 406T556 279H930L931 307Q931 378 892 416T781 454ZM917 53Q822 -12 704 -12Q622 -12 570 22T496 116Q454 56 389 22T242 -12Q139 -12 79 46T19 197Q19 283 61 357T175 471T331 512Q409 512 463 478T541 382Q583 441 646 476T786 512Q885 512 939 460T993 312Q993 278 981 223H545L543 192Q543 124 588 84T714 44Q767 44 805 56T892 101L917 53Z"  />
<glyph unicode="&#x154;" horiz-adv-x="656" d="M370 278H126L77 0H11L134 700H431Q632 700 632 542Q632 445 584 377T435 285L557 0H485L370 278ZM190 642L136 336H368Q435 336 477 358T542 430T565 534Q565 581 537 611T420 642H190ZM442 912H519L413 770H371L442 912Z"  />
<glyph unicode="&#x155;" horiz-adv-x="367" d="M335 448Q314 454 284 454Q229 454 187 410T131 293L80 0H20L108 500H168L153 418Q179 460 219 486T308 512Q334 512 346 508L335 448ZM299 712H376L270 570H228L299 712Z"  />
<glyph unicode="&#x156;" horiz-adv-x="656" d="M370 278H126L77 0H11L134 700H431Q632 700 632 542Q632 445 584 377T435 285L557 0H485L370 278ZM190 642L136 336H368Q435 336 477 358T542 430T565 534Q565 581 537 611T420 642H190ZM228 -50H300L209 -212H172L228 -50Z"  />
<glyph unicode="&#x157;" horiz-adv-x="367" d="M335 448Q314 454 284 454Q229 454 187 410T131 293L80 0H20L108 500H168L153 418Q179 460 219 486T308 512Q334 512 346 508L335 448ZM12 -50H84L-7 -212H-44L12 -50Z"  />
<glyph unicode="&#x158;" horiz-adv-x="656" d="M370 278H126L77 0H11L134 700H431Q632 700 632 542Q632 445 584 377T435 285L557 0H485L370 278ZM190 642L136 336H368Q435 336 477 358T542 430T565 534Q565 581 537 611T420 642H190ZM436 770H358L296 912H339L401 815L497 912H548L436 770Z"  />
<glyph unicode="&#x159;" horiz-adv-x="367" d="M335 448Q314 454 284 454Q229 454 187 410T131 293L80 0H20L108 500H168L153 418Q179 460 219 486T308 512Q334 512 346 508L335 448ZM289 570H211L149 712H192L254 615L350 712H401L289 570Z"  />
<glyph unicode="&#x15A;" horiz-adv-x="537" d="M466 598Q410 654 335 654Q254 654 204 611T154 498Q154 456 184 429T287 376Q386 341 426 304T467 210Q467 152 438 100T348 18T201 -12Q126 -12 72 13T-11 72L37 124Q64 89 108 68T209 46Q373 46 397 181L400 206Q400 245 367 272T255 327Q161 360 124 397T86 493Q86 585 157 648T341 712Q450 712 513 647L466 598ZM400 912H477L371 770H329L400 912Z"  />
<glyph unicode="&#x15B;" horiz-adv-x="451" d="M358 415Q312 457 256 457Q201 457 166 430T131 356Q131 328 153 309T228 272Q298 249 333 221T369 146Q369 75 317 32T170 -12Q65 -12 1 50L41 98Q98 43 173 43Q230 43 267 69T305 140Q305 191 206 223Q134 246 102 277T69 357Q69 422 124 467T262 512Q345 512 398 465L358 415ZM327 712H404L298 570H256L327 712Z"  />
<glyph unicode="&#x15C;" horiz-adv-x="537" d="M466 598Q410 654 335 654Q254 654 204 611T154 498Q154 456 184 429T287 376Q386 341 426 304T467 210Q467 152 438 100T348 18T201 -12Q126 -12 72 13T-11 72L37 124Q64 89 108 68T209 46Q373 46 397 181L400 206Q400 245 367 272T255 327Q161 360 124 397T86 493Q86 585 157 648T341 712Q450 712 513 647L466 598ZM345 912H423L485 770H442L378 867L284 770H233L345 912Z"  />
<glyph unicode="&#x15D;" horiz-adv-x="451" d="M358 415Q312 457 256 457Q201 457 166 430T131 356Q131 328 153 309T228 272Q298 249 333 221T369 146Q369 75 317 32T170 -12Q65 -12 1 50L41 98Q98 43 173 43Q230 43 267 69T305 140Q305 191 206 223Q134 246 102 277T69 357Q69 422 124 467T262 512Q345 512 398 465L358 415ZM263 712H341L403 570H360L296 667L202 570H151L263 712Z"  />
<glyph unicode="&#x15E;" horiz-adv-x="555" d="M217 -113Q217 -70 152 -67L181 -10Q118 -5 73 18T2 72L50 124Q77 89 121 68T222 46Q386 46 410 181L413 206Q413 245 380 272T268 327Q174 360 137 397T99 493Q99 585 170 648T354 712Q463 712 526 647L479 598Q423 654 348 654Q267 654 217 611T167 498Q167 456 197 429T300 376Q399 341 439 304T480 210Q480 153 452 101T364 19T221 -12L206 -43Q249 -53 260 -73T271 -114Q271 -157 237 -186T137 -216Q92 -216 60 -199L83 -157Q109 -171 136 -171Q217 -171 217 -113Z"  />
<glyph unicode="&#x15F;" horiz-adv-x="451" d="M173 -113Q173 -70 108 -67L137 -10Q52 -1 1 50L41 98Q98 43 173 43Q230 43 267 69T305 140Q305 191 206 223Q134 246 102 277T69 357Q69 422 124 467T262 512Q345 512 398 465L358 415Q312 457 256 457Q201 457 166 430T131 356Q131 328 153 309T228 272Q298 249 333 221T369 146Q369 74 318 32T177 -12L162 -43Q205 -53 216 -73T227 -114Q227 -157 193 -186T93 -216Q48 -216 16 -199L39 -157Q65 -171 92 -171Q173 -171 173 -113Z"  />
<glyph unicode="&#x160;" horiz-adv-x="532" d="M471 598Q415 654 340 654Q259 654 209 611T159 498Q159 456 189 429T292 376Q391 341 431 304T472 210Q472 152 443 100T353 18T206 -12Q131 -12 77 13T-6 72L42 124Q69 89 113 68T214 46Q378 46 402 181L405 206Q405 245 372 272T260 327Q166 360 129 397T91 493Q91 585 162 648T346 712Q455 712 518 647L471 598ZM401 770H323L261 912H304L366 815L462 912H513L401 770Z"  />
<glyph unicode="&#x161;" horiz-adv-x="451" d="M358 415Q312 457 256 457Q201 457 166 430T131 356Q131 328 153 309T228 272Q298 249 333 221T369 146Q369 75 317 32T170 -12Q65 -12 1 50L41 98Q98 43 173 43Q230 43 267 69T305 140Q305 191 206 223Q134 246 102 277T69 357Q69 422 124 467T262 512Q345 512 398 465L358 415ZM319 570H241L179 712H222L284 615L380 712H431L319 570Z"  />
<glyph unicode="&#x162;" horiz-adv-x="550" d="M84 700H594L584 642H362L249 0H183L296 642H74L84 700ZM169 -50H241L150 -212H113L169 -50Z"  />
<glyph unicode="&#x163;" horiz-adv-x="358" d="M270 6Q230 -12 186 -12Q74 -12 74 85L77 120L135 449H50L59 500H144L167 640H227L204 500H335L326 449H195L136 119L134 95Q134 40 195 40Q226 40 256 54L270 6ZM107 -50H179L88 -212H51L107 -50Z"  />
<glyph unicode="&#x164;" horiz-adv-x="550" d="M84 700H594L584 642H362L249 0H183L296 642H74L84 700ZM394 770H316L254 912H297L359 815L455 912H506L394 770Z"  />
<glyph unicode="&#x165;" horiz-adv-x="386" d="M346 700H406L340 538H305L346 700ZM269 6Q228 -12 185 -12Q73 -12 73 85L76 120L134 449H49L58 500H143L166 640H226L203 500H334L325 449H194L135 119L133 95Q133 40 194 40Q225 40 255 54L269 6Z"  />
<glyph unicode="&#x166;" horiz-adv-x="550" d="M120 361H245L295 642H73L83 700H593L583 642H361L311 361H436L427 311H302L248 0H182L236 311H111L120 361Z"  />
<glyph unicode="&#x167;" horiz-adv-x="358" d="M19 282H104L134 449H49L58 500H143L166 640H226L203 500H334L325 449H194L164 282H295L287 233H156L135 119L133 95Q133 40 194 40Q225 40 255 54L269 6Q228 -12 185 -12Q73 -12 73 85L76 120L96 233H11L19 282Z"  />
<glyph unicode="&#x168;" horiz-adv-x="702" d="M619 700H685L605 249Q586 124 505 56T290 -12Q179 -12 119 40T58 191Q58 219 63 249L143 700H209L129 249Q124 219 124 193Q124 46 295 46Q390 46 455 95T539 249L619 700ZM516 824Q571 824 583 899H624L620 872Q614 833 587 803T513 773Q478 773 460 786T427 816T398 847T356 861Q301 861 289 786H248L252 813Q258 852 285 882T360 912Q387 912 406 902T446 868Q467 842 481 833T516 824Z"  />
<glyph unicode="&#x169;" horiz-adv-x="590" d="M106 129Q106 94 122 69T210 43Q286 43 352 99T429 225L478 500H538L450 0H390L408 107Q370 50 313 19T195 -12Q100 -12 72 26T44 114Q44 138 49 166L108 500H168L110 175L106 129ZM425 624Q480 624 492 699H533L529 672Q523 633 496 603T422 573Q387 573 369 586T336 616T307 647T265 661Q210 661 198 586H157L161 613Q167 652 194 682T269 712Q296 712 315 702T355 668Q376 642 390 633T425 624Z"  />
<glyph unicode="&#x16A;" horiz-adv-x="702" d="M619 700H685L605 249Q586 124 505 56T290 -12Q179 -12 119 40T58 191Q58 219 63 249L143 700H209L129 249Q124 219 124 193Q124 46 295 46Q390 46 455 95T539 249L619 700ZM281 850H597L588 800H272L281 850Z"  />
<glyph unicode="&#x16B;" horiz-adv-x="590" d="M106 129Q106 94 122 69T210 43Q286 43 352 99T429 225L478 500H538L450 0H390L408 107Q370 50 313 19T195 -12Q100 -12 72 26T44 114Q44 138 49 166L108 500H168L110 175L106 129ZM189 650H505L496 600H180L189 650Z"  />
<glyph unicode="&#x16C;" horiz-adv-x="702" d="M619 700H685L605 249Q586 124 505 56T290 -12Q179 -12 119 40T58 191Q58 219 63 249L143 700H209L129 249Q124 219 124 193Q124 46 295 46Q390 46 455 95T539 249L619 700ZM585 900Q576 837 533 800T424 762Q375 762 344 793T313 874L315 900H362L360 881Q360 814 432 814Q518 814 537 900H585Z"  />
<glyph unicode="&#x16D;" horiz-adv-x="590" d="M106 129Q106 94 122 69T210 43Q286 43 352 99T429 225L478 500H538L450 0H390L408 107Q370 50 313 19T195 -12Q100 -12 72 26T44 114Q44 138 49 166L108 500H168L110 175L106 129ZM491 700Q482 637 439 600T330 562Q281 562 250 593T219 674L221 700H268L266 681Q266 614 338 614Q424 614 443 700H491Z"  />
<glyph unicode="&#x16E;" horiz-adv-x="702" d="M619 700H685L605 249Q586 124 505 56T290 -12Q179 -12 119 40T58 191Q58 219 63 249L143 700H209L129 249Q124 219 124 193Q124 46 295 46Q390 46 455 95T539 249L619 700ZM453 942Q495 942 514 919T534 865Q534 819 503 786T422 753Q387 753 365 775T342 830Q342 874 375 908T453 942ZM386 836Q386 822 396 809T428 796Q453 796 471 815T490 858Q490 873 480 886T448 899Q423 899 405 881T386 836Z"  />
<glyph unicode="&#x16F;" horiz-adv-x="590" d="M106 129Q106 94 122 69T210 43Q286 43 352 99T429 225L478 500H538L450 0H390L408 107Q370 50 313 19T195 -12Q100 -12 72 26T44 114Q44 138 49 166L108 500H168L110 175L106 129ZM362 742Q404 742 423 719T443 665Q443 619 412 586T331 553Q296 553 274 575T251 630Q251 674 284 708T362 742ZM295 636Q295 622 305 609T337 596Q362 596 380 615T399 658Q399 673 389 686T357 699Q332 699 314 681T295 636Z"  />
<glyph unicode="&#x170;" horiz-adv-x="702" d="M619 700H685L605 249Q586 124 505 56T290 -12Q179 -12 119 40T58 191Q58 219 63 249L143 700H209L129 249Q124 219 124 193Q124 46 295 46Q390 46 455 95T539 249L619 700ZM382 912H450L374 770H342L382 912ZM533 912H606L506 770H473L533 912Z"  />
<glyph unicode="&#x171;" horiz-adv-x="590" d="M106 129Q106 94 122 69T210 43Q286 43 352 99T429 225L478 500H538L450 0H390L408 107Q370 50 313 19T195 -12Q100 -12 72 26T44 114Q44 138 49 166L108 500H168L110 175L106 129ZM287 712H355L279 570H247L287 712ZM438 712H511L411 570H378L438 712Z"  />
<glyph unicode="&#x172;" horiz-adv-x="702" d="M287 -193Q258 -193 245 -178T231 -142Q231 -83 314 -11L302 -12H290Q179 -12 119 40T58 191Q58 219 63 249L143 700H209L129 249Q124 219 124 193Q124 46 295 46Q390 46 455 95T539 249L619 700H685L605 249Q589 153 535 86T380 -3Q297 -67 297 -111Q297 -133 322 -133Q346 -133 362 -123L352 -181Q322 -193 287 -193Z"  />
<glyph unicode="&#x173;" horiz-adv-x="590" d="M353 -193Q324 -193 311 -178T297 -142Q297 -78 389 -3L408 107Q370 50 313 19T195 -12Q100 -12 72 26T44 114Q44 138 49 166L108 500H168L110 175L106 129Q106 94 122 69T210 43Q286 43 352 99T429 225L478 500H538L450 0Q363 -68 363 -111Q363 -133 388 -133Q412 -133 428 -123L418 -181Q388 -193 353 -193Z"  />
<glyph unicode="&#x174;" horiz-adv-x="969" d="M661 56L929 700H1001L702 0H607L538 650L244 0H149L96 700H164L204 56L499 700H597L661 56ZM545 912H623L685 770H642L578 867L484 770H433L545 912Z"  />
<glyph unicode="&#x175;" horiz-adv-x="828" d="M433 453L219 0H137L78 500H145L187 52L400 500H484L539 52L739 500H806L571 0H489L433 453ZM440 712H518L580 570H537L473 667L379 570H328L440 712Z"  />
<glyph unicode="&#x176;" horiz-adv-x="648" d="M83 700H157L316 319L610 700H691L342 260L297 0H231L276 260L83 700ZM385 912H463L525 770H482L418 867L324 770H273L385 912Z"  />
<glyph unicode="&#x177;" horiz-adv-x="544" d="M48 500H115L221 65L482 500H552L194 -83Q142 -165 109 -187T22 -210Q-2 -210 -26 -203T-59 -188L-25 -134Q-16 -142 0 -148T31 -155Q66 -155 88 -137T139 -70L179 -2L48 500ZM298 712H376L438 570H395L331 667L237 570H186L298 712Z"  />
<glyph unicode="&#x178;" horiz-adv-x="648" d="M83 700H157L316 319L610 700H691L342 260L297 0H231L276 260L83 700ZM297 867H369L356 795H284L297 867ZM459 867H531L518 795H446L459 867Z"  />
<glyph unicode="&#x179;" horiz-adv-x="642" d="M536 642H119L129 700H635L627 656L89 58H542L532 0H-10L-3 44L536 642ZM425 912H502L396 770H354L425 912Z"  />
<glyph unicode="&#x17A;" horiz-adv-x="519" d="M389 444H82L92 500H482L473 452L81 56H418L409 0H-10L-2 48L389 444ZM344 712H421L315 570H273L344 712Z"  />
<glyph unicode="&#x17B;" horiz-adv-x="642" d="M536 642H119L129 700H635L627 656L89 58H542L532 0H-10L-3 44L536 642ZM370 865H438L427 797H359L370 865Z"  />
<glyph unicode="&#x17C;" horiz-adv-x="519" d="M389 444H82L92 500H482L473 452L81 56H418L409 0H-10L-2 48L389 444ZM281 665H349L338 597H270L281 665Z"  />
<glyph unicode="&#x17D;" horiz-adv-x="642" d="M536 642H119L129 700H635L627 656L89 58H542L532 0H-10L-3 44L536 642ZM429 770H351L289 912H332L394 815L490 912H541L429 770Z"  />
<glyph unicode="&#x17E;" horiz-adv-x="519" d="M389 444H82L92 500H482L473 452L81 56H418L409 0H-10L-2 48L389 444ZM345 570H267L205 712H248L310 615L406 712H457L345 570Z"  />
<glyph unicode="&#x192;" horiz-adv-x="364" d="M137 449H59L68 500H146L160 580Q184 712 316 712Q359 712 393 694L362 646Q339 660 306 660Q234 660 220 581L206 500H325L316 449H197L117 0Q93 -132 -40 -132Q-82 -132 -116 -114L-85 -66Q-62 -80 -30 -80Q8 -80 29 -61T58 0L137 449Z"  />
<glyph unicode="&#x218;" horiz-adv-x="537" d="M466 598Q410 654 335 654Q254 654 204 611T154 498Q154 456 184 429T287 376Q386 341 426 304T467 210Q467 152 438 100T348 18T201 -12Q126 -12 72 13T-11 72L37 124Q64 89 108 68T209 46Q373 46 397 181L400 206Q400 245 367 272T255 327Q161 360 124 397T86 493Q86 585 157 648T341 712Q450 712 513 647L466 598ZM161 -50H233L142 -212H105L161 -50Z"  />
<glyph unicode="&#x219;" horiz-adv-x="451" d="M358 415Q312 457 256 457Q201 457 166 430T131 356Q131 328 153 309T228 272Q298 249 333 221T369 146Q369 75 317 32T170 -12Q65 -12 1 50L41 98Q98 43 173 43Q230 43 267 69T305 140Q305 191 206 223Q134 246 102 277T69 357Q69 422 124 467T262 512Q345 512 398 465L358 415ZM128 -50H200L109 -212H72L128 -50Z"  />
<glyph unicode="&#x2C6;" horiz-adv-x="393" d="M222 712H300L362 570H319L255 667L161 570H110L222 712Z"  />
<glyph unicode="&#x2C7;" horiz-adv-x="393" d="M275 570H197L135 712H178L240 615L336 712H387L275 570Z"  />
<glyph unicode="&#x2D8;" horiz-adv-x="388" d="M393 700Q384 637 341 600T232 562Q183 562 152 593T121 674L123 700H170L168 681Q168 614 240 614Q326 614 345 700H393Z"  />
<glyph unicode="&#x2D9;" horiz-adv-x="254" d="M149 665H217L206 597H138L149 665Z"  />
<glyph unicode="&#x2DA;" horiz-adv-x="285" d="M211 742Q253 742 272 719T292 665Q292 619 261 586T180 553Q145 553 123 575T100 630Q100 674 133 708T211 742ZM144 636Q144 622 154 609T186 596Q211 596 229 615T248 658Q248 673 238 686T206 699Q181 699 163 681T144 636Z"  />
<glyph unicode="&#x2DB;" horiz-adv-x="270" d="M30 -193Q1 -193 -12 -178T-26 -142Q-26 -74 71 0H127Q40 -68 40 -111Q40 -133 65 -133Q89 -133 105 -123L95 -181Q65 -193 30 -193Z"  />
<glyph unicode="&#x2DC;" horiz-adv-x="457" d="M361 624Q416 624 428 699H469L465 672Q459 633 432 603T358 573Q323 573 305 586T272 616T243 647T201 661Q146 661 134 586H93L97 613Q103 652 130 682T205 712Q232 712 251 702T291 668Q312 642 326 633T361 624Z"  />
<glyph unicode="&#x2DD;" horiz-adv-x="447" d="M186 712H254L178 570H146L186 712ZM337 712H410L310 570H277L337 712Z"  />
<glyph unicode="&#x3BC;" horiz-adv-x="580" d="M468 500H528L470 171Q454 82 406 35T262 -12Q201 -12 154 19T88 107L34 -200H-26L98 500H158L109 223L107 196Q107 129 149 86T259 43Q331 43 364 74T410 175L468 500Z"  />
<glyph unicode="&#x3C0;" horiz-adv-x="631" d="M609 500L600 449H509L430 0H368L447 449H222L143 0H81L160 449H69L78 500H609Z"  />
<glyph unicode="&#x1E02;" horiz-adv-x="633" d="M134 700H419Q523 700 559 658T596 557Q596 487 561 435T464 355Q512 342 541 306T571 222L567 187Q533 0 332 0H11L134 700ZM133 321L87 58H342Q417 58 460 106T503 226Q503 263 477 292T388 321H133ZM190 642L143 379H376Q445 379 487 426T529 544Q529 582 507 612T413 642H190ZM358 865H426L415 797H347L358 865Z"  />
<glyph unicode="&#x1E03;" horiz-adv-x="656" d="M120 206Q120 131 166 88T290 44Q396 44 464 115T533 291Q533 368 488 412T363 456Q262 456 191 384T120 206ZM287 -12Q222 -12 171 17T97 100L80 0H20L149 736H209L150 400Q240 512 377 512Q477 512 536 455T595 302Q595 221 555 146T445 29T287 -12ZM375 665H443L432 597H364L375 665Z"  />
<glyph unicode="&#x1E0A;" horiz-adv-x="688" d="M143 700H398Q525 700 595 631T667 432Q667 320 618 216T478 56T274 0H20L143 700ZM281 58Q372 58 444 105T558 239T600 433Q600 517 554 579T385 642H199L96 58H281ZM355 865H423L412 797H344L355 865Z"  />
<glyph unicode="&#x1E0B;" horiz-adv-x="642" d="M500 290Q500 365 454 410T330 456Q226 456 157 383T88 201Q88 126 132 85T255 44Q323 44 380 77T468 169T500 290ZM243 -12Q144 -12 85 45T25 197Q25 283 67 356T180 471T336 512Q401 512 449 483T523 400L582 736H642L513 0H453L470 100Q382 -12 243 -12ZM322 665H390L379 597H311L322 665Z"  />
<glyph unicode="&#x1E1E;" horiz-adv-x="538" d="M11 0L134 700H556L546 642H190L143 379H447L437 321H133L77 0H11ZM345 865H413L402 797H334L345 865Z"  />
<glyph unicode="&#x1E1F;" horiz-adv-x="364" d="M369 682Q344 696 314 696Q240 696 226 617L206 500H325L316 449H197L117 0H57L137 449H59L68 500H146L166 616Q190 748 321 748Q365 748 399 730L369 682ZM300 876H368L357 808H289L300 876Z"  />
<glyph unicode="&#x1E40;" horiz-adv-x="882" d="M390 67L754 700H865L742 0H676L790 647L415 0H347L200 647L86 0H20L143 700H250L390 67ZM497 865H565L554 797H486L497 865Z"  />
<glyph unicode="&#x1E41;" horiz-adv-x="847" d="M394 370Q394 454 296 454Q235 454 186 412T126 313L71 0H11L99 500H159L143 414Q176 465 224 488T319 512Q437 512 454 415Q488 463 537 487T640 512Q708 512 742 480T777 389L773 344L713 0H653L713 344L715 370Q715 454 617 454Q557 454 507 413T447 314L392 0H332L392 344L394 370ZM462 665H530L519 597H451L462 665Z"  />
<glyph unicode="&#x1E56;" horiz-adv-x="627" d="M123 264L77 0H11L134 700H420Q519 700 568 658T618 538Q618 461 585 396T491 298T344 264H123ZM190 642L133 322H352Q450 322 500 380T551 528Q551 575 524 608T409 642H190ZM335 865H403L392 797H324L335 865Z"  />
<glyph unicode="&#x1E57;" horiz-adv-x="642" d="M117 206Q117 131 163 88T287 44Q393 44 461 115T530 291Q530 368 485 412T360 456Q259 456 188 384T117 206ZM284 -12Q219 -12 168 17T94 100L41 -200H-19L105 500H165L147 400Q237 512 374 512Q474 512 533 455T592 302Q592 221 552 146T442 29T284 -12ZM369 665H437L426 597H358L369 665Z"  />
<glyph unicode="&#x1E60;" horiz-adv-x="537" d="M466 598Q410 654 335 654Q254 654 204 611T154 498Q154 456 184 429T287 376Q386 341 426 304T467 210Q467 152 438 100T348 18T201 -12Q126 -12 72 13T-11 72L37 124Q64 89 108 68T209 46Q373 46 397 181L400 206Q400 245 367 272T255 327Q161 360 124 397T86 493Q86 585 157 648T341 712Q450 712 513 647L466 598ZM339 865H407L396 797H328L339 865Z"  />
<glyph unicode="&#x1E61;" horiz-adv-x="451" d="M358 415Q312 457 256 457Q201 457 166 430T131 356Q131 328 153 309T228 272Q298 249 333 221T369 146Q369 75 317 32T170 -12Q65 -12 1 50L41 98Q98 43 173 43Q230 43 267 69T305 140Q305 191 206 223Q134 246 102 277T69 357Q69 422 124 467T262 512Q345 512 398 465L358 415ZM263 665H331L320 597H252L263 665Z"  />
<glyph unicode="&#x1E6A;" horiz-adv-x="550" d="M84 700H594L584 642H362L249 0H183L296 642H74L84 700ZM333 865H401L390 797H322L333 865Z"  />
<glyph unicode="&#x1E6B;" horiz-adv-x="358" d="M270 6Q230 -12 186 -12Q74 -12 74 85L77 120L135 449H50L59 500H144L167 640H227L204 500H335L326 449H195L136 119L134 95Q134 40 195 40Q226 40 256 54L270 6ZM188 784H256L245 716H177L188 784Z"  />
<glyph unicode="&#x1E80;" horiz-adv-x="969" d="M661 56L929 700H1001L702 0H607L538 650L244 0H149L96 700H164L204 56L499 700H597L661 56ZM626 770H589L515 912H588L626 770Z"  />
<glyph unicode="&#x1E81;" horiz-adv-x="828" d="M433 453L219 0H137L78 500H145L187 52L400 500H484L539 52L739 500H806L571 0H489L433 453ZM519 570H482L408 712H481L519 570Z"  />
<glyph unicode="&#x1E82;" horiz-adv-x="969" d="M661 56L929 700H1001L702 0H607L538 650L244 0H149L96 700H164L204 56L499 700H597L661 56ZM607 912H684L578 770H536L607 912Z"  />
<glyph unicode="&#x1E83;" horiz-adv-x="828" d="M433 453L219 0H137L78 500H145L187 52L400 500H484L539 52L739 500H806L571 0H489L433 453ZM505 712H582L476 570H434L505 712Z"  />
<glyph unicode="&#x1E84;" horiz-adv-x="969" d="M661 56L929 700H1001L702 0H607L538 650L244 0H149L96 700H164L204 56L499 700H597L661 56ZM460 867H532L519 795H447L460 867ZM622 867H694L681 795H609L622 867Z"  />
<glyph unicode="&#x1E85;" horiz-adv-x="828" d="M433 453L219 0H137L78 500H145L187 52L400 500H484L539 52L739 500H806L571 0H489L433 453ZM354 667H426L413 595H341L354 667ZM516 667H588L575 595H503L516 667Z"  />
<glyph unicode="&#x1EF2;" horiz-adv-x="648" d="M83 700H157L316 319L610 700H691L342 260L297 0H231L276 260L83 700ZM458 770H421L347 912H420L458 770Z"  />
<glyph unicode="&#x1EF3;" horiz-adv-x="544" d="M48 500H115L221 65L482 500H552L194 -83Q142 -165 109 -187T22 -210Q-2 -210 -26 -203T-59 -188L-25 -134Q-16 -142 0 -148T31 -155Q66 -155 88 -137T139 -70L179 -2L48 500ZM361 570H324L250 712H323L361 570Z"  />
<glyph unicode="&#x2013;" horiz-adv-x="649" d="M63 301H572L561 239H52L63 301Z"  />
<glyph unicode="&#x2014;" horiz-adv-x="956" d="M63 301H879L868 239H52L63 301Z"  />
<glyph unicode="&#x2018;" horiz-adv-x="275" d="M229 480H186L133 700H213L229 480Z"  />
<glyph unicode="&#x2019;" horiz-adv-x="275" d="M185 700H268L137 480H91L185 700Z"  />
<glyph unicode="&#x201A;" horiz-adv-x="295" d="M83 110H166L35 -110H-11L83 110Z"  />
<glyph unicode="&#x201C;" horiz-adv-x="480" d="M229 480H186L133 700H213L229 480ZM394 480H351L298 700H378L394 480Z"  />
<glyph unicode="&#x201D;" horiz-adv-x="480" d="M186 700H269L138 480H92L186 700ZM352 700H435L304 480H258L352 700Z"  />
<glyph unicode="&#x201E;" horiz-adv-x="480" d="M82 110H165L34 -110H-12L82 110ZM248 110H331L200 -110H154L248 110Z"  />
<glyph unicode="&#x2020;" horiz-adv-x="340" d="M233 556L190 312H140L183 556H88L96 606H191L210 712H260L241 606H336L328 556H233Z"  />
<glyph unicode="&#x2021;" horiz-adv-x="340" d="M312 468L303 418H208L190 312H140L158 418H63L72 468H167L183 556H88L96 606H191L210 712H260L241 606H336L328 556H233L217 468H312Z"  />
<glyph unicode="&#x2022;" horiz-adv-x="362" d="M40 280Q40 334 79 372T171 411Q225 411 263 372T302 280Q302 226 263 188T171 149Q117 149 79 188T40 280Z"  />
<glyph unicode="&#x2026;" horiz-adv-x="666" d="M16 81H99L86 0H3L16 81ZM238 81H321L308 0H225L238 81ZM460 81H543L530 0H447L460 81Z"  />
<glyph unicode="&#x2030;" horiz-adv-x="1117" d="M660 700H724L91 0H27L660 700ZM280 712Q338 712 376 674T414 581Q414 507 358 453T229 398Q170 398 132 437T94 530Q94 602 150 657T280 712ZM150 534Q150 496 174 472T234 447Q282 447 320 486T358 577Q358 608 338 635T274 663Q225 663 188 624T150 534ZM527 302Q585 302 623 264T661 171Q661 97 605 43T476 -12Q417 -12 379 27T341 120Q341 192 397 247T527 302ZM397 124Q397 86 421 62T481 37Q529 37 567 76T605 167Q605 198 585 225T521 253Q472 253 435 214T397 124ZM891 302Q949 302 987 264T1025 171Q1025 97 969 43T840 -12Q781 -12 743 27T705 120Q705 192 761 247T891 302ZM761 124Q761 86 785 62T845 37Q893 37 931 76T969 167Q969 198 949 225T885 253Q836 253 799 214T761 124Z"  />
<glyph unicode="&#x2039;" horiz-adv-x="324" d="M139 50L54 252L210 450H273L113 248L199 50H139Z"  />
<glyph unicode="&#x203A;" horiz-adv-x="324" d="M150 450L235 248L79 50H16L176 252L90 450H150Z"  />
<glyph unicode="&#x20AC;" horiz-adv-x="818" d="M668 53Q571 -12 439 -12Q311 -12 230 56T136 242H42L51 290H134Q134 342 155 413H72L81 461H174Q228 574 333 643T562 712Q693 712 770 645L729 591Q662 654 556 654Q462 654 378 602T245 461H532L523 413H223Q200 339 200 290H502L493 242H202Q214 149 279 98T443 46Q559 46 642 105L668 53Z"  />
<glyph unicode="&#x2122;" horiz-adv-x="437" d="M93 700H234L229 672H174L148 525H116L142 672H88L93 700ZM310 525L287 678L261 525H228L259 700H313L334 553L407 700H461L430 525H398L426 678L348 525H310Z"  />
<glyph unicode="&#x2202;" horiz-adv-x="627" d="M269 703Q305 712 355 712Q463 712 520 645T577 454Q577 338 537 224T423 49T239 -12Q141 -12 84 39T26 179Q26 296 109 379T311 463Q389 463 438 428T504 340Q514 397 514 443Q514 542 471 598T346 654Q309 654 275 646L269 703ZM251 46Q314 46 362 74T439 156T469 266Q469 330 427 369T313 408Q249 408 199 379T121 298T94 191Q94 125 136 86T251 46Z"  />
<glyph unicode="&#x2212;" horiz-adv-x="566" d="M46 261L56 319H502L492 261H46Z"  />
<glyph unicode="&#x222B;" horiz-adv-x="426" d="M428 647Q402 662 371 662Q299 662 285 583L168 -80Q144 -212 12 -212Q-32 -212 -64 -194L-34 -147Q-10 -162 22 -162Q94 -162 108 -83L225 580Q249 712 381 712Q424 712 458 694L428 647Z"  />
<glyph unicode="&#x2260;" horiz-adv-x="566" d="M210 157L100 0H40L150 157H27L37 215H190L296 365H64L74 423H337L448 580H508L397 423H520L510 365H356L250 215H483L473 157H210Z"  />
<glyph unicode="&#x2264;" horiz-adv-x="483" d="M80 430L392 700H479L167 430L384 160H297L80 430ZM373 58L363 0H9L19 58H373Z"  />
<glyph unicode="&#x2265;" horiz-adv-x="483" d="M127 160H40L351 430L135 700H222L438 430L127 160ZM369 58L359 0H5L15 58H369Z"  />
<glyph unicode="&#xFB01;" horiz-adv-x="589" d="M369 682Q344 696 314 696Q240 696 226 617L206 500H325L316 449H197L117 0H57L137 449H59L68 500H146L166 616Q190 748 321 748Q365 748 399 730L369 682ZM472 500H532L444 0H384L472 500ZM497 665H565L553 597H485L497 665Z"  />
<glyph unicode="&#xFB02;" horiz-adv-x="579" d="M369 682Q344 696 314 696Q240 696 226 617L206 500H325L316 449H197L117 0H57L137 449H59L68 500H146L166 616Q190 748 321 748Q365 748 399 730L369 682ZM508 736H568L439 0H379L508 736Z"  />

</font>
</defs>
</svg>
