<?xml  version="1.0" encoding="UTF-8"?>
<!DOCTYPE svg PUBLIC "-//W3C//DTD SVG 1.0//EN" "http://www.w3.org/TR/2001/REC-SVG-20010904/DTD/svg10.dtd" >
<svg xmlns="http://www.w3.org/2000/svg" >
<metadata>
<version>1.0</version>
<id><![CDATA[SimpleSans-Medium]]></id>
<vendor>Monotype Imaging Inc.</vendor>
<credits>
<name>Fonts.com WebFonts</name>
<URL>http://webfonts.fonts.com</URL>
<role>Home of the Web fonts</role>
</credits>
<license>
<URL>http://webfonts.fonts.com/Legal</URL>
</license>
<copyright><![CDATA[Copyright (c) 2008 by VSA Partners. All rights reserved.]]></copyright>
<trademark><![CDATA[SimpleSans-Medium is a trademark of VSA Partners.]]></trademark>
<licensee>
<name></name>
</licensee>
</metadata>
<defs >
<font horiz-adv-x="582" id="94258090-9438-4ffb-89f4-ed11a2e25af5">
<font-face font-family="" panose-1="2 0 5 3 3 0 0 2 0 4" ascent="952" descent="-218" units-per-em="1000" alphabetic="0">
</font-face>
<missing-glyph horiz-adv-x="617" d="M50 0V700H562V0H50ZM468 622H144V78H468V622Z"  />

<glyph unicode="&#xA;" />
<glyph unicode="&#xD;" />
<glyph unicode=" " horiz-adv-x="250" />
<glyph unicode="!" horiz-adv-x="316" d="M94 700H222L192 204H124L94 700ZM96 124H220V0H96V124Z"  />
<glyph unicode="&quot;" horiz-adv-x="468" d="M174 420H112L80 700H206L174 420ZM356 420H294L262 700H388L356 420Z"  />
<glyph unicode="#" horiz-adv-x="669" d="M453 257L436 120H366L383 257H248L231 120H161L178 257H80L88 325H186L207 496H109L117 564H215L232 700H302L285 564H420L437 700H507L490 564H589L581 496H482L461 325H558L550 257H453ZM256 325H391L412 496H277L256 325Z"  />
<glyph unicode="$" horiz-adv-x="577" d="M265 -36V17Q143 25 70 100L125 170Q185 110 265 102V315Q167 348 127 392T86 504Q86 573 134 622T265 681V736H326V681Q415 672 477 616L421 546Q379 586 326 595V380Q429 342 468 302T507 197Q507 118 460 73T326 19V-36H265ZM179 502Q179 468 197 445T265 401V594Q222 586 201 561T179 502ZM412 200Q412 232 393 253T326 294V104Q412 118 412 200Z"  />
<glyph unicode="%" horiz-adv-x="775" d="M597 700H679L173 0H91L597 700ZM70 555Q70 620 116 666T228 712Q294 712 340 666T386 555Q386 490 340 444T228 398Q162 398 116 444T70 555ZM389 145Q389 210 435 256T547 302Q613 302 659 256T705 145Q705 80 659 34T547 -12Q481 -12 435 34T389 145ZM140 555Q140 515 165 488T228 460Q265 460 290 487T316 555Q316 595 291 622T228 650Q191 650 166 623T140 555ZM459 145Q459 105 484 78T547 50Q584 50 609 77T635 145Q635 185 610 212T547 240Q510 240 485 213T459 145Z"  />
<glyph unicode="&amp;" horiz-adv-x="689" d="M271 -12Q171 -12 116 38T60 175Q60 269 152 341L199 378L163 418Q98 487 98 556Q98 625 146 668T272 712Q350 712 398 669T447 555Q447 507 428 476T375 416L320 370L462 219L532 308H645L523 154L669 0H549L469 86Q424 32 380 10T271 -12ZM276 77Q314 77 342 90T409 152L256 317L208 278Q157 236 157 181Q157 130 191 104T276 77ZM189 551Q189 509 227 469L264 429L312 467Q337 487 346 504T355 550Q355 579 334 603T272 627Q231 627 210 604T189 551Z"  />
<glyph unicode="&apos;" horiz-adv-x="286" d="M174 420H112L80 700H206L174 420Z"  />
<glyph unicode="(" horiz-adv-x="424" d="M184 299Q184 179 220 76T344 -146L295 -183Q187 -63 139 53T90 299Q90 428 138 543T295 780L344 744Q254 619 219 516T184 299Z"  />
<glyph unicode=")" horiz-adv-x="424" d="M240 299Q240 414 205 516T80 744L129 780Q236 661 285 546T334 299Q334 169 285 52T129 -183L80 -146Q168 -28 204 75T240 299Z"  />
<glyph unicode="*" horiz-adv-x="586" d="M478 346L371 268L293 461L215 268L108 346L267 480L60 494L100 620L277 510L227 712H359L309 510L486 620L526 494L319 480L478 346Z"  />
<glyph unicode="+" horiz-adv-x="586" d="M70 330H253V513H333V330H516V250H333V67H253V250H70V330Z"  />
<glyph unicode="&#x2c;" horiz-adv-x="289" d="M105 114H219L130 -109H52L105 114Z"  />
<glyph unicode="-" horiz-adv-x="435" d="M70 313H365V227H70V313Z"  />
<glyph unicode="." horiz-adv-x="254" d="M70 114H184V0H70V114Z"  />
<glyph unicode="/" horiz-adv-x="503" d="M355 740H443L148 -80H60L355 740Z"  />
<glyph unicode="0" horiz-adv-x="638" d="M319 618Q237 618 196 555T154 351Q154 212 193 147T319 82Q407 82 445 147T484 351Q484 490 443 554T319 618ZM319 -12Q50 -12 50 351Q50 522 120 617T319 712Q447 712 517 617T588 351Q588 -12 319 -12Z"  />
<glyph unicode="1" horiz-adv-x="420" d="M310 700V0H206V596L76 530L40 603L230 700H310Z"  />
<glyph unicode="2" horiz-adv-x="597" d="M537 94V0H60V79L336 351Q378 393 396 427T415 499Q415 556 380 587T279 618Q193 618 117 556L66 630Q105 665 162 688T279 712Q392 712 456 657T520 506Q520 447 501 405T407 291L200 94H537Z"  />
<glyph unicode="3" horiz-adv-x="596" d="M106 141Q167 82 269 82Q428 82 428 204Q428 322 287 322H199V406H285Q348 406 377 430T406 507Q406 557 372 587T272 618Q225 618 188 605T113 560L62 633Q161 712 271 712Q381 712 445 660T509 518Q509 413 399 368Q468 347 502 304T536 202Q536 99 466 44T269 -12Q136 -12 50 60L106 141Z"  />
<glyph unicode="4" horiz-adv-x="639" d="M405 156H40V230L368 700H509V243H599V156H509V0H405V156ZM147 243H405V613L147 243Z"  />
<glyph unicode="5" horiz-adv-x="620" d="M299 83Q385 83 425 123T465 229Q465 292 425 328T316 365Q225 365 170 310L87 338L130 700H515V606H211L188 400Q216 420 256 433T338 446Q453 446 511 387T570 229Q570 119 497 54T296 -12Q153 -12 50 63L102 150Q182 83 299 83Z"  />
<glyph unicode="6" horiz-adv-x="631" d="M338 618Q255 618 208 552T160 368Q230 457 346 457Q456 457 518 396T581 228Q581 120 510 54T326 -12Q195 -12 128 76T60 337Q60 513 135 612T338 712Q391 712 436 699T532 649L480 568Q418 618 338 618ZM327 81Q394 81 434 121T475 229Q475 294 435 334T326 374Q261 374 218 335T175 229Q175 163 217 122T327 81Z"  />
<glyph unicode="7" horiz-adv-x="555" d="M40 700H515V621L259 0H141L401 606H40V700Z"  />
<glyph unicode="8" horiz-adv-x="638" d="M319 -12Q196 -12 126 42T55 195Q55 320 176 369Q77 416 77 522Q77 606 143 659T319 712Q429 712 495 659T561 522Q561 417 461 369Q583 320 583 195Q583 97 513 43T319 -12ZM319 82Q395 82 437 112T479 205Q479 262 438 296T319 331Q241 331 200 297T159 205Q159 143 201 113T319 82ZM319 397Q382 397 421 423T460 508Q460 554 424 586T319 618Q250 618 214 586T178 508Q178 450 217 424T319 397Z"  />
<glyph unicode="9" horiz-adv-x="629" d="M295 79Q377 79 423 146T470 336Q411 244 285 244Q176 244 113 305T50 471Q50 578 119 645T303 712Q436 712 502 623T569 363Q569 184 499 86T293 -12Q230 -12 186 3T98 52L151 130Q183 104 216 92T295 79ZM304 617Q236 617 195 577T153 471Q153 407 191 366T304 325Q376 325 415 366T454 471Q454 538 413 577T304 617Z"  />
<glyph unicode=":" horiz-adv-x="274" d="M80 114H194V0H80V114ZM80 439H194V325H80V439Z"  />
<glyph unicode=";" horiz-adv-x="299" d="M105 114H219L130 -109H52L105 114ZM105 439H219V325H105V439Z"  />
<glyph unicode="&lt;" horiz-adv-x="498" d="M70 330L318 740H418L168 330L418 -80H318L70 330Z"  />
<glyph unicode="=" horiz-adv-x="586" d="M70 360V440H516V360H70ZM70 140V220H516V140H70Z"  />
<glyph unicode="&gt;" horiz-adv-x="498" d="M180 -80H80L330 330L80 740H180L428 330L180 -80Z"  />
<glyph unicode="?" horiz-adv-x="586" d="M249 203Q233 258 239 294T265 354T310 394T361 426T403 462T420 513Q420 534 414 553T392 586T352 608T290 617Q241 617 199 600T121 545L60 619Q104 664 162 688T289 712Q351 712 395 697T469 655T512 593T526 516Q526 471 510 443T469 394T417 359T366 323T330 275T320 203H249ZM224 124H348V0H224V124Z"  />
<glyph unicode="@" horiz-adv-x="977" d="M390 179Q390 111 477 111Q526 111 562 145T599 220Q545 241 476 241Q390 241 390 179ZM498 -80Q592 -80 676 -39L705 -106Q667 -126 611 -138T496 -150Q311 -150 201 -43T90 249Q90 423 207 539T500 655Q610 655 699 608T837 475T887 273Q887 51 727 51Q692 51 665 70T621 115Q595 80 552 61T466 41Q395 41 352 74T308 171Q308 234 351 267T466 301Q545 301 599 277V297Q599 390 486 390Q427 390 379 360L349 423Q411 461 487 461Q587 461 632 421T677 295V168Q677 141 692 126T731 111Q774 111 791 147T809 274Q809 413 724 497T500 581Q354 581 263 489T172 247Q172 94 259 7T498 -80Z"  />
<glyph unicode="A" horiz-adv-x="693" d="M497 176H195L133 0H20L278 700H415L673 0H560L497 176ZM228 270H464L346 606L228 270Z"  />
<glyph unicode="B" horiz-adv-x="659" d="M80 700H357Q582 700 582 518Q582 473 562 431T495 362Q619 323 619 189Q619 96 560 48T387 0H80V700ZM186 303V94H412Q460 94 487 121T515 197Q515 248 484 275T402 303H186ZM186 606V397H369Q424 397 451 425T478 502Q478 606 375 606H186Z"  />
<glyph unicode="C" horiz-adv-x="686" d="M411 84Q517 84 580 139L636 56Q590 21 539 5T413 -12Q256 -12 153 89T50 350Q50 508 153 610T413 712Q487 712 538 695T636 644L580 561Q517 616 411 616Q298 616 228 542T157 350Q157 232 229 158T411 84Z"  />
<glyph unicode="D" horiz-adv-x="718" d="M80 700H329Q491 700 579 608T668 350Q668 185 579 93T329 0H80V700ZM184 606V94H335Q441 94 502 161T564 350Q564 470 504 538T335 606H184Z"  />
<glyph unicode="E" horiz-adv-x="615" d="M80 700H548V606H184V397H496V303H184V94H555V0H80V700Z"  />
<glyph unicode="F" horiz-adv-x="562" d="M80 0V700H522V606H184V397H470V303H184V0H80Z"  />
<glyph unicode="G" horiz-adv-x="746" d="M676 83Q623 36 563 12T413 -12Q253 -12 152 88T50 350Q50 508 153 610T413 712Q487 712 538 695T636 644L580 561Q517 616 411 616Q299 616 228 543T156 350Q156 231 229 158T411 84Q507 84 570 131V303H389V397H676V83Z"  />
<glyph unicode="H" horiz-adv-x="718" d="M532 303H186V0H80V700H186V397H532V700H638V0H532V303Z"  />
<glyph unicode="I" horiz-adv-x="284" d="M90 700H194V0H90V700Z"  />
<glyph unicode="J" horiz-adv-x="479" d="M81 132Q136 82 192 82Q249 82 271 109T293 201V700H399V197Q399 88 349 38T193 -12Q97 -12 30 45L81 132Z"  />
<glyph unicode="K" horiz-adv-x="635" d="M80 700H184V418L463 700H597L292 397L625 0H493L221 326L184 289V0H80V700Z"  />
<glyph unicode="L" horiz-adv-x="536" d="M80 700H186V94H496V0H80V700Z"  />
<glyph unicode="M" horiz-adv-x="910" d="M507 0H403L211 503L181 594L184 503V0H80V700H238L455 115L672 700H830V0H726V503L729 594L699 503L507 0Z"  />
<glyph unicode="N" horiz-adv-x="741" d="M181 571L184 495V0H80V700H204L526 190L560 129L557 205V700H661V0H537L218 504L181 571Z"  />
<glyph unicode="O" horiz-adv-x="824" d="M50 350Q50 506 154 609T412 712Q565 712 669 610T774 350Q774 246 728 163T597 34T412 -12Q255 -12 153 89T50 350ZM154 350Q154 232 227 157T412 82Q523 82 596 156T670 350Q670 468 597 543T412 618Q301 618 228 544T154 350Z"  />
<glyph unicode="P" horiz-adv-x="663" d="M184 244V0H80V700H367Q486 700 549 641T613 475Q613 367 548 306T367 244H184ZM184 606V338H371Q440 338 474 375T509 474Q509 538 473 572T371 606H184Z"  />
<glyph unicode="Q" horiz-adv-x="824" d="M50 350Q50 506 154 609T412 712Q565 712 669 610T774 350Q774 187 665 84L751 -14L688 -71L597 34Q514 -12 412 -12Q255 -12 153 89T50 350ZM599 160Q670 233 670 350Q670 468 597 543T412 618Q301 618 228 544T154 350Q154 232 227 157T412 82Q478 82 531 109L452 201L515 257L599 160Z"  />
<glyph unicode="R" horiz-adv-x="669" d="M184 258V0H80V700H358Q612 700 612 481Q612 317 470 273L629 0H509L364 258H184ZM184 606V352H375Q438 352 472 388T507 481Q507 535 473 570T375 606H184Z"  />
<glyph unicode="S" horiz-adv-x="574" d="M434 563Q382 617 301 617Q238 617 208 588T178 516Q178 469 208 442T308 393Q430 353 477 308T524 186Q524 89 462 39T285 -12Q140 -12 50 78L110 155Q182 81 286 81Q355 81 386 107T418 187Q418 231 389 256T275 308Q166 343 121 392T75 517Q75 604 136 658T302 712Q416 712 495 640L434 563Z"  />
<glyph unicode="T" horiz-adv-x="594" d="M40 700H554V606H349V0H245V606H40V700Z"  />
<glyph unicode="U" horiz-adv-x="716" d="M532 700H636V262Q636 132 563 60T358 -12Q227 -12 154 60T80 262V700H184V261Q184 175 230 129T358 82Q440 82 486 128T532 261V700Z"  />
<glyph unicode="V" horiz-adv-x="712" d="M423 0H289L30 700H144L356 96L568 700H682L423 0Z"  />
<glyph unicode="W" horiz-adv-x="1010" d="M353 0H215L40 700H154L284 109L433 700H577L726 109L856 700H970L795 0H657L505 607L353 0Z"  />
<glyph unicode="X" horiz-adv-x="694" d="M414 356L664 0H535L347 283L159 0H30L280 356L40 700H168L347 429L526 700H654L414 356Z"  />
<glyph unicode="Y" horiz-adv-x="678" d="M392 255V0H286V255L30 700H150L339 355L529 700H648L392 255Z"  />
<glyph unicode="Z" horiz-adv-x="652" d="M60 79L447 606H76V700H582V620L191 94H602V0H60V79Z"  />
<glyph unicode="[" horiz-adv-x="434" d="M354 792V727H196V-95H354V-160H110V792H354Z"  />
<glyph unicode="\" horiz-adv-x="503" d="M443 -80H355L60 740H148L443 -80Z"  />
<glyph unicode="]" horiz-adv-x="434" d="M324 792V-160H80V-95H238V727H80V792H324Z"  />
<glyph unicode="^" horiz-adv-x="464" d="M316 477L232 626L147 477H50L185 700H279L414 477H316Z"  />
<glyph unicode="_" horiz-adv-x="540" d="M50 94H490V0H50V94Z"  />
<glyph unicode="`" horiz-adv-x="280" d="M216 565H152L48 712H151L216 565Z"  />
<glyph unicode="a" horiz-adv-x="568" d="M395 73Q340 -12 236 -12Q145 -12 95 31T45 150Q45 224 97 266T240 308Q337 308 395 284V307Q395 367 365 395T259 423Q188 423 130 385L93 466Q167 512 260 512Q380 512 436 464T493 308V0H395V73ZM254 73Q315 73 355 116T395 216Q337 236 251 236Q202 236 173 216T144 155Q144 73 254 73Z"  />
<glyph unicode="b" horiz-adv-x="649" d="M173 250Q173 172 219 125T345 78Q417 78 461 125T506 250Q506 327 461 374T345 422Q266 422 220 374T173 250ZM353 -12Q235 -12 173 69V0H75V736H173V428Q236 512 353 512Q465 512 534 439T604 250Q604 135 534 62T353 -12Z"  />
<glyph unicode="c" horiz-adv-x="543" d="M488 48Q453 18 414 3T313 -12Q192 -12 119 60T45 250Q45 364 120 438T313 512Q372 512 412 497T488 447L435 375Q388 422 314 422Q239 422 193 375T146 250Q146 173 190 126T314 78Q385 78 434 119L488 48Z"  />
<glyph unicode="d" horiz-adv-x="649" d="M476 250Q476 325 430 373T304 422Q234 422 189 375T143 250Q143 173 187 126T304 78Q383 78 429 125T476 250ZM296 -12Q186 -12 116 61T45 250Q45 366 115 439T296 512Q413 512 476 428V736H574V0H476V69Q414 -12 296 -12Z"  />
<glyph unicode="e" horiz-adv-x="596" d="M551 251L549 210H148Q154 142 197 108T310 73Q404 73 464 127L514 54Q472 20 426 4T310 -12Q187 -12 116 58T45 250Q45 365 116 438T301 512Q421 512 486 443T551 251ZM303 426Q237 426 196 390T148 290H451Q439 426 303 426Z"  />
<glyph unicode="f" horiz-adv-x="385" d="M108 500V594Q108 748 263 748Q322 748 360 725L325 645Q299 662 265 662Q206 662 206 596V500H323V415H206V0H108V415H35V500H108Z"  />
<glyph unicode="g" horiz-adv-x="649" d="M144 256Q144 176 189 132T311 88Q383 88 429 134T476 256Q476 330 429 376T310 422Q233 422 189 377T144 256ZM297 512Q415 512 476 426V500H574V13Q574 -95 506 -153T311 -212Q185 -212 102 -164L137 -81Q213 -127 308 -127Q388 -127 432 -92T476 14V84Q415 0 296 0Q185 0 115 69T45 256Q45 370 116 441T297 512Z"  />
<glyph unicode="h" horiz-adv-x="593" d="M425 313Q425 367 403 394T323 422Q261 422 217 378T173 272V0H75V736H173V419Q199 461 243 486T342 512Q434 512 478 465T523 318V0H425V313Z"  />
<glyph unicode="i" horiz-adv-x="248" d="M75 500H173V0H75V500ZM73 681H175V579H73V681Z"  />
<glyph unicode="j" horiz-adv-x="248" d="M173 -58Q173 -212 18 -212Q-41 -212 -79 -189L-44 -109Q-18 -126 16 -126Q75 -126 75 -60V500H173V-58ZM73 681H175V579H73V681Z"  />
<glyph unicode="k" horiz-adv-x="525" d="M210 219L173 182V0H75V736H173V300L364 500H488L274 284L510 0H390L210 219Z"  />
<glyph unicode="l" horiz-adv-x="248" d="M75 736H173V0H75V736Z"  />
<glyph unicode="m" horiz-adv-x="883" d="M715 330Q715 377 694 401T620 426Q568 426 531 390T493 300V0H395V330Q395 377 374 401T300 426Q248 426 211 390T173 300V0H75V500H173V424Q226 512 329 512Q445 512 479 424Q536 512 649 512Q730 512 771 471T813 338V0H715V330Z"  />
<glyph unicode="n" horiz-adv-x="593" d="M425 313Q425 367 403 394T323 422Q261 422 217 378T173 272V0H75V500H173V419Q199 461 243 486T342 512Q434 512 478 465T523 318V0H425V313Z"  />
<glyph unicode="o" horiz-adv-x="600" d="M133 250Q133 174 177 126T300 78Q379 78 423 126T467 250Q467 327 422 374T300 422Q224 422 179 374T133 250ZM35 250Q35 366 109 439T300 512Q417 512 491 439T565 250Q565 132 491 60T300 -12Q184 -12 110 60T35 250Z"  />
<glyph unicode="p" horiz-adv-x="649" d="M173 250Q173 172 219 125T345 78Q417 78 461 125T506 250Q506 327 461 374T345 422Q266 422 220 374T173 250ZM353 -12Q235 -12 173 69V-200H75V500H173V428Q236 512 353 512Q465 512 534 439T604 250Q604 135 534 62T353 -12Z"  />
<glyph unicode="q" horiz-adv-x="649" d="M476 250Q476 325 430 373T304 422Q234 422 189 375T143 250Q143 173 187 126T304 78Q383 78 429 125T476 250ZM296 -12Q186 -12 116 61T45 250Q45 366 115 439T296 512Q413 512 476 428V500H574V-200H476V69Q414 -12 296 -12Z"  />
<glyph unicode="r" horiz-adv-x="379" d="M344 412Q324 418 292 418Q241 418 207 384T173 280V0H75V500H173V417Q219 512 310 512Q335 512 344 509V412Z"  />
<glyph unicode="s" horiz-adv-x="469" d="M99 129Q154 74 238 74Q325 74 325 136Q325 160 302 176T227 209Q142 234 102 270T62 368Q62 430 111 471T242 512Q334 512 399 459L345 385Q301 425 242 425Q197 425 178 406T159 364Q159 335 179 320T252 289Q347 259 385 225T424 135Q424 64 377 26T237 -12Q126 -12 45 57L99 129Z"  />
<glyph unicode="t" horiz-adv-x="401" d="M30 415V500H105V640H203V500H330V415H203V149Q203 74 272 74Q305 74 332 92L366 11Q328 -12 269 -12Q105 -12 105 149V415H30Z"  />
<glyph unicode="u" horiz-adv-x="598" d="M173 187Q173 133 195 106T275 78Q337 78 381 122T425 228V500H523V0H425V81Q399 39 355 14T256 -12Q164 -12 120 35T75 182V500H173V187Z"  />
<glyph unicode="v" horiz-adv-x="552" d="M333 0H219L15 500H124L276 102L428 500H537L333 0Z"  />
<glyph unicode="w" horiz-adv-x="844" d="M422 413L315 0H183L40 500H146L250 91L360 500H484L594 91L698 500H804L661 0H529L422 413Z"  />
<glyph unicode="x" horiz-adv-x="542" d="M330 260L527 0H410L271 193L132 0H15L212 260L31 500H147L271 326L395 500H511L330 260Z"  />
<glyph unicode="y" horiz-adv-x="562" d="M235 -14L25 500H134L286 104L438 500H547L313 -74Q278 -157 241 -184T139 -212Q88 -212 49 -189L84 -105Q109 -123 137 -123Q166 -123 185 -106T235 -14Z"  />
<glyph unicode="z" horiz-adv-x="514" d="M45 69L331 415H59V500H454V431L169 85H469V0H45V69Z"  />
<glyph unicode="{" horiz-adv-x="508" d="M271 432Q271 335 203 316Q271 296 271 200V-38Q271 -95 331 -95H428V-160H299Q246 -160 215 -131T184 -49V227Q184 284 127 284H70V348H127Q184 348 184 405V681Q184 734 215 763T299 792H428V727H331Q271 727 271 670V432Z"  />
<glyph unicode="|" horiz-adv-x="307" d="M110 792H197V-160H110V792Z"  />
<glyph unicode="}" horiz-adv-x="508" d="M237 670Q237 727 177 727H80V792H209Q262 792 293 763T324 681V405Q324 348 381 348H438V284H381Q324 284 324 227V-49Q324 -102 293 -131T209 -160H80V-95H177Q237 -95 237 -38V200Q237 296 305 316Q237 335 237 432V670Z"  />
<glyph unicode="~" horiz-adv-x="586" d="M398 526Q335 526 285 577Q234 627 195 627Q158 627 147 605T135 538H60V585Q60 712 185 712Q227 712 253 696T301 662T342 627T391 611Q428 611 439 633T451 700H526V653Q526 526 398 526Z"  />
<glyph unicode="&#xA0;" horiz-adv-x="125" />
<glyph unicode="&#xA1;" horiz-adv-x="316" d="M124 296H192L222 -200H94L124 296ZM96 500H220V376H96V500Z"  />
<glyph unicode="&#xA2;" horiz-adv-x="589" d="M296 -12V90Q196 102 133 171T70 350Q70 451 134 523T296 609V712H363V611Q449 606 519 549L460 475Q416 516 363 520V179Q422 185 462 219L517 146Q456 93 363 88V-12H296ZM171 350Q171 283 204 239T296 182V517Q237 504 204 459T171 350Z"  />
<glyph unicode="&#xA3;" horiz-adv-x="674" d="M267 288Q274 258 274 238Q274 141 203 90Q228 97 263 97Q299 97 337 89T411 81Q465 81 483 100T502 168H604Q604 77 561 33T426 -12Q383 -12 328 3Q273 18 213 18Q143 18 80 1V87Q135 95 164 133T193 223Q193 253 180 288H70V354H149Q108 436 108 505Q108 595 170 653T331 712Q451 712 529 636L468 559Q410 617 331 617Q274 617 243 586T211 492Q211 455 222 421T245 354H415V288H267Z"  />
<glyph unicode="&#xA4;" horiz-adv-x="718" d="M191 350Q191 281 240 232T359 182Q428 182 477 231T527 350Q527 419 478 468T359 518Q290 518 241 469T191 350ZM564 497Q611 429 611 350Q611 269 564 203L648 119L590 61L506 145Q441 98 359 98Q275 98 212 145L128 61L70 119L154 203Q107 266 107 350Q107 432 154 497L70 581L128 639L212 555Q278 602 359 602Q438 602 506 555L590 639L648 581L564 497Z"  />
<glyph unicode="&#xA5;" horiz-adv-x="780" d="M140 294H317L60 700H181L390 350L600 700H720L463 294H640V232H442V153H640V91H442V0H338V91H140V153H338V232H140V294Z"  />
<glyph unicode="&#xA6;" horiz-adv-x="307" d="M110 792H197V385H110V792ZM110 247H197V-160H110V247Z"  />
<glyph unicode="&#xA7;" horiz-adv-x="622" d="M301 -173Q185 -173 107 -102L162 -25Q223 -82 303 -82Q368 -82 394 -58T420 0Q420 36 395 57T293 100Q173 136 127 176T80 289Q80 370 157 418Q99 462 99 542Q99 620 157 666T321 712Q437 712 515 641L460 564Q399 621 319 621Q254 621 228 597T202 539Q202 503 227 482T329 439Q449 403 495 363T542 250Q542 170 464 121Q523 76 523 -3Q523 -81 465 -127T301 -173ZM233 378Q180 351 180 291Q180 255 213 231T327 182L389 161Q442 188 442 248Q442 285 407 310T295 357L233 378Z"  />
<glyph unicode="&#xA8;" horiz-adv-x="439" d="M73 681H175V579H73V681ZM263 681H365V579H263V681Z"  />
<glyph unicode="&#xA9;" horiz-adv-x="880" d="M60 350Q60 452 111 540T250 679T440 730Q542 730 630 679T769 540T820 350Q820 248 769 160T630 21T440 -30Q338 -30 250 21T111 160T60 350ZM120 350Q120 264 162 190T279 73T440 30Q573 30 666 124T760 350Q760 481 665 575T440 670Q309 670 215 577T120 350ZM450 226Q492 226 524 251L557 203Q512 169 450 169Q370 169 319 220T268 350Q268 427 318 479T448 531Q510 531 555 497L523 448Q493 474 448 474Q395 474 363 439T330 350Q330 292 364 259T450 226Z"  />
<glyph unicode="&#xAA;" horiz-adv-x="466" d="M322 383Q281 319 203 319Q134 319 97 351T60 441Q60 496 99 527T206 559Q281 559 322 541V559Q322 604 300 625T220 646Q167 646 124 617L96 678Q152 712 221 712Q311 712 353 676T396 559V328H322V383ZM217 383Q285 383 322 439V490Q277 505 214 505Q169 505 152 487T134 445Q134 383 217 383Z"  />
<glyph unicode="&#xAB;" horiz-adv-x="586" d="M191 50L70 250L191 450H294L172 250L294 50H191ZM413 50L292 250L413 450H516L394 250L516 50H413Z"  />
<glyph unicode="&#xAC;" horiz-adv-x="586" d="M516 330V67H436V250H70V330H516Z"  />
<glyph unicode="&#xAD;" horiz-adv-x="435" d="M70 313H365V227H70V313Z"  />
<glyph unicode="&#xAE;" horiz-adv-x="880" d="M60 350Q60 452 111 540T250 679T440 730Q542 730 630 679T769 540T820 350Q820 248 769 160T630 21T440 -30Q338 -30 250 21T111 160T60 350ZM120 350Q120 264 162 190T279 73T440 30Q573 30 666 124T760 350Q760 481 665 575T440 670Q309 670 215 577T120 350ZM454 298H374V175H312V525H454Q580 525 580 412Q580 331 515 307L589 175H520L454 298ZM374 468V355H455Q518 355 518 412Q518 468 455 468H374Z"  />
<glyph unicode="&#xAF;" horiz-adv-x="396" d="M40 654H356V586H40V654Z"  />
<glyph unicode="&#xB0;" horiz-adv-x="439" d="M70 562Q70 626 114 669T219 712Q281 712 325 668T369 562Q369 503 327 458T219 413Q157 413 114 456T70 562ZM132 562Q132 525 157 500T219 475Q256 475 281 500T307 562Q307 599 282 624T219 650Q182 650 157 625T132 562Z"  />
<glyph unicode="&#xB1;" horiz-adv-x="586" d="M70 410H253V593H333V410H516V330H333V147H253V330H70V410ZM70 0V80H516V0H70Z"  />
<glyph unicode="&#xB4;" horiz-adv-x="280" d="M115 712H218L114 565H50L115 712Z"  />
<glyph unicode="&#xB5;" horiz-adv-x="608" d="M430 500H528V182Q528 82 484 35T347 -12Q292 -12 248 13T178 81V-160H80V500H178V228Q178 166 222 122T328 78Q385 78 407 105T430 187V500Z"  />
<glyph unicode="&#xB6;" horiz-adv-x="742" d="M538 606H452V-200H348V226H307Q195 226 128 289T60 463Q60 575 127 637T307 700H642V-200H538V606Z"  />
<glyph unicode="&#xB7;" horiz-adv-x="296" d="M91 337H205V223H91V337Z"  />
<glyph unicode="&#xB8;" horiz-adv-x="300" d="M178 -116Q178 -76 111 -74L138 0H191L177 -38Q253 -57 253 -123Q253 -167 221 -191T130 -216Q75 -216 47 -200L68 -145Q92 -156 121 -156Q178 -156 178 -116Z"  />
<glyph unicode="&#xBA;" horiz-adv-x="518" d="M134 516Q134 459 166 423T259 387Q319 387 351 423T384 516Q384 571 352 608T259 645Q199 645 167 608T134 516ZM60 516Q60 600 114 656T259 712Q349 712 403 656T458 516Q458 429 403 374T259 319Q170 319 115 373T60 516Z"  />
<glyph unicode="&#xBB;" horiz-adv-x="586" d="M292 50L414 250L292 450H395L516 250L395 50H292ZM70 50L192 250L70 450H173L294 250L173 50H70Z"  />
<glyph unicode="&#xBF;" horiz-adv-x="586" d="M337 297Q348 257 348 228Q348 150 276 106Q207 65 187 42T166 -13Q166 -117 296 -117Q397 -117 465 -45L526 -119Q435 -212 297 -212Q186 -212 123 -160T60 -16Q60 36 87 73T169 142Q267 196 267 278L266 297H337ZM238 500H362V376H238V500Z"  />
<glyph unicode="&#xC0;" horiz-adv-x="693" d="M497 176H195L133 0H20L278 700H415L673 0H560L497 176ZM228 270H464L346 606L228 270ZM440 765H376L272 912H375L440 765Z"  />
<glyph unicode="&#xC1;" horiz-adv-x="693" d="M497 176H195L133 0H20L278 700H415L673 0H560L497 176ZM228 270H464L346 606L228 270ZM384 912H487L383 765H319L384 912Z"  />
<glyph unicode="&#xC2;" horiz-adv-x="693" d="M497 176H195L133 0H20L278 700H415L673 0H560L497 176ZM228 270H464L346 606L228 270ZM404 912L489 765H425L356 851L287 765H223L308 912H404Z"  />
<glyph unicode="&#xC3;" horiz-adv-x="693" d="M497 176H195L133 0H20L278 700H415L673 0H560L497 176ZM228 270H464L346 606L228 270ZM442 770Q410 770 390 781T353 805T320 830T281 841Q237 841 237 781H175V812Q175 911 270 911Q302 911 322 900T359 876T392 851T431 840Q475 840 475 900H537V869Q537 770 442 770Z"  />
<glyph unicode="&#xC4;" horiz-adv-x="693" d="M497 176H195L133 0H20L278 700H415L673 0H560L497 176ZM228 270H464L346 606L228 270ZM210 881H312V779H210V881ZM400 881H502V779H400V881Z"  />
<glyph unicode="&#xC5;" horiz-adv-x="693" d="M497 176H195L133 0H20L278 700H415L673 0H560L497 176ZM228 270H464L346 606L228 270ZM254 847Q254 889 283 919T356 950Q399 950 429 921T459 847Q459 803 429 774T356 745Q313 745 284 774T254 847ZM314 847Q314 829 326 817T356 805Q374 805 386 817T399 847Q399 865 387 877T356 890Q338 890 326 878T314 847Z"  />
<glyph unicode="&#xC6;" horiz-adv-x="1044" d="M509 0V176H246L139 0H20L458 700H977V606H613V397H925V303H613V94H984V0H509ZM304 270H509V606L304 270Z"  />
<glyph unicode="&#xC7;" horiz-adv-x="686" d="M411 -116Q411 -76 344 -74L367 -9Q225 5 138 104T50 350Q50 508 153 610T413 712Q487 712 538 695T636 644L580 561Q517 616 411 616Q298 616 228 542T157 350Q157 232 229 158T411 84Q517 84 580 139L636 56Q591 22 541 6T419 -12L410 -38Q486 -57 486 -123Q486 -167 454 -191T363 -216Q308 -216 280 -200L301 -145Q325 -156 354 -156Q411 -156 411 -116Z"  />
<glyph unicode="&#xC8;" horiz-adv-x="615" d="M80 700H548V606H184V397H496V303H184V94H555V0H80V700ZM391 765H327L223 912H326L391 765Z"  />
<glyph unicode="&#xC9;" horiz-adv-x="615" d="M80 700H548V606H184V397H496V303H184V94H555V0H80V700ZM351 912H454L350 765H286L351 912Z"  />
<glyph unicode="&#xCA;" horiz-adv-x="615" d="M80 700H548V606H184V397H496V303H184V94H555V0H80V700ZM365 912L450 765H386L317 851L248 765H184L269 912H365Z"  />
<glyph unicode="&#xCB;" horiz-adv-x="615" d="M80 700H548V606H184V397H496V303H184V94H555V0H80V700ZM171 881H273V779H171V881ZM361 881H463V779H361V881Z"  />
<glyph unicode="&#xCC;" horiz-adv-x="284" d="M90 700H194V0H90V700ZM226 765H162L58 912H161L226 765Z"  />
<glyph unicode="&#xCD;" horiz-adv-x="284" d="M90 700H194V0H90V700ZM176 912H279L175 765H111L176 912Z"  />
<glyph unicode="&#xCE;" horiz-adv-x="284" d="M90 700H194V0H90V700ZM191 912L276 765H212L143 851L74 765H10L95 912H191Z"  />
<glyph unicode="&#xCF;" horiz-adv-x="284" d="M90 700H194V0H90V700ZM-3 881H99V779H-3V881ZM187 881H289V779H187V881Z"  />
<glyph unicode="&#xD0;" horiz-adv-x="708" d="M8 394H75V700H324Q486 700 574 608T663 350Q663 185 574 93T324 0H75V308H8V394ZM179 606V394H303V308H179V94H330Q436 94 497 161T559 350Q559 470 499 538T330 606H179Z"  />
<glyph unicode="&#xD1;" horiz-adv-x="741" d="M181 571L184 495V0H80V700H204L526 190L560 129L557 205V700H661V0H537L218 504L181 571ZM449 770Q417 770 397 781T360 805T327 830T288 841Q244 841 244 781H182V812Q182 911 277 911Q309 911 329 900T366 876T399 851T438 840Q482 840 482 900H544V869Q544 770 449 770Z"  />
<glyph unicode="&#xD2;" horiz-adv-x="824" d="M50 350Q50 506 154 609T412 712Q565 712 669 610T774 350Q774 246 728 163T597 34T412 -12Q255 -12 153 89T50 350ZM154 350Q154 232 227 157T412 82Q523 82 596 156T670 350Q670 468 597 543T412 618Q301 618 228 544T154 350ZM496 765H432L328 912H431L496 765Z"  />
<glyph unicode="&#xD3;" horiz-adv-x="824" d="M50 350Q50 506 154 609T412 712Q565 712 669 610T774 350Q774 246 728 163T597 34T412 -12Q255 -12 153 89T50 350ZM154 350Q154 232 227 157T412 82Q523 82 596 156T670 350Q670 468 597 543T412 618Q301 618 228 544T154 350ZM441 912H544L440 765H376L441 912Z"  />
<glyph unicode="&#xD4;" horiz-adv-x="824" d="M50 350Q50 506 154 609T412 712Q565 712 669 610T774 350Q774 246 728 163T597 34T412 -12Q255 -12 153 89T50 350ZM154 350Q154 232 227 157T412 82Q523 82 596 156T670 350Q670 468 597 543T412 618Q301 618 228 544T154 350ZM460 912L545 765H481L412 851L343 765H279L364 912H460Z"  />
<glyph unicode="&#xD5;" horiz-adv-x="824" d="M50 350Q50 506 154 609T412 712Q565 712 669 610T774 350Q774 246 728 163T597 34T412 -12Q255 -12 153 89T50 350ZM154 350Q154 232 227 157T412 82Q523 82 596 156T670 350Q670 468 597 543T412 618Q301 618 228 544T154 350ZM498 770Q466 770 446 781T409 805T376 830T337 841Q293 841 293 781H231V812Q231 911 326 911Q358 911 378 900T415 876T448 851T487 840Q531 840 531 900H593V869Q593 770 498 770Z"  />
<glyph unicode="&#xD6;" horiz-adv-x="824" d="M50 350Q50 506 154 609T412 712Q565 712 669 610T774 350Q774 246 728 163T597 34T412 -12Q255 -12 153 89T50 350ZM154 350Q154 232 227 157T412 82Q523 82 596 156T670 350Q670 468 597 543T412 618Q301 618 228 544T154 350ZM265 881H367V779H265V881ZM455 881H557V779H455V881Z"  />
<glyph unicode="&#xD7;" horiz-adv-x="552" d="M70 141L219 290L70 439L127 496L276 347L425 496L482 439L333 290L482 141L425 84L276 233L127 84L70 141Z"  />
<glyph unicode="&#xD8;" horiz-adv-x="824" d="M50 350Q50 506 154 609T412 712Q504 712 586 670L632 740H707L639 637Q702 589 738 515T774 350Q774 246 728 163T597 34T412 -12Q315 -12 236 29L191 -40H116L183 62Q121 110 86 183T50 350ZM670 350Q670 481 585 555L290 110Q344 82 412 82Q523 82 596 156T670 350ZM154 350Q154 220 239 145L533 590Q477 618 412 618Q301 618 228 544T154 350Z"  />
<glyph unicode="&#xD9;" horiz-adv-x="716" d="M532 700H636V262Q636 132 563 60T358 -12Q227 -12 154 60T80 262V700H184V261Q184 175 230 129T358 82Q440 82 486 128T532 261V700ZM428 765H364L260 912H363L428 765Z"  />
<glyph unicode="&#xDA;" horiz-adv-x="716" d="M532 700H636V262Q636 132 563 60T358 -12Q227 -12 154 60T80 262V700H184V261Q184 175 230 129T358 82Q440 82 486 128T532 261V700ZM385 912H488L384 765H320L385 912Z"  />
<glyph unicode="&#xDB;" horiz-adv-x="716" d="M532 700H636V262Q636 132 563 60T358 -12Q227 -12 154 60T80 262V700H184V261Q184 175 230 129T358 82Q440 82 486 128T532 261V700ZM406 912L491 765H427L358 851L289 765H225L310 912H406Z"  />
<glyph unicode="&#xDC;" horiz-adv-x="716" d="M532 700H636V262Q636 132 563 60T358 -12Q227 -12 154 60T80 262V700H184V261Q184 175 230 129T358 82Q440 82 486 128T532 261V700ZM211 881H313V779H211V881ZM401 881H503V779H401V881Z"  />
<glyph unicode="&#xDD;" horiz-adv-x="678" d="M392 255V0H286V255L30 700H150L339 355L529 700H648L392 255ZM363 912H466L362 765H298L363 912Z"  />
<glyph unicode="&#xDE;" horiz-adv-x="658" d="M184 122V0H80V700H184V578H360Q477 578 542 520T608 351Q608 242 542 182T360 122H184ZM184 484V216H359Q504 216 504 350Q504 484 359 484H184Z"  />
<glyph unicode="&#xDF;" d="M234 407H273Q332 407 361 438T390 514Q390 622 284 622Q173 622 173 497V0H75V501Q75 600 129 656T282 712Q375 712 431 667T487 528Q487 477 458 436T379 374Q537 331 537 180Q537 89 483 39T325 -12Q253 -12 213 5L241 93Q267 77 315 77Q381 77 410 106T440 196Q440 254 395 289T270 325H234V407Z"  />
<glyph unicode="&#xE0;" horiz-adv-x="568" d="M395 73Q340 -12 236 -12Q145 -12 95 31T45 150Q45 224 97 266T240 308Q337 308 395 284V307Q395 367 365 395T259 423Q188 423 130 385L93 466Q167 512 260 512Q380 512 436 464T493 308V0H395V73ZM254 73Q315 73 355 116T395 216Q337 236 251 236Q202 236 173 216T144 155Q144 73 254 73ZM331 565H267L163 712H266L331 565Z"  />
<glyph unicode="&#xE1;" horiz-adv-x="568" d="M395 73Q340 -12 236 -12Q145 -12 95 31T45 150Q45 224 97 266T240 308Q337 308 395 284V307Q395 367 365 395T259 423Q188 423 130 385L93 466Q167 512 260 512Q380 512 436 464T493 308V0H395V73ZM254 73Q315 73 355 116T395 216Q337 236 251 236Q202 236 173 216T144 155Q144 73 254 73ZM294 712H397L293 565H229L294 712Z"  />
<glyph unicode="&#xE2;" horiz-adv-x="568" d="M395 73Q340 -12 236 -12Q145 -12 95 31T45 150Q45 224 97 266T240 308Q337 308 395 284V307Q395 367 365 395T259 423Q188 423 130 385L93 466Q167 512 260 512Q380 512 436 464T493 308V0H395V73ZM254 73Q315 73 355 116T395 216Q337 236 251 236Q202 236 173 216T144 155Q144 73 254 73ZM322 712L407 565H343L274 651L205 565H141L226 712H322Z"  />
<glyph unicode="&#xE3;" horiz-adv-x="568" d="M395 73Q340 -12 236 -12Q145 -12 95 31T45 150Q45 224 97 266T240 308Q337 308 395 284V307Q395 367 365 395T259 423Q188 423 130 385L93 466Q167 512 260 512Q380 512 436 464T493 308V0H395V73ZM254 73Q315 73 355 116T395 216Q337 236 251 236Q202 236 173 216T144 155Q144 73 254 73ZM360 570Q328 570 308 581T271 605T238 630T199 641Q155 641 155 581H93V612Q93 711 188 711Q220 711 240 700T277 676T310 651T349 640Q393 640 393 700H455V669Q455 570 360 570Z"  />
<glyph unicode="&#xE4;" horiz-adv-x="568" d="M395 73Q340 -12 236 -12Q145 -12 95 31T45 150Q45 224 97 266T240 308Q337 308 395 284V307Q395 367 365 395T259 423Q188 423 130 385L93 466Q167 512 260 512Q380 512 436 464T493 308V0H395V73ZM254 73Q315 73 355 116T395 216Q337 236 251 236Q202 236 173 216T144 155Q144 73 254 73ZM127 681H229V579H127V681ZM317 681H419V579H317V681Z"  />
<glyph unicode="&#xE5;" horiz-adv-x="568" d="M395 73Q340 -12 236 -12Q145 -12 95 31T45 150Q45 224 97 266T240 308Q337 308 395 284V307Q395 367 365 395T259 423Q188 423 130 385L93 466Q167 512 260 512Q380 512 436 464T493 308V0H395V73ZM254 73Q315 73 355 116T395 216Q337 236 251 236Q202 236 173 216T144 155Q144 73 254 73ZM171 647Q171 689 200 719T273 750Q316 750 346 721T376 647Q376 603 346 574T273 545Q230 545 201 574T171 647ZM231 647Q231 629 243 617T273 605Q291 605 303 617T316 647Q316 665 304 677T273 690Q255 690 243 678T231 647Z"  />
<glyph unicode="&#xE6;" horiz-adv-x="955" d="M910 251L908 210H507Q513 142 556 108T669 73Q763 73 823 127L873 54Q831 20 785 4T669 -12Q523 -12 458 85Q391 -12 247 -12Q147 -12 96 32T45 154Q45 232 97 275T244 318Q318 318 412 284V300Q412 368 375 397T262 426Q233 426 195 417T127 390L93 466Q172 512 264 512Q420 512 472 429Q540 512 660 512Q780 512 845 443T910 251ZM412 213Q340 235 312 239T258 243Q207 243 176 222T144 156Q144 115 173 95T254 74Q323 74 365 109T412 213ZM662 426Q596 426 555 390T507 290H810Q798 426 662 426Z"  />
<glyph unicode="&#xE7;" horiz-adv-x="543" d="M314 -116Q314 -76 247 -74L270 -9Q166 3 106 73T45 250Q45 364 120 438T313 512Q372 512 412 497T488 447L435 375Q388 422 314 422Q239 422 193 375T146 250Q146 173 190 126T314 78Q385 78 434 119L488 48Q455 19 417 5T322 -12L313 -38Q389 -57 389 -123Q389 -167 357 -191T266 -216Q211 -216 183 -200L204 -145Q228 -156 257 -156Q314 -156 314 -116Z"  />
<glyph unicode="&#xE8;" horiz-adv-x="596" d="M551 251L549 210H148Q154 142 197 108T310 73Q404 73 464 127L514 54Q472 20 426 4T310 -12Q187 -12 116 58T45 250Q45 365 116 438T301 512Q421 512 486 443T551 251ZM303 426Q237 426 196 390T148 290H451Q439 426 303 426ZM377 565H313L209 712H312L377 565Z"  />
<glyph unicode="&#xE9;" horiz-adv-x="596" d="M551 251L549 210H148Q154 142 197 108T310 73Q404 73 464 127L514 54Q472 20 426 4T310 -12Q187 -12 116 58T45 250Q45 365 116 438T301 512Q421 512 486 443T551 251ZM303 426Q237 426 196 390T148 290H451Q439 426 303 426ZM328 712H431L327 565H263L328 712Z"  />
<glyph unicode="&#xEA;" horiz-adv-x="596" d="M551 251L549 210H148Q154 142 197 108T310 73Q404 73 464 127L514 54Q472 20 426 4T310 -12Q187 -12 116 58T45 250Q45 365 116 438T301 512Q421 512 486 443T551 251ZM303 426Q237 426 196 390T148 290H451Q439 426 303 426ZM346 712L431 565H367L298 651L229 565H165L250 712H346Z"  />
<glyph unicode="&#xEB;" horiz-adv-x="596" d="M551 251L549 210H148Q154 142 197 108T310 73Q404 73 464 127L514 54Q472 20 426 4T310 -12Q187 -12 116 58T45 250Q45 365 116 438T301 512Q421 512 486 443T551 251ZM303 426Q237 426 196 390T148 290H451Q439 426 303 426ZM153 681H255V579H153V681ZM343 681H445V579H343V681Z"  />
<glyph unicode="&#xEC;" horiz-adv-x="260" d="M80 500H180V0H80V500ZM215 565H151L47 712H150L215 565Z"  />
<glyph unicode="&#xED;" horiz-adv-x="260" d="M80 500H180V0H80V500ZM164 712H267L163 565H99L164 712Z"  />
<glyph unicode="&#xEE;" horiz-adv-x="260" d="M80 500H180V0H80V500ZM179 712L264 565H200L131 651L62 565H-2L83 712H179Z"  />
<glyph unicode="&#xEF;" horiz-adv-x="260" d="M80 500H180V0H80V500ZM-15 681H87V579H-15V681ZM175 681H277V579H175V681Z"  />
<glyph unicode="&#xF0;" horiz-adv-x="612" d="M499 604Q567 505 567 337Q567 168 501 78T299 -12Q186 -12 116 54T45 229Q45 334 109 395T283 456Q408 456 466 367Q466 474 425 541L365 490L330 530L391 581Q348 618 288 618H275L262 617L246 710L287 712Q393 712 465 644L527 696L561 656L499 604ZM300 83Q368 83 409 122T450 229Q450 292 411 333T300 375Q225 375 187 334T149 229Q149 163 190 123T300 83Z"  />
<glyph unicode="&#xF1;" horiz-adv-x="593" d="M425 313Q425 367 403 394T323 422Q261 422 217 378T173 272V0H75V500H173V419Q199 461 243 486T342 512Q434 512 478 465T523 318V0H425V313ZM382 570Q350 570 330 581T293 605T260 630T221 641Q177 641 177 581H115V612Q115 711 210 711Q242 711 262 700T299 676T332 651T371 640Q415 640 415 700H477V669Q477 570 382 570Z"  />
<glyph unicode="&#xF2;" horiz-adv-x="600" d="M133 250Q133 174 177 126T300 78Q379 78 423 126T467 250Q467 327 422 374T300 422Q224 422 179 374T133 250ZM35 250Q35 366 109 439T300 512Q417 512 491 439T565 250Q565 132 491 60T300 -12Q184 -12 110 60T35 250ZM389 565H325L221 712H324L389 565Z"  />
<glyph unicode="&#xF3;" horiz-adv-x="600" d="M133 250Q133 174 177 126T300 78Q379 78 423 126T467 250Q467 327 422 374T300 422Q224 422 179 374T133 250ZM35 250Q35 366 109 439T300 512Q417 512 491 439T565 250Q565 132 491 60T300 -12Q184 -12 110 60T35 250ZM339 712H442L338 565H274L339 712Z"  />
<glyph unicode="&#xF4;" horiz-adv-x="600" d="M133 250Q133 174 177 126T300 78Q379 78 423 126T467 250Q467 327 422 374T300 422Q224 422 179 374T133 250ZM35 250Q35 366 109 439T300 512Q417 512 491 439T565 250Q565 132 491 60T300 -12Q184 -12 110 60T35 250ZM353 712L438 565H374L305 651L236 565H172L257 712H353Z"  />
<glyph unicode="&#xF5;" horiz-adv-x="600" d="M133 250Q133 174 177 126T300 78Q379 78 423 126T467 250Q467 327 422 374T300 422Q224 422 179 374T133 250ZM35 250Q35 366 109 439T300 512Q417 512 491 439T565 250Q565 132 491 60T300 -12Q184 -12 110 60T35 250ZM391 570Q359 570 339 581T302 605T269 630T230 641Q186 641 186 581H124V612Q124 711 219 711Q251 711 271 700T308 676T341 651T380 640Q424 640 424 700H486V669Q486 570 391 570Z"  />
<glyph unicode="&#xF6;" horiz-adv-x="600" d="M133 250Q133 174 177 126T300 78Q379 78 423 126T467 250Q467 327 422 374T300 422Q224 422 179 374T133 250ZM35 250Q35 366 109 439T300 512Q417 512 491 439T565 250Q565 132 491 60T300 -12Q184 -12 110 60T35 250ZM158 681H260V579H158V681ZM348 681H450V579H348V681Z"  />
<glyph unicode="&#xF7;" horiz-adv-x="586" d="M70 250V330H516V250H70ZM242 509H344V407H242V509ZM242 173H344V71H242V173Z"  />
<glyph unicode="&#xF8;" horiz-adv-x="600" d="M35 250Q35 366 109 439T300 512Q368 512 424 485L460 540H525L470 457Q565 383 565 250Q565 132 491 60T300 -12Q231 -12 176 14L140 -40H75L129 42Q35 115 35 250ZM133 250Q133 167 182 121L372 408Q339 422 300 422Q224 422 179 374T133 250ZM467 250Q467 330 417 378L227 91Q257 78 300 78Q379 78 423 126T467 250Z"  />
<glyph unicode="&#xF9;" horiz-adv-x="598" d="M173 187Q173 133 195 106T275 78Q337 78 381 122T425 228V500H523V0H425V81Q399 39 355 14T256 -12Q164 -12 120 35T75 182V500H173V187ZM358 565H294L190 712H293L358 565Z"  />
<glyph unicode="&#xFA;" horiz-adv-x="598" d="M173 187Q173 133 195 106T275 78Q337 78 381 122T425 228V500H523V0H425V81Q399 39 355 14T256 -12Q164 -12 120 35T75 182V500H173V187ZM324 712H427L323 565H259L324 712Z"  />
<glyph unicode="&#xFB;" horiz-adv-x="598" d="M173 187Q173 133 195 106T275 78Q337 78 381 122T425 228V500H523V0H425V81Q399 39 355 14T256 -12Q164 -12 120 35T75 182V500H173V187ZM342 712L427 565H363L294 651L225 565H161L246 712H342Z"  />
<glyph unicode="&#xFC;" horiz-adv-x="598" d="M173 187Q173 133 195 106T275 78Q337 78 381 122T425 228V500H523V0H425V81Q399 39 355 14T256 -12Q164 -12 120 35T75 182V500H173V187ZM147 681H249V579H147V681ZM337 681H439V579H337V681Z"  />
<glyph unicode="&#xFD;" horiz-adv-x="562" d="M235 -14L25 500H134L286 104L438 500H547L313 -74Q278 -157 241 -184T139 -212Q88 -212 49 -189L84 -105Q109 -123 137 -123Q166 -123 185 -106T235 -14ZM324 712H427L323 565H259L324 712Z"  />
<glyph unicode="&#xFE;" horiz-adv-x="649" d="M173 250Q173 172 219 125T345 78Q417 78 461 125T506 250Q506 327 461 374T345 422Q266 422 220 374T173 250ZM353 -12Q235 -12 173 69V-200H75V736H173V428Q236 512 353 512Q465 512 534 439T604 250Q604 135 534 62T353 -12Z"  />
<glyph unicode="&#xFF;" horiz-adv-x="562" d="M235 -14L25 500H134L286 104L438 500H547L313 -74Q278 -157 241 -184T139 -212Q88 -212 49 -189L84 -105Q109 -123 137 -123Q166 -123 185 -106T235 -14ZM149 681H251V579H149V681ZM339 681H441V579H339V681Z"  />
<glyph unicode="&#x100;" horiz-adv-x="693" d="M497 176H195L133 0H20L278 700H415L673 0H560L497 176ZM228 270H464L346 606L228 270ZM198 854H514V786H198V854Z"  />
<glyph unicode="&#x101;" horiz-adv-x="568" d="M395 73Q340 -12 236 -12Q145 -12 95 31T45 150Q45 224 97 266T240 308Q337 308 395 284V307Q395 367 365 395T259 423Q188 423 130 385L93 466Q167 512 260 512Q380 512 436 464T493 308V0H395V73ZM254 73Q315 73 355 116T395 216Q337 236 251 236Q202 236 173 216T144 155Q144 73 254 73ZM113 654H429V586H113V654Z"  />
<glyph unicode="&#x102;" horiz-adv-x="693" d="M497 176H195L133 0H20L278 700H415L673 0H560L497 176ZM228 270H464L346 606L228 270ZM356 761Q290 761 253 799T216 903H283Q283 871 300 849T356 827Q394 827 411 849T429 903H496Q496 837 459 799T356 761Z"  />
<glyph unicode="&#x103;" horiz-adv-x="568" d="M395 73Q340 -12 236 -12Q145 -12 95 31T45 150Q45 224 97 266T240 308Q337 308 395 284V307Q395 367 365 395T259 423Q188 423 130 385L93 466Q167 512 260 512Q380 512 436 464T493 308V0H395V73ZM254 73Q315 73 355 116T395 216Q337 236 251 236Q202 236 173 216T144 155Q144 73 254 73ZM269 561Q203 561 166 599T129 703H196Q196 671 213 649T269 627Q307 627 324 649T342 703H409Q409 637 372 599T269 561Z"  />
<glyph unicode="&#x104;" horiz-adv-x="693" d="M497 176H195L133 0H20L278 700H415L673 0H630Q601 -19 586 -44T570 -89Q570 -125 606 -125Q626 -125 649 -115V-200Q621 -210 583 -210Q488 -210 488 -122Q488 -87 508 -55T560 0L497 176ZM228 270H464L346 606L228 270Z"  />
<glyph unicode="&#x105;" horiz-adv-x="568" d="M335 -128Q335 -71 395 -16V73Q340 -12 236 -12Q145 -12 95 31T45 150Q45 224 97 266T240 308Q337 308 395 284V307Q395 367 365 395T259 423Q188 423 130 385L93 466Q167 512 260 512Q380 512 436 464T493 308V0Q465 -19 444 -44T423 -90Q423 -124 459 -124Q475 -124 492 -118V-202Q460 -210 435 -210Q335 -210 335 -128ZM254 73Q315 73 355 116T395 216Q337 236 251 236Q202 236 173 216T144 155Q144 73 254 73Z"  />
<glyph unicode="&#x106;" horiz-adv-x="686" d="M411 84Q517 84 580 139L636 56Q590 21 539 5T413 -12Q256 -12 153 89T50 350Q50 508 153 610T413 712Q487 712 538 695T636 644L580 561Q517 616 411 616Q298 616 228 542T157 350Q157 232 229 158T411 84ZM446 912H549L445 765H381L446 912Z"  />
<glyph unicode="&#x107;" horiz-adv-x="543" d="M488 48Q453 18 414 3T313 -12Q192 -12 119 60T45 250Q45 364 120 438T313 512Q372 512 412 497T488 447L435 375Q388 422 314 422Q239 422 193 375T146 250Q146 173 190 126T314 78Q385 78 434 119L488 48ZM337 712H440L336 565H272L337 712Z"  />
<glyph unicode="&#x108;" horiz-adv-x="686" d="M411 84Q517 84 580 139L636 56Q590 21 539 5T413 -12Q256 -12 153 89T50 350Q50 508 153 610T413 712Q487 712 538 695T636 644L580 561Q517 616 411 616Q298 616 228 542T157 350Q157 232 229 158T411 84ZM462 912L547 765H483L414 851L345 765H281L366 912H462Z"  />
<glyph unicode="&#x109;" horiz-adv-x="543" d="M488 48Q453 18 414 3T313 -12Q192 -12 119 60T45 250Q45 364 120 438T313 512Q372 512 412 497T488 447L435 375Q388 422 314 422Q239 422 193 375T146 250Q146 173 190 126T314 78Q385 78 434 119L488 48ZM357 712L442 565H378L309 651L240 565H176L261 712H357Z"  />
<glyph unicode="&#x10A;" horiz-adv-x="686" d="M411 84Q517 84 580 139L636 56Q590 21 539 5T413 -12Q256 -12 153 89T50 350Q50 508 153 610T413 712Q487 712 538 695T636 644L580 561Q517 616 411 616Q298 616 228 542T157 350Q157 232 229 158T411 84ZM292 881H394V779H292V881Z"  />
<glyph unicode="&#x10B;" horiz-adv-x="543" d="M488 48Q453 18 414 3T313 -12Q192 -12 119 60T45 250Q45 364 120 438T313 512Q372 512 412 497T488 447L435 375Q388 422 314 422Q239 422 193 375T146 250Q146 173 190 126T314 78Q385 78 434 119L488 48ZM263 681H365V579H263V681Z"  />
<glyph unicode="&#x10C;" horiz-adv-x="686" d="M411 84Q517 84 580 139L636 56Q590 21 539 5T413 -12Q256 -12 153 89T50 350Q50 508 153 610T413 712Q487 712 538 695T636 644L580 561Q517 616 411 616Q298 616 228 542T157 350Q157 232 229 158T411 84ZM365 765L280 912H344L413 826L482 912H546L461 765H365Z"  />
<glyph unicode="&#x10D;" horiz-adv-x="543" d="M488 48Q453 18 414 3T313 -12Q192 -12 119 60T45 250Q45 364 120 438T313 512Q372 512 412 497T488 447L435 375Q388 422 314 422Q239 422 193 375T146 250Q146 173 190 126T314 78Q385 78 434 119L488 48ZM260 565L175 712H239L308 626L377 712H441L356 565H260Z"  />
<glyph unicode="&#x10E;" horiz-adv-x="718" d="M80 700H329Q491 700 579 608T668 350Q668 185 579 93T329 0H80V700ZM184 606V94H335Q441 94 502 161T564 350Q564 470 504 538T335 606H184ZM269 765L184 912H248L317 826L386 912H450L365 765H269Z"  />
<glyph unicode="&#x10F;" horiz-adv-x="655" d="M476 250Q476 286 465 317T431 372T377 409T304 422Q267 422 238 409T187 374T155 319T143 250Q143 213 154 182T186 127T236 91T304 78Q346 78 378 91T432 127T465 182T476 250ZM296 -12Q239 -12 193 8T114 63T63 146T45 250Q45 307 63 355T114 438T193 492T296 512Q353 512 399 490T476 428V736H574V0H476V69Q446 30 400 9T296 -12ZM616 736H685L647 568H602L616 736Z"  />
<glyph unicode="&#x110;" horiz-adv-x="708" d="M8 394H75V700H324Q486 700 574 608T663 350Q663 185 574 93T324 0H75V308H8V394ZM179 606V394H303V308H179V94H330Q436 94 497 161T559 350Q559 470 499 538T330 606H179Z"  />
<glyph unicode="&#x111;" horiz-adv-x="649" d="M279 650H476V736H574V0H476V69Q414 -12 296 -12Q186 -12 116 61T45 250Q45 366 115 439T296 512Q413 512 476 428V588H279V650ZM476 250Q476 325 430 373T304 422Q234 422 189 375T143 250Q143 173 187 126T304 78Q383 78 429 125T476 250Z"  />
<glyph unicode="&#x112;" horiz-adv-x="615" d="M80 700H548V606H184V397H496V303H184V94H555V0H80V700ZM159 854H475V786H159V854Z"  />
<glyph unicode="&#x113;" horiz-adv-x="596" d="M551 251L549 210H148Q154 142 197 108T310 73Q404 73 464 127L514 54Q472 20 426 4T310 -12Q187 -12 116 58T45 250Q45 365 116 438T301 512Q421 512 486 443T551 251ZM303 426Q237 426 196 390T148 290H451Q439 426 303 426ZM142 654H458V586H142V654Z"  />
<glyph unicode="&#x114;" horiz-adv-x="615" d="M80 700H548V606H184V397H496V303H184V94H555V0H80V700ZM317 761Q251 761 214 799T177 903H244Q244 871 261 849T317 827Q355 827 372 849T390 903H457Q457 837 420 799T317 761Z"  />
<glyph unicode="&#x115;" horiz-adv-x="596" d="M551 251L549 210H148Q154 142 197 108T310 73Q404 73 464 127L514 54Q472 20 426 4T310 -12Q187 -12 116 58T45 250Q45 365 116 438T301 512Q421 512 486 443T551 251ZM303 426Q237 426 196 390T148 290H451Q439 426 303 426ZM300 561Q234 561 197 599T160 703H227Q227 671 244 649T300 627Q338 627 355 649T373 703H440Q440 637 403 599T300 561Z"  />
<glyph unicode="&#x116;" horiz-adv-x="615" d="M80 700H548V606H184V397H496V303H184V94H555V0H80V700ZM256 881H358V779H256V881Z"  />
<glyph unicode="&#x117;" horiz-adv-x="596" d="M551 251L549 210H148Q154 142 197 108T310 73Q404 73 464 127L514 54Q472 20 426 4T310 -12Q187 -12 116 58T45 250Q45 365 116 438T301 512Q421 512 486 443T551 251ZM303 426Q237 426 196 390T148 290H451Q439 426 303 426ZM254 681H356V579H254V681Z"  />
<glyph unicode="&#x118;" horiz-adv-x="634" d="M80 700H548V606H184V397H496V303H184V94H555V0Q526 -19 511 -44T495 -89Q495 -125 531 -125Q551 -125 574 -115V-200Q546 -210 508 -210Q413 -210 413 -122Q413 -87 433 -55T485 0H80V700Z"  />
<glyph unicode="&#x119;" horiz-adv-x="596" d="M513 -148Q481 -156 456 -156Q356 -156 356 -74Q356 -40 378 -7Q338 -12 310 -12Q187 -12 116 58T45 250Q45 365 116 438T301 512Q421 512 486 443T551 251L549 210H148Q154 142 197 108T310 73Q404 73 464 127L514 54Q444 0 444 -36Q444 -70 480 -70Q496 -70 513 -64V-148ZM303 426Q237 426 196 390T148 290H451Q439 426 303 426Z"  />
<glyph unicode="&#x11A;" horiz-adv-x="615" d="M80 700H548V606H184V397H496V303H184V94H555V0H80V700ZM271 765L186 912H250L319 826L388 912H452L367 765H271Z"  />
<glyph unicode="&#x11B;" horiz-adv-x="596" d="M551 251L549 210H148Q154 142 197 108T310 73Q404 73 464 127L514 54Q472 20 426 4T310 -12Q187 -12 116 58T45 250Q45 365 116 438T301 512Q421 512 486 443T551 251ZM303 426Q237 426 196 390T148 290H451Q439 426 303 426ZM250 565L165 712H229L298 626L367 712H431L346 565H250Z"  />
<glyph unicode="&#x11C;" horiz-adv-x="746" d="M676 83Q623 36 563 12T413 -12Q253 -12 152 88T50 350Q50 508 153 610T413 712Q487 712 538 695T636 644L580 561Q517 616 411 616Q299 616 228 543T156 350Q156 231 229 158T411 84Q507 84 570 131V303H389V397H676V83ZM466 912L551 765H487L418 851L349 765H285L370 912H466Z"  />
<glyph unicode="&#x11D;" horiz-adv-x="649" d="M144 256Q144 176 189 132T311 88Q383 88 429 134T476 256Q476 330 429 376T310 422Q233 422 189 377T144 256ZM297 512Q415 512 476 426V500H574V13Q574 -95 506 -153T311 -212Q185 -212 102 -164L137 -81Q213 -127 308 -127Q388 -127 432 -92T476 14V84Q415 0 296 0Q185 0 115 69T45 256Q45 370 116 441T297 512ZM372 712L457 565H393L324 651L255 565H191L276 712H372Z"  />
<glyph unicode="&#x11E;" horiz-adv-x="746" d="M676 83Q623 36 563 12T413 -12Q253 -12 152 88T50 350Q50 508 153 610T413 712Q487 712 538 695T636 644L580 561Q517 616 411 616Q299 616 228 543T156 350Q156 231 229 158T411 84Q507 84 570 131V303H389V397H676V83ZM417 761Q351 761 314 799T277 903H344Q344 871 361 849T417 827Q455 827 472 849T490 903H557Q557 837 520 799T417 761Z"  />
<glyph unicode="&#x11F;" horiz-adv-x="649" d="M144 256Q144 176 189 132T311 88Q383 88 429 134T476 256Q476 330 429 376T310 422Q233 422 189 377T144 256ZM297 512Q415 512 476 426V500H574V13Q574 -95 506 -153T311 -212Q185 -212 102 -164L137 -81Q213 -127 308 -127Q388 -127 432 -92T476 14V84Q415 0 296 0Q185 0 115 69T45 256Q45 370 116 441T297 512ZM324 561Q258 561 221 599T184 703H251Q251 671 268 649T324 627Q362 627 379 649T397 703H464Q464 637 427 599T324 561Z"  />
<glyph unicode="&#x120;" horiz-adv-x="746" d="M676 83Q623 36 563 12T413 -12Q253 -12 152 88T50 350Q50 508 153 610T413 712Q487 712 538 695T636 644L580 561Q517 616 411 616Q299 616 228 543T156 350Q156 231 229 158T411 84Q507 84 570 131V303H389V397H676V83ZM360 881H462V779H360V881Z"  />
<glyph unicode="&#x121;" horiz-adv-x="649" d="M144 256Q144 176 189 132T311 88Q383 88 429 134T476 256Q476 330 429 376T310 422Q233 422 189 377T144 256ZM297 512Q415 512 476 426V500H574V13Q574 -95 506 -153T311 -212Q185 -212 102 -164L137 -81Q213 -127 308 -127Q388 -127 432 -92T476 14V84Q415 0 296 0Q185 0 115 69T45 256Q45 370 116 441T297 512ZM253 681H355V579H253V681Z"  />
<glyph unicode="&#x122;" horiz-adv-x="746" d="M676 83Q623 36 563 12T413 -12Q253 -12 152 88T50 350Q50 508 153 610T413 712Q487 712 538 695T636 644L580 561Q517 616 411 616Q299 616 228 543T156 350Q156 231 229 158T411 84Q507 84 570 131V303H389V397H676V83ZM355 -50H462L387 -210H320L355 -50Z"  />
<glyph unicode="&#x123;" horiz-adv-x="649" d="M144 256Q144 176 189 132T311 88Q383 88 429 134T476 256Q476 330 429 376T310 422Q233 422 189 377T144 256ZM297 512Q415 512 476 426V500H574V13Q574 -95 506 -153T311 -212Q185 -212 102 -164L137 -81Q213 -127 308 -127Q388 -127 432 -92T476 14V84Q415 0 296 0Q185 0 115 69T45 256Q45 370 116 441T297 512ZM348 578H241L316 738H383L348 578Z"  />
<glyph unicode="&#x124;" horiz-adv-x="718" d="M532 303H186V0H80V700H186V397H532V700H638V0H532V303ZM407 912L492 765H428L359 851L290 765H226L311 912H407Z"  />
<glyph unicode="&#x125;" horiz-adv-x="593" d="M425 313Q425 367 403 394T323 422Q261 422 217 378T173 272V0H75V736H173V419Q199 461 243 486T342 512Q434 512 478 465T523 318V0H425V313ZM174 922L259 775H195L126 861L57 775H-7L78 922H174Z"  />
<glyph unicode="&#x126;" horiz-adv-x="708" d="M15 592H75V700H181V592H527V700H633V592H693V524H633V0H527V303H181V0H75V524H15V592ZM527 397V524H181V397H527Z"  />
<glyph unicode="&#x127;" horiz-adv-x="593" d="M425 313Q425 367 403 394T323 422Q261 422 217 378T173 272V0H75V736H173V646H454V586H173V419Q199 461 243 486T342 512Q434 512 478 465T523 318V0H425V313Z"  />
<glyph unicode="&#x128;" horiz-adv-x="284" d="M90 700H194V0H90V700ZM229 770Q197 770 177 781T140 805T107 830T68 841Q24 841 24 781H-38V812Q-38 911 57 911Q89 911 109 900T146 876T179 851T218 840Q262 840 262 900H324V869Q324 770 229 770Z"  />
<glyph unicode="&#x129;" horiz-adv-x="260" d="M80 500H180V0H80V500ZM217 570Q185 570 165 581T128 605T95 630T56 641Q12 641 12 581H-50V612Q-50 711 45 711Q77 711 97 700T134 676T167 651T206 640Q250 640 250 700H312V669Q312 570 217 570Z"  />
<glyph unicode="&#x12A;" horiz-adv-x="284" d="M90 700H194V0H90V700ZM-15 854H301V786H-15V854Z"  />
<glyph unicode="&#x12B;" horiz-adv-x="260" d="M80 500H180V0H80V500ZM-27 654H289V586H-27V654Z"  />
<glyph unicode="&#x12C;" horiz-adv-x="284" d="M90 700H194V0H90V700ZM143 761Q77 761 40 799T3 903H70Q70 871 87 849T143 827Q181 827 198 849T216 903H283Q283 837 246 799T143 761Z"  />
<glyph unicode="&#x12D;" horiz-adv-x="260" d="M80 500H180V0H80V500ZM131 561Q65 561 28 599T-9 703H58Q58 671 75 649T131 627Q169 627 186 649T204 703H271Q271 637 234 599T131 561Z"  />
<glyph unicode="&#x12E;" horiz-adv-x="284" d="M33 -122Q33 -59 90 -11V700H194V0H175Q146 -19 131 -44T115 -89Q115 -125 151 -125Q171 -125 194 -115V-200Q166 -210 128 -210Q33 -210 33 -122Z"  />
<glyph unicode="&#x12F;" horiz-adv-x="248" d="M15 -128Q15 -71 75 -16V500H173V0Q145 -19 124 -44T103 -90Q103 -124 139 -124Q155 -124 172 -118V-202Q140 -210 115 -210Q15 -210 15 -128ZM73 681H175V579H73V681Z"  />
<glyph unicode="&#x130;" horiz-adv-x="284" d="M90 700H194V0H90V700ZM91 881H193V779H91V881Z"  />
<glyph unicode="&#x131;" horiz-adv-x="260" d="M80 500H180V0H80V500Z"  />
<glyph unicode="&#x132;" horiz-adv-x="773" d="M90 700H194V0H90V700ZM375 132Q430 82 486 82Q543 82 565 109T587 201V700H693V197Q693 88 643 38T487 -12Q391 -12 324 45L375 132Z"  />
<glyph unicode="&#x133;" horiz-adv-x="538" d="M81 500H179V0H81V500ZM79 681H181V579H79V681ZM433 -58Q433 -212 278 -212Q219 -212 181 -189L216 -109Q242 -126 276 -126Q335 -126 335 -60V500H433V-58ZM333 681H435V579H333V681Z"  />
<glyph unicode="&#x134;" horiz-adv-x="489" d="M91 132Q146 82 202 82Q259 82 281 109T303 201V700H409V197Q409 88 359 38T203 -12Q107 -12 40 45L91 132ZM403 912L488 765H424L355 851L286 765H222L307 912H403Z"  />
<glyph unicode="&#x135;" horiz-adv-x="248" d="M173 -58Q173 -131 136 -171T18 -212Q-41 -212 -79 -189L-44 -109Q-30 -118 -17 -122T16 -126Q75 -126 75 -60V500H173V-58ZM172 712L257 565H193L124 651L55 565H-9L76 712H172Z"  />
<glyph unicode="&#x136;" horiz-adv-x="655" d="M80 700H184V418L463 700H597L292 397L625 0H493L221 326L184 289V0H80V700ZM278 -50H385L310 -210H243L278 -50Z"  />
<glyph unicode="&#x137;" horiz-adv-x="525" d="M210 219L173 182V0H75V736H173V300L364 500H488L274 284L510 0H390L210 219ZM224 -50H331L256 -210H189L224 -50Z"  />
<glyph unicode="&#x138;" horiz-adv-x="525" d="M210 219L173 182V0H75V500H173V300L364 500H488L274 284L510 0H390L210 219Z"  />
<glyph unicode="&#x139;" horiz-adv-x="546" d="M80 700H186V94H496V0H80V700ZM163 912H266L162 765H98L163 912Z"  />
<glyph unicode="&#x13A;" horiz-adv-x="248" d="M75 736H173V0H75V736ZM154 932H257L153 785H89L154 932Z"  />
<glyph unicode="&#x13B;" horiz-adv-x="546" d="M80 700H186V94H496V0H80V700ZM237 -50H344L269 -210H202L237 -50Z"  />
<glyph unicode="&#x13C;" horiz-adv-x="248" d="M75 736H173V0H75V736ZM79 -50H186L111 -210H44L79 -50Z"  />
<glyph unicode="&#x13D;" horiz-adv-x="546" d="M262 730H331L293 562H248L262 730ZM80 700H186V94H496V0H80V700Z"  />
<glyph unicode="&#x13E;" horiz-adv-x="248" d="M217 736H286L248 568H203L217 736ZM75 736H173V0H75V736Z"  />
<glyph unicode="&#x13F;" horiz-adv-x="546" d="M80 700H186V94H496V0H80V700ZM291 337H405V223H291V337Z"  />
<glyph unicode="&#x140;" horiz-adv-x="390" d="M75 736H173V0H75V736ZM230 337H344V223H230V337Z"  />
<glyph unicode="&#x141;" horiz-adv-x="546" d="M80 297L-6 264V340L80 373V700H186V415L270 448V372L186 339V94H496V0H80V297Z"  />
<glyph unicode="&#x142;" horiz-adv-x="296" d="M99 289L10 254V330L99 365V736H197V403L286 438V362L197 327V0H99V289Z"  />
<glyph unicode="&#x143;" horiz-adv-x="741" d="M181 571L184 495V0H80V700H204L526 190L560 129L557 205V700H661V0H537L218 504L181 571ZM344 912H447L343 765H279L344 912Z"  />
<glyph unicode="&#x144;" horiz-adv-x="593" d="M425 313Q425 367 403 394T323 422Q261 422 217 378T173 272V0H75V500H173V419Q199 461 243 486T342 512Q434 512 478 465T523 318V0H425V313ZM277 712H380L276 565H212L277 712Z"  />
<glyph unicode="&#x145;" horiz-adv-x="741" d="M181 571L184 495V0H80V700H204L526 190L560 129L557 205V700H661V0H537L218 504L181 571ZM327 -50H434L359 -210H292L327 -50Z"  />
<glyph unicode="&#x146;" horiz-adv-x="593" d="M425 313Q425 367 403 394T323 422Q261 422 217 378T173 272V0H75V500H173V419Q199 461 243 486T342 512Q434 512 478 465T523 318V0H425V313ZM260 -50H367L292 -210H225L260 -50Z"  />
<glyph unicode="&#x147;" horiz-adv-x="741" d="M181 571L184 495V0H80V700H204L526 190L560 129L557 205V700H661V0H537L218 504L181 571ZM315 765L230 912H294L363 826L432 912H496L411 765H315Z"  />
<glyph unicode="&#x148;" horiz-adv-x="593" d="M425 313Q425 367 403 394T323 422Q261 422 217 378T173 272V0H75V500H173V419Q199 461 243 486T342 512Q434 512 478 465T523 318V0H425V313ZM248 565L163 712H227L296 626L365 712H429L344 565H248Z"  />
<glyph unicode="&#x149;" horiz-adv-x="723" d="M96 700H210L115 465H41L96 700ZM555 313Q555 367 533 394T453 422Q391 422 347 378T303 272V0H205V500H303V419Q329 461 373 486T472 512Q564 512 608 465T653 318V0H555V313Z"  />
<glyph unicode="&#x14A;" horiz-adv-x="737" d="M182 571L184 513V0H80V700H212L555 129L553 187V700H657V0Q657 -109 607 -159T451 -209Q355 -209 288 -152L339 -65Q394 -115 450 -115Q507 -115 528 -89T551 0H525L182 571Z"  />
<glyph unicode="&#x14B;" horiz-adv-x="593" d="M425 313Q425 367 403 394T323 422Q261 422 217 378T173 272V0H75V500H173V419Q199 461 243 486T342 512Q434 512 478 465T523 318V-58Q523 -212 368 -212Q309 -212 271 -189L306 -109Q332 -126 366 -126Q425 -126 425 -60V313Z"  />
<glyph unicode="&#x14C;" horiz-adv-x="824" d="M50 350Q50 506 154 609T412 712Q565 712 669 610T774 350Q774 246 728 163T597 34T412 -12Q255 -12 153 89T50 350ZM154 350Q154 232 227 157T412 82Q523 82 596 156T670 350Q670 468 597 543T412 618Q301 618 228 544T154 350ZM254 854H570V786H254V854Z"  />
<glyph unicode="&#x14D;" horiz-adv-x="600" d="M133 250Q133 174 177 126T300 78Q379 78 423 126T467 250Q467 327 422 374T300 422Q224 422 179 374T133 250ZM35 250Q35 366 109 439T300 512Q417 512 491 439T565 250Q565 132 491 60T300 -12Q184 -12 110 60T35 250ZM147 654H463V586H147V654Z"  />
<glyph unicode="&#x14E;" horiz-adv-x="824" d="M50 350Q50 506 154 609T412 712Q565 712 669 610T774 350Q774 246 728 163T597 34T412 -12Q255 -12 153 89T50 350ZM154 350Q154 232 227 157T412 82Q523 82 596 156T670 350Q670 468 597 543T412 618Q301 618 228 544T154 350ZM412 761Q346 761 309 799T272 903H339Q339 871 356 849T412 827Q450 827 467 849T485 903H552Q552 837 515 799T412 761Z"  />
<glyph unicode="&#x14F;" horiz-adv-x="600" d="M133 250Q133 174 177 126T300 78Q379 78 423 126T467 250Q467 327 422 374T300 422Q224 422 179 374T133 250ZM35 250Q35 366 109 439T300 512Q417 512 491 439T565 250Q565 132 491 60T300 -12Q184 -12 110 60T35 250ZM305 561Q239 561 202 599T165 703H232Q232 671 249 649T305 627Q343 627 360 649T378 703H445Q445 637 408 599T305 561Z"  />
<glyph unicode="&#x150;" horiz-adv-x="824" d="M50 350Q50 506 154 609T412 712Q565 712 669 610T774 350Q774 246 728 163T597 34T412 -12Q255 -12 153 89T50 350ZM154 350Q154 232 227 157T412 82Q523 82 596 156T670 350Q670 468 597 543T412 618Q301 618 228 544T154 350ZM346 912H436L366 765H316L346 912ZM508 912H605L515 765H458L508 912Z"  />
<glyph unicode="&#x151;" horiz-adv-x="600" d="M133 250Q133 174 177 126T300 78Q379 78 423 126T467 250Q467 327 422 374T300 422Q224 422 179 374T133 250ZM35 250Q35 366 109 439T300 512Q417 512 491 439T565 250Q565 132 491 60T300 -12Q184 -12 110 60T35 250ZM243 712H333L263 565H213L243 712ZM405 712H502L412 565H355L405 712Z"  />
<glyph unicode="&#x152;" horiz-adv-x="1197" d="M664 91Q569 -12 412 -12Q254 -12 152 88T50 350Q50 506 154 609T412 712Q570 712 664 608V700H1132V606H768V397H1080V303H768V94H1137V0H664V91ZM156 350Q156 236 228 160T412 84Q525 84 596 160T668 350Q668 468 596 542T412 616Q298 616 227 541T156 350Z"  />
<glyph unicode="&#x153;" horiz-adv-x="1017" d="M977 251L975 210H574Q580 142 623 108T736 73Q830 73 890 127L940 54Q898 20 852 4T736 -12Q586 -12 522 90Q454 -12 308 -12Q187 -12 114 60T40 250Q40 365 115 438T308 512Q452 512 522 405Q589 512 727 512Q847 512 912 443T977 251ZM140 250Q140 173 184 126T308 78Q386 78 431 125T476 250Q476 327 429 374T308 422Q233 422 187 374T140 250ZM729 426Q663 426 622 390T574 290H877Q865 426 729 426Z"  />
<glyph unicode="&#x154;" horiz-adv-x="669" d="M184 258V0H80V700H358Q612 700 612 481Q612 317 470 273L629 0H509L364 258H184ZM184 606V352H375Q438 352 472 388T507 481Q507 535 473 570T375 606H184ZM336 912H439L335 765H271L336 912Z"  />
<glyph unicode="&#x155;" horiz-adv-x="379" d="M344 412Q324 418 292 418Q241 418 207 384T173 280V0H75V500H173V417Q219 512 310 512Q335 512 344 509V412ZM216 712H319L215 565H151L216 712Z"  />
<glyph unicode="&#x156;" horiz-adv-x="669" d="M184 258V0H80V700H358Q612 700 612 481Q612 317 470 273L629 0H509L364 258H184ZM184 606V352H375Q438 352 472 388T507 481Q507 535 473 570T375 606H184ZM298 -50H405L330 -210H263L298 -50Z"  />
<glyph unicode="&#x157;" horiz-adv-x="379" d="M344 412Q324 418 292 418Q241 418 207 384T173 280V0H75V500H173V417Q219 512 310 512Q335 512 344 509V412ZM73 -50H180L105 -210H38L73 -50Z"  />
<glyph unicode="&#x158;" horiz-adv-x="669" d="M184 258V0H80V700H358Q612 700 612 481Q612 317 470 273L629 0H509L364 258H184ZM184 606V352H375Q438 352 472 388T507 481Q507 535 473 570T375 606H184ZM275 765L190 912H254L323 826L392 912H456L371 765H275Z"  />
<glyph unicode="&#x159;" horiz-adv-x="379" d="M344 412Q324 418 292 418Q241 418 207 384T173 280V0H75V500H173V417Q219 512 310 512Q335 512 344 509V412ZM165 565L80 712H144L213 626L282 712H346L261 565H165Z"  />
<glyph unicode="&#x15A;" horiz-adv-x="574" d="M434 563Q382 617 301 617Q238 617 208 588T178 516Q178 469 208 442T308 393Q430 353 477 308T524 186Q524 89 462 39T285 -12Q140 -12 50 78L110 155Q182 81 286 81Q355 81 386 107T418 187Q418 231 389 256T275 308Q166 343 121 392T75 517Q75 604 136 658T302 712Q416 712 495 640L434 563ZM330 912H433L329 765H265L330 912Z"  />
<glyph unicode="&#x15B;" horiz-adv-x="469" d="M99 129Q154 74 238 74Q325 74 325 136Q325 160 302 176T227 209Q142 234 102 270T62 368Q62 430 111 471T242 512Q334 512 399 459L345 385Q301 425 242 425Q197 425 178 406T159 364Q159 335 179 320T252 289Q347 259 385 225T424 135Q424 64 377 26T237 -12Q126 -12 45 57L99 129ZM276 712H379L275 565H211L276 712Z"  />
<glyph unicode="&#x15C;" horiz-adv-x="574" d="M434 563Q382 617 301 617Q238 617 208 588T178 516Q178 469 208 442T308 393Q430 353 477 308T524 186Q524 89 462 39T285 -12Q140 -12 50 78L110 155Q182 81 286 81Q355 81 386 107T418 187Q418 231 389 256T275 308Q166 343 121 392T75 517Q75 604 136 658T302 712Q416 712 495 640L434 563ZM348 912L433 765H369L300 851L231 765H167L252 912H348Z"  />
<glyph unicode="&#x15D;" horiz-adv-x="469" d="M99 129Q154 74 238 74Q325 74 325 136Q325 160 302 176T227 209Q142 234 102 270T62 368Q62 430 111 471T242 512Q334 512 399 459L345 385Q301 425 242 425Q197 425 178 406T159 364Q159 335 179 320T252 289Q347 259 385 225T424 135Q424 64 377 26T237 -12Q126 -12 45 57L99 129ZM292 712L377 565H313L244 651L175 565H111L196 712H292Z"  />
<glyph unicode="&#x15E;" horiz-adv-x="574" d="M290 -116Q290 -76 223 -74L246 -10Q122 4 50 78L110 155Q182 81 286 81Q355 81 386 107T418 187Q418 230 389 254T273 308Q162 344 116 393T70 517Q70 604 131 658T297 712Q411 712 490 640L429 563Q377 617 296 617Q233 617 203 588T173 516Q173 470 205 442T306 393Q429 353 476 309T524 186Q524 93 466 42T298 -12L289 -38Q365 -57 365 -123Q365 -167 333 -191T242 -216Q187 -216 159 -200L180 -145Q204 -156 233 -156Q290 -156 290 -116Z"  />
<glyph unicode="&#x15F;" horiz-adv-x="469" d="M242 -116Q242 -76 175 -74L198 -10Q109 0 45 57L99 129Q154 74 238 74Q325 74 325 136Q325 160 302 176T227 209Q142 234 102 270T62 368Q62 430 111 471T242 512Q334 512 399 459L345 385Q301 425 242 425Q197 425 178 406T159 364Q159 335 179 320T252 289Q347 259 385 225T424 135Q424 64 378 27T250 -12L241 -38Q317 -57 317 -123Q317 -167 285 -191T194 -216Q139 -216 111 -200L132 -145Q156 -156 185 -156Q242 -156 242 -116Z"  />
<glyph unicode="&#x160;" horiz-adv-x="574" d="M434 563Q382 617 301 617Q238 617 208 588T178 516Q178 469 208 442T308 393Q430 353 477 308T524 186Q524 89 462 39T285 -12Q140 -12 50 78L110 155Q182 81 286 81Q355 81 386 107T418 187Q418 231 389 256T275 308Q166 343 121 392T75 517Q75 604 136 658T302 712Q416 712 495 640L434 563ZM244 765L159 912H223L292 826L361 912H425L340 765H244Z"  />
<glyph unicode="&#x161;" horiz-adv-x="469" d="M99 129Q154 74 238 74Q325 74 325 136Q325 160 302 176T227 209Q142 234 102 270T62 368Q62 430 111 471T242 512Q334 512 399 459L345 385Q301 425 242 425Q197 425 178 406T159 364Q159 335 179 320T252 289Q347 259 385 225T424 135Q424 64 377 26T237 -12Q126 -12 45 57L99 129ZM196 565L111 712H175L244 626L313 712H377L292 565H196Z"  />
<glyph unicode="&#x162;" horiz-adv-x="594" d="M40 700H554V606H349V0H245V606H40V700ZM246 -50H353L278 -210H211L246 -50Z"  />
<glyph unicode="&#x163;" horiz-adv-x="401" d="M30 415V500H105V640H203V500H330V415H203V149Q203 74 272 74Q305 74 332 92L366 11Q328 -12 269 -12Q105 -12 105 149V415H30ZM170 -50H277L202 -210H135L170 -50Z"  />
<glyph unicode="&#x164;" horiz-adv-x="594" d="M40 700H554V606H349V0H245V606H40V700ZM249 765L164 912H228L297 826L366 912H430L345 765H249Z"  />
<glyph unicode="&#x165;" horiz-adv-x="401" d="M288 730H357L319 562H274L288 730ZM30 415V500H105V640H203V500H330V415H203V149Q203 74 272 74Q305 74 332 92L366 11Q328 -12 269 -12Q105 -12 105 149V415H30Z"  />
<glyph unicode="&#x166;" horiz-adv-x="594" d="M139 371H245V606H40V700H554V606H349V371H455V303H349V0H245V303H139V371Z"  />
<glyph unicode="&#x167;" horiz-adv-x="401" d="M30 300H105V415H30V500H105V640H203V500H330V415H203V300H330V232H203V149Q203 74 272 74Q305 74 332 92L366 11Q328 -12 269 -12Q105 -12 105 149V232H30V300Z"  />
<glyph unicode="&#x168;" horiz-adv-x="716" d="M532 700H636V262Q636 132 563 60T358 -12Q227 -12 154 60T80 262V700H184V261Q184 175 230 129T358 82Q440 82 486 128T532 261V700ZM444 770Q412 770 392 781T355 805T322 830T283 841Q239 841 239 781H177V812Q177 911 272 911Q304 911 324 900T361 876T394 851T433 840Q477 840 477 900H539V869Q539 770 444 770Z"  />
<glyph unicode="&#x169;" horiz-adv-x="598" d="M173 187Q173 133 195 106T275 78Q337 78 381 122T425 228V500H523V0H425V81Q399 39 355 14T256 -12Q164 -12 120 35T75 182V500H173V187ZM380 570Q348 570 328 581T291 605T258 630T219 641Q175 641 175 581H113V612Q113 711 208 711Q240 711 260 700T297 676T330 651T369 640Q413 640 413 700H475V669Q475 570 380 570Z"  />
<glyph unicode="&#x16A;" horiz-adv-x="716" d="M532 700H636V262Q636 132 563 60T358 -12Q227 -12 154 60T80 262V700H184V261Q184 175 230 129T358 82Q440 82 486 128T532 261V700ZM200 854H516V786H200V854Z"  />
<glyph unicode="&#x16B;" horiz-adv-x="598" d="M173 187Q173 133 195 106T275 78Q337 78 381 122T425 228V500H523V0H425V81Q399 39 355 14T256 -12Q164 -12 120 35T75 182V500H173V187ZM136 654H452V586H136V654Z"  />
<glyph unicode="&#x16C;" horiz-adv-x="716" d="M532 700H636V262Q636 132 563 60T358 -12Q227 -12 154 60T80 262V700H184V261Q184 175 230 129T358 82Q440 82 486 128T532 261V700ZM358 761Q292 761 255 799T218 903H285Q285 871 302 849T358 827Q396 827 413 849T431 903H498Q498 837 461 799T358 761Z"  />
<glyph unicode="&#x16D;" horiz-adv-x="598" d="M173 187Q173 133 195 106T275 78Q337 78 381 122T425 228V500H523V0H425V81Q399 39 355 14T256 -12Q164 -12 120 35T75 182V500H173V187ZM294 561Q228 561 191 599T154 703H221Q221 671 238 649T294 627Q332 627 349 649T367 703H434Q434 637 397 599T294 561Z"  />
<glyph unicode="&#x16E;" horiz-adv-x="716" d="M532 700H636V262Q636 132 563 60T358 -12Q227 -12 154 60T80 262V700H184V261Q184 175 230 129T358 82Q440 82 486 128T532 261V700ZM255 847Q255 889 284 919T357 950Q400 950 430 921T460 847Q460 803 430 774T357 745Q314 745 285 774T255 847ZM315 847Q315 829 327 817T357 805Q375 805 387 817T400 847Q400 865 388 877T357 890Q339 890 327 878T315 847Z"  />
<glyph unicode="&#x16F;" horiz-adv-x="598" d="M173 187Q173 133 195 106T275 78Q337 78 381 122T425 228V500H523V0H425V81Q399 39 355 14T256 -12Q164 -12 120 35T75 182V500H173V187ZM191 647Q191 689 220 719T293 750Q336 750 366 721T396 647Q396 603 366 574T293 545Q250 545 221 574T191 647ZM251 647Q251 629 263 617T293 605Q311 605 323 617T336 647Q336 665 324 677T293 690Q275 690 263 678T251 647Z"  />
<glyph unicode="&#x170;" horiz-adv-x="716" d="M532 700H636V262Q636 132 563 60T358 -12Q227 -12 154 60T80 262V700H184V261Q184 175 230 129T358 82Q440 82 486 128T532 261V700ZM282 912H372L302 765H252L282 912ZM444 912H541L451 765H394L444 912Z"  />
<glyph unicode="&#x171;" horiz-adv-x="598" d="M173 187Q173 133 195 106T275 78Q337 78 381 122T425 228V500H523V0H425V81Q399 39 355 14T256 -12Q164 -12 120 35T75 182V500H173V187ZM216 712H306L236 565H186L216 712ZM378 712H475L385 565H328L378 712Z"  />
<glyph unicode="&#x172;" horiz-adv-x="716" d="M532 700H636V262Q636 155 585 86T442 -3Q416 -22 402 -45T387 -89Q387 -125 423 -125Q443 -125 466 -115V-200Q438 -210 400 -210Q305 -210 305 -122Q305 -61 361 -12H358Q227 -12 154 60T80 262V700H184V261Q184 175 230 129T358 82Q440 82 486 128T532 261V700Z"  />
<glyph unicode="&#x173;" horiz-adv-x="598" d="M522 -202Q490 -210 465 -210Q365 -210 365 -128Q365 -71 425 -16V81Q399 39 355 14T256 -12Q164 -12 120 35T75 182V500H173V187Q173 133 195 106T275 78Q337 78 381 122T425 228V500H523V0Q495 -19 474 -44T453 -90Q453 -124 489 -124Q505 -124 522 -118V-202Z"  />
<glyph unicode="&#x174;" horiz-adv-x="1010" d="M353 0H215L40 700H154L284 109L433 700H577L726 109L856 700H970L795 0H657L505 607L353 0ZM553 912L638 765H574L505 851L436 765H372L457 912H553Z"  />
<glyph unicode="&#x175;" horiz-adv-x="844" d="M422 413L315 0H183L40 500H146L250 91L360 500H484L594 91L698 500H804L661 0H529L422 413ZM460 712L545 565H481L412 651L343 565H279L364 712H460Z"  />
<glyph unicode="&#x176;" horiz-adv-x="678" d="M392 255V0H286V255L30 700H150L339 355L529 700H648L392 255ZM387 912L472 765H408L339 851L270 765H206L291 912H387Z"  />
<glyph unicode="&#x177;" horiz-adv-x="562" d="M235 -14L25 500H134L286 104L438 500H547L313 -74Q278 -157 241 -184T139 -212Q88 -212 49 -189L84 -105Q109 -123 137 -123Q166 -123 185 -106T235 -14ZM344 712L429 565H365L296 651L227 565H163L248 712H344Z"  />
<glyph unicode="&#x178;" horiz-adv-x="678" d="M392 255V0H286V255L30 700H150L339 355L529 700H648L392 255ZM192 881H294V779H192V881ZM382 881H484V779H382V881Z"  />
<glyph unicode="&#x179;" horiz-adv-x="652" d="M60 79L447 606H76V700H582V620L191 94H602V0H60V79ZM348 912H451L347 765H283L348 912Z"  />
<glyph unicode="&#x17A;" horiz-adv-x="514" d="M45 69L331 415H59V500H454V431L169 85H469V0H45V69ZM280 712H383L279 565H215L280 712Z"  />
<glyph unicode="&#x17B;" horiz-adv-x="652" d="M60 79L447 606H76V700H582V620L191 94H602V0H60V79ZM275 881H377V779H275V881Z"  />
<glyph unicode="&#x17C;" horiz-adv-x="514" d="M45 69L331 415H59V500H454V431L169 85H469V0H45V69ZM205 681H307V579H205V681Z"  />
<glyph unicode="&#x17D;" horiz-adv-x="652" d="M60 79L447 606H76V700H582V620L191 94H602V0H60V79ZM278 765L193 912H257L326 826L395 912H459L374 765H278Z"  />
<glyph unicode="&#x17E;" horiz-adv-x="514" d="M45 69L331 415H59V500H454V431L169 85H469V0H45V69ZM209 565L124 712H188L257 626L326 712H390L305 565H209Z"  />
<glyph unicode="&#x192;" horiz-adv-x="496" d="M174 415H101V500H174V558Q174 712 329 712Q388 712 426 689L391 609Q365 626 331 626Q272 626 272 560V500H389V415H272V22Q272 -132 117 -132Q58 -132 20 -109L55 -29Q81 -46 115 -46Q174 -46 174 20V415Z"  />
<glyph unicode="&#x218;" horiz-adv-x="574" d="M434 563Q382 617 301 617Q238 617 208 588T178 516Q178 469 208 442T308 393Q430 353 477 308T524 186Q524 89 462 39T285 -12Q140 -12 50 78L110 155Q182 81 286 81Q355 81 386 107T418 187Q418 231 389 256T275 308Q166 343 121 392T75 517Q75 604 136 658T302 712Q416 712 495 640L434 563ZM239 -50H346L271 -210H204L239 -50Z"  />
<glyph unicode="&#x219;" horiz-adv-x="469" d="M99 129Q154 74 238 74Q325 74 325 136Q325 160 302 176T227 209Q142 234 102 270T62 368Q62 430 111 471T242 512Q334 512 399 459L345 385Q301 425 242 425Q197 425 178 406T159 364Q159 335 179 320T252 289Q347 259 385 225T424 135Q424 64 377 26T237 -12Q126 -12 45 57L99 129ZM188 -50H295L220 -210H153L188 -50Z"  />
<glyph unicode="&#x2C6;" horiz-adv-x="393" d="M244 712L329 565H265L196 651L127 565H63L148 712H244Z"  />
<glyph unicode="&#x2C7;" horiz-adv-x="393" d="M148 565L63 712H127L196 626L265 712H329L244 565H148Z"  />
<glyph unicode="&#x2D8;" horiz-adv-x="388" d="M194 561Q128 561 91 599T54 703H121Q121 671 138 649T194 627Q232 627 249 649T267 703H334Q334 637 297 599T194 561Z"  />
<glyph unicode="&#x2D9;" horiz-adv-x="254" d="M73 681H175V579H73V681Z"  />
<glyph unicode="&#x2DA;" horiz-adv-x="285" d="M40 647Q40 689 69 719T142 750Q185 750 215 721T245 647Q245 603 215 574T142 545Q99 545 70 574T40 647ZM100 647Q100 629 112 617T142 605Q160 605 172 617T185 647Q185 665 173 677T142 690Q124 690 112 678T100 647Z"  />
<glyph unicode="&#x2DB;" horiz-adv-x="270" d="M197 -202Q165 -210 140 -210Q40 -210 40 -128Q40 -94 63 -59T121 0H198Q170 -19 149 -44T128 -90Q128 -124 164 -124Q180 -124 197 -118V-202Z"  />
<glyph unicode="&#x2DC;" horiz-adv-x="462" d="M317 570Q285 570 265 581T228 605T195 630T156 641Q112 641 112 581H50V612Q50 711 145 711Q177 711 197 700T234 676T267 651T306 640Q350 640 350 700H412V669Q412 570 317 570Z"  />
<glyph unicode="&#x2DD;" horiz-adv-x="447" d="M105 712H195L125 565H75L105 712ZM267 712H364L274 565H217L267 712Z"  />
<glyph unicode="&#x3BC;" horiz-adv-x="608" d="M430 500H528V182Q528 82 484 35T347 -12Q292 -12 248 13T178 81V-160H80V500H178V228Q178 166 222 122T328 78Q385 78 407 105T430 187V500Z"  />
<glyph unicode="&#x3C0;" horiz-adv-x="675" d="M154 0V415H70V500H605V415H521V0H423V415H252V0H154Z"  />
<glyph unicode="&#x1E02;" horiz-adv-x="659" d="M80 700H357Q582 700 582 518Q582 473 562 431T495 362Q619 323 619 189Q619 96 560 48T387 0H80V700ZM186 303V94H412Q460 94 487 121T515 197Q515 248 484 275T402 303H186ZM186 606V397H369Q424 397 451 425T478 502Q478 606 375 606H186ZM278 881H380V779H278V881Z"  />
<glyph unicode="&#x1E03;" horiz-adv-x="649" d="M173 250Q173 172 219 125T345 78Q417 78 461 125T506 250Q506 327 461 374T345 422Q266 422 220 374T173 250ZM353 -12Q235 -12 173 69V0H75V736H173V428Q236 512 353 512Q465 512 534 439T604 250Q604 135 534 62T353 -12ZM302 681H404V579H302V681Z"  />
<glyph unicode="&#x1E0A;" horiz-adv-x="718" d="M80 700H329Q491 700 579 608T668 350Q668 185 579 93T329 0H80V700ZM184 606V94H335Q441 94 502 161T564 350Q564 470 504 538T335 606H184ZM273 881H375V779H273V881Z"  />
<glyph unicode="&#x1E0B;" horiz-adv-x="649" d="M476 250Q476 325 430 373T304 422Q234 422 189 375T143 250Q143 173 187 126T304 78Q383 78 429 125T476 250ZM296 -12Q186 -12 116 61T45 250Q45 366 115 439T296 512Q413 512 476 428V736H574V0H476V69Q414 -12 296 -12ZM245 681H347V579H245V681Z"  />
<glyph unicode="&#x1E1E;" horiz-adv-x="562" d="M80 0V700H522V606H184V397H470V303H184V0H80ZM230 881H332V779H230V881Z"  />
<glyph unicode="&#x1E1F;" horiz-adv-x="385" d="M108 500V594Q108 748 263 748Q322 748 360 725L325 645Q299 662 265 662Q206 662 206 596V500H323V415H206V0H108V415H35V500H108ZM202 881H304V779H202V881Z"  />
<glyph unicode="&#x1E40;" horiz-adv-x="910" d="M507 0H403L211 503L181 594L184 503V0H80V700H238L455 115L672 700H830V0H726V503L729 594L699 503L507 0ZM404 881H506V779H404V881Z"  />
<glyph unicode="&#x1E41;" horiz-adv-x="883" d="M715 330Q715 377 694 401T620 426Q568 426 531 390T493 300V0H395V330Q395 377 374 401T300 426Q248 426 211 390T173 300V0H75V500H173V424Q226 512 329 512Q445 512 479 424Q536 512 649 512Q730 512 771 471T813 338V0H715V330ZM390 681H492V579H390V681Z"  />
<glyph unicode="&#x1E56;" horiz-adv-x="663" d="M184 244V0H80V700H367Q486 700 549 641T613 475Q613 367 548 306T367 244H184ZM184 606V338H371Q440 338 474 375T509 474Q509 538 473 572T371 606H184ZM280 881H382V779H280V881Z"  />
<glyph unicode="&#x1E57;" horiz-adv-x="649" d="M173 250Q173 172 219 125T345 78Q417 78 461 125T506 250Q506 327 461 374T345 422Q266 422 220 374T173 250ZM353 -12Q235 -12 173 69V-200H75V500H173V428Q236 512 353 512Q465 512 534 439T604 250Q604 135 534 62T353 -12ZM272 681H374V579H272V681Z"  />
<glyph unicode="&#x1E60;" horiz-adv-x="574" d="M434 563Q382 617 301 617Q238 617 208 588T178 516Q178 469 208 442T308 393Q430 353 477 308T524 186Q524 89 462 39T285 -12Q140 -12 50 78L110 155Q182 81 286 81Q355 81 386 107T418 187Q418 231 389 256T275 308Q166 343 121 392T75 517Q75 604 136 658T302 712Q416 712 495 640L434 563ZM252 881H354V779H252V881Z"  />
<glyph unicode="&#x1E61;" horiz-adv-x="469" d="M99 129Q154 74 238 74Q325 74 325 136Q325 160 302 176T227 209Q142 234 102 270T62 368Q62 430 111 471T242 512Q334 512 399 459L345 385Q301 425 242 425Q197 425 178 406T159 364Q159 335 179 320T252 289Q347 259 385 225T424 135Q424 64 377 26T237 -12Q126 -12 45 57L99 129ZM192 681H294V579H192V681Z"  />
<glyph unicode="&#x1E6A;" horiz-adv-x="594" d="M40 700H554V606H349V0H245V606H40V700ZM246 881H348V779H246V881Z"  />
<glyph unicode="&#x1E6B;" horiz-adv-x="401" d="M30 415V500H105V640H203V500H330V415H203V149Q203 74 272 74Q305 74 332 92L366 11Q328 -12 269 -12Q105 -12 105 149V415H30ZM102 780H204V678H102V780Z"  />
<glyph unicode="&#x1E80;" horiz-adv-x="1010" d="M353 0H215L40 700H154L284 109L433 700H577L726 109L856 700H970L795 0H657L505 607L353 0ZM571 765H507L403 912H506L571 765Z"  />
<glyph unicode="&#x1E81;" horiz-adv-x="844" d="M422 413L315 0H183L40 500H146L250 91L360 500H484L594 91L698 500H804L661 0H529L422 413ZM496 565H432L328 712H431L496 565Z"  />
<glyph unicode="&#x1E82;" horiz-adv-x="1010" d="M353 0H215L40 700H154L284 109L433 700H577L726 109L856 700H970L795 0H657L505 607L353 0ZM534 912H637L533 765H469L534 912Z"  />
<glyph unicode="&#x1E83;" horiz-adv-x="844" d="M422 413L315 0H183L40 500H146L250 91L360 500H484L594 91L698 500H804L661 0H529L422 413ZM435 712H538L434 565H370L435 712Z"  />
<glyph unicode="&#x1E84;" horiz-adv-x="1010" d="M353 0H215L40 700H154L284 109L433 700H577L726 109L856 700H970L795 0H657L505 607L353 0ZM358 881H460V779H358V881ZM548 881H650V779H548V881Z"  />
<glyph unicode="&#x1E85;" horiz-adv-x="844" d="M422 413L315 0H183L40 500H146L250 91L360 500H484L594 91L698 500H804L661 0H529L422 413ZM265 681H367V579H265V681ZM455 681H557V579H455V681Z"  />
<glyph unicode="&#x1EF2;" horiz-adv-x="678" d="M392 255V0H286V255L30 700H150L339 355L529 700H648L392 255ZM409 765H345L241 912H344L409 765Z"  />
<glyph unicode="&#x1EF3;" horiz-adv-x="562" d="M235 -14L25 500H134L286 104L438 500H547L313 -74Q278 -157 241 -184T139 -212Q88 -212 49 -189L84 -105Q109 -123 137 -123Q166 -123 185 -106T235 -14ZM364 565H300L196 712H299L364 565Z"  />
<glyph unicode="&#x2013;" horiz-adv-x="649" d="M70 313H579V227H70V313Z"  />
<glyph unicode="&#x2014;" horiz-adv-x="956" d="M70 313H886V227H70V313Z"  />
<glyph unicode="&#x2018;" horiz-adv-x="309" d="M239 465H165L70 700H184L239 465Z"  />
<glyph unicode="&#x2019;" horiz-adv-x="309" d="M125 700H239L144 465H70L125 700Z"  />
<glyph unicode="&#x201A;" horiz-adv-x="309" d="M125 122H239L144 -113H70L125 122Z"  />
<glyph unicode="&#x201C;" horiz-adv-x="500" d="M430 465H356L261 700H375L430 465ZM239 465H165L70 700H184L239 465Z"  />
<glyph unicode="&#x201D;" horiz-adv-x="500" d="M125 700H239L144 465H70L125 700ZM316 700H430L335 465H261L316 700Z"  />
<glyph unicode="&#x201E;" horiz-adv-x="500" d="M125 122H239L144 -113H70L125 122ZM316 122H430L335 -113H261L316 122Z"  />
<glyph unicode="&#x2020;" horiz-adv-x="360" d="M205 556V312H155V556H60V606H155V712H205V606H300V556H205Z"  />
<glyph unicode="&#x2021;" horiz-adv-x="360" d="M300 468V418H205V312H155V418H60V468H155V556H60V606H155V712H205V606H300V556H205V468H300Z"  />
<glyph unicode="&#x2022;" horiz-adv-x="382" d="M60 280Q60 334 99 372T191 411Q245 411 283 372T322 280Q322 226 283 188T191 149Q137 149 99 188T60 280Z"  />
<glyph unicode="&#x2026;" horiz-adv-x="729" d="M70 114H184V0H70V114ZM307 114H421V0H307V114ZM545 114H659V0H545V114Z"  />
<glyph unicode="&#x2030;" horiz-adv-x="1138" d="M597 700H679L173 0H91L597 700ZM70 555Q70 620 116 666T228 712Q294 712 340 666T386 555Q386 490 340 444T228 398Q162 398 116 444T70 555ZM389 145Q389 210 435 256T547 302Q613 302 659 256T705 145Q705 80 659 34T547 -12Q481 -12 435 34T389 145ZM140 555Q140 515 165 488T228 460Q265 460 290 487T316 555Q316 595 291 622T228 650Q191 650 166 623T140 555ZM459 145Q459 105 484 78T547 50Q584 50 609 77T635 145Q635 185 610 212T547 240Q510 240 485 213T459 145ZM752 145Q752 210 798 256T910 302Q976 302 1022 256T1068 145Q1068 80 1022 34T910 -12Q844 -12 798 34T752 145ZM822 145Q822 105 847 78T910 50Q947 50 972 77T998 145Q998 185 973 212T910 240Q873 240 848 213T822 145Z"  />
<glyph unicode="&#x2039;" horiz-adv-x="364" d="M191 50L70 250L191 450H294L172 250L294 50H191Z"  />
<glyph unicode="&#x203A;" horiz-adv-x="364" d="M70 50L192 250L70 450H173L294 250L173 50H70Z"  />
<glyph unicode="&#x20AC;" horiz-adv-x="807" d="M251 396L248 350L250 308H526V240H267Q296 167 358 126T502 84Q608 84 671 139L727 56Q681 21 630 5T504 -12Q375 -12 281 56T155 240H70V308H143L141 329V350L143 396H70V464H157Q190 574 284 643T504 712Q578 712 629 695T727 644L671 561Q608 616 502 616Q421 616 360 576T269 464H526V396H251Z"  />
<glyph unicode="&#x2122;" horiz-adv-x="488" d="M50 700H191V672H136V525H104V672H50V700ZM298 525L248 678L249 667V525H216V700H270L317 553L364 700H418V525H386V667L387 678L336 525H298Z"  />
<glyph unicode="&#x2202;" horiz-adv-x="652" d="M302 712Q435 712 508 613T582 337Q582 168 516 78T314 -12Q201 -12 131 54T60 229Q60 334 124 395T298 456Q423 456 481 367Q481 485 433 551T303 618L277 616L261 709L302 712ZM315 83Q383 83 424 122T465 229Q465 292 426 333T315 375Q240 375 202 334T164 229Q164 163 205 123T315 83Z"  />
<glyph unicode="&#x2212;" horiz-adv-x="586" d="M70 250V330H516V250H70Z"  />
<glyph unicode="&#x222B;" horiz-adv-x="466" d="M184 558Q184 712 339 712Q398 712 436 689L401 609Q375 626 341 626Q282 626 282 560V-58Q282 -212 127 -212Q68 -212 30 -189L65 -109Q91 -126 125 -126Q184 -126 184 -60V558Z"  />
<glyph unicode="&#x2260;" horiz-adv-x="586" d="M249 140L175 0H105L179 140H70V220H221L295 360H70V440H337L411 580H481L407 440H516V360H365L291 220H516V140H249Z"  />
<glyph unicode="&#x2264;" horiz-adv-x="523" d="M453 154H338L70 427L338 700H453L185 427L453 154ZM72 0V80H453V0H72Z"  />
<glyph unicode="&#x2265;" horiz-adv-x="523" d="M338 427L70 700H185L453 427L185 154H70L338 427ZM70 0V80H451V0H70Z"  />
<glyph unicode="&#xFB01;" horiz-adv-x="633" d="M108 500V594Q108 748 263 748Q322 748 360 725L325 645Q299 662 265 662Q206 662 206 596V500H323V415H206V0H108V415H35V500H108ZM460 500H558V0H460V500ZM458 681H560V579H458V681Z"  />
<glyph unicode="&#xFB02;" horiz-adv-x="633" d="M108 500V594Q108 748 263 748Q322 748 360 725L325 645Q299 662 265 662Q206 662 206 596V500H323V415H206V0H108V415H35V500H108ZM460 736H558V0H460V736Z"  />

</font>
</defs>
</svg>
